<svg width="90" height="90" viewBox="0 0 90 90" fill="none" xmlns="http://www.w3.org/2000/svg">
<g filter="url(#filter0_g_115_245)">
<path d="M73.1445 48.5068L85.1897 55.8381C84.7733 57.3406 84.2723 58.8192 83.6889 60.2667L69.59 59.0065L77.8599 70.4081C76.9027 71.648 75.8752 72.8322 74.7827 73.955L62.3026 67.3927L65.5519 81.1494C64.1972 81.9297 62.8015 82.6353 61.3711 83.2631L52.4073 72.3728L50.1312 86.3792C48.5861 86.5871 47.0311 86.7054 45.4742 86.7335L41.3851 73.2182L33.9246 85.3526C32.4268 84.9518 30.9538 84.4665 29.5125 83.8992L30.9283 69.7841L19.4344 78.1783C18.205 77.2342 17.0319 76.2193 15.9209 75.1386L22.6171 62.5897L8.82634 65.9836C8.06039 64.6379 7.37115 63.2494 6.76187 61.8247L17.7279 52.73L3.74263 50.6325C3.55323 49.0891 3.45169 47.5353 3.43849 45.9785L16.9968 41.7472L4.94358 34.4158C5.35926 32.9131 5.86033 31.4345 6.44434 29.9873L20.5433 31.2474L12.2734 19.8418C13.2317 18.6041 14.259 17.4212 15.3506 16.2989L27.8307 22.8532L24.5815 9.09244C25.9362 8.31347 27.3319 7.60921 28.7623 6.98283L37.7383 17.853L40.0144 3.84257C41.5598 3.63668 43.1146 3.51839 44.6714 3.48828L48.7565 17.0035L56.2211 4.87322C57.7193 5.27082 59.1925 5.75473 60.6332 6.32256L59.2214 20.4376L70.7153 12.0395C71.9447 12.9835 73.1179 13.9984 74.2288 15.0791L67.5326 27.6321L81.3234 24.2382C82.0893 25.5838 82.7786 26.9723 83.3878 28.397L72.4219 37.4877L86.4028 39.6134C86.5921 41.1581 86.6937 42.7133 86.7069 44.2715L73.1445 48.5068Z" fill="#D59146"/>
</g>
<defs>
<filter id="filter0_g_115_245" x="0.438477" y="0.488281" width="89.2683" height="89.2451" filterUnits="userSpaceOnUse" color-interpolation-filters="sRGB">
<feFlood flood-opacity="0" result="BackgroundImageFix"/>
<feBlend mode="normal" in="SourceGraphic" in2="BackgroundImageFix" result="shape"/>
<feTurbulence type="fractalNoise" baseFrequency="0.019999999552965164 0.019999999552965164" numOctaves="3" seed="4516" />
<feDisplacementMap in="shape" scale="6" xChannelSelector="R" yChannelSelector="G" result="displacedImage" width="100%" height="100%" />
<feMerge result="effect1_texture_115_245">
<feMergeNode in="displacedImage"/>
</feMerge>
</filter>
</defs>
</svg>
