<svg width="142" height="387" viewBox="0 0 142 387" fill="none" xmlns="http://www.w3.org/2000/svg">
<g filter="url(#filter0_g_115_227)">
<path d="M101.837 51.6312C102.54 72.8155 98.6279 93.0972 95.72 104.958C94.0835 111.632 92.7652 115.641 92.7652 115.641L92.7899 115.666C92.7843 115.69 87.2223 139.867 92.5742 157.681C99.2123 179.77 99.6559 189.021 100.253 200.772C100.85 212.523 101.317 221.775 96.9047 244.414C93.3583 262.694 101.314 286.206 101.314 286.206C101.344 286.289 108.251 305.041 107.396 317.582C106.741 327.192 99.3556 328.198 95.9146 328.14C94.9319 328.124 94.2654 328.023 94.1594 328.006C94.0192 328.044 92.3763 328.473 90.236 328.41C90.2165 328.41 90.197 328.409 90.1774 328.408C90.0312 328.403 89.8828 328.396 89.7324 328.386C89.6891 328.383 89.6455 328.382 89.6019 328.379C89.5892 328.378 89.5757 328.378 89.5629 328.377L89.5666 328.376C85.9028 328.103 81.1802 326.272 79.9444 318.95C77.8551 306.569 82.8656 287.206 82.8877 287.121C82.8877 287.121 88.4579 262.93 83.1033 245.106C76.4653 223.017 76.0217 213.767 75.4248 202.015C74.8279 190.264 74.3601 181.012 78.7728 158.374C82.3156 140.113 74.3807 116.632 74.3635 116.581C74.3635 116.581 61.181 86.8534 58.9812 53.8045L58.6957 48.2279C62.2711 48.0408 62.319 49.4156 65.894 49.2287C69.4697 49.0416 69.3978 47.6915 72.9735 47.5044C76.5237 47.3165 76.5964 48.6911 80.1718 48.504C83.7469 48.3168 83.6746 46.9668 87.2501 46.7797C90.2993 46.6202 90.8006 47.593 93.1002 47.7678C93.4958 47.7938 93.9476 47.8049 94.4728 47.7802C98.0484 47.5931 97.9756 46.243 101.551 46.0558L101.837 51.6312Z" fill="#F4E8DA"/>
</g>
<g filter="url(#filter1_g_115_227)">
<path d="M136.305 18.7261H136.331L134.81 38.8982L130.795 43.6858C130.45 51.4216 130.369 59.1909 129.974 66.9255L137.952 67.5249C137.952 67.5249 141.219 118.319 135.733 191.606C130.933 255.733 122.047 301.818 119.9 312.336L119.426 314.615L111.546 314.034C110.551 327.327 109.571 340.441 108.699 352.104L113.914 352.493L102.992 383.488L96.8328 351.221L102.093 351.612C102.523 345.888 103.163 337.393 103.366 334.664C103.893 327.619 104.421 320.573 104.948 313.528L99.4768 313.118C99.4653 312.939 96.2198 262.194 101.696 189.037C107.172 115.886 117.964 66.2126 118.003 66.0295L124.161 66.4897C124.814 58.7728 125.455 51.0553 126.058 43.3367L122.815 38.001L124.336 17.8276L136.305 18.7261Z" fill="#6A6D51"/>
</g>
<g filter="url(#filter2_g_115_227)">
<path fill-rule="evenodd" clip-rule="evenodd" d="M21.8955 3.78802C35.0616 1.26968 48.3776 12.8647 51.5693 29.5966C54.4618 44.8074 48.103 59.2455 36.7324 63.5595L37.5713 67.998L38.209 67.8769C40.8606 67.372 43.4199 69.1139 43.9248 71.7656L50.4053 105.805L52.2676 105.452C52.3356 105.618 66.8545 141.112 77.0791 194.896C87.3277 248.783 86.8545 287.185 86.8545 287.185L85.0068 287.534L91.4932 321.598C91.8797 323.628 90.9484 325.603 89.3008 326.644L105.93 367.428L77.3525 372.864L77.8242 328.82C75.9194 328.45 74.3392 326.959 73.9541 324.936L73.5615 322.88C73.504 322.672 73.4534 322.46 73.4131 322.244L67.4404 290.867L65.5586 291.225C65.5364 291.17 50.9879 255.648 40.7471 201.778C30.5164 147.986 30.9711 109.624 30.9727 109.491L32.8477 109.135L26.8838 77.7978C26.853 77.6382 26.828 77.4783 26.8076 77.3193L26.3867 75.1034C25.8822 72.452 27.622 69.8934 30.2734 69.3886L30.9121 69.2665L30.0742 64.831L30.0488 64.8056C17.8803 64.9549 6.68407 53.8835 3.76661 38.6728C0.600012 21.941 8.7295 6.28158 21.8955 3.78802ZM87.6065 327.313L85.3438 327.743C85.1934 327.785 85.0405 327.824 84.8838 327.855L82.3399 328.329C82.1944 328.357 82.0483 328.379 81.9033 328.398L79.669 328.824C79.6323 328.831 79.5953 328.836 79.5586 328.842L79.0986 370.795L103.561 366.132L87.7227 327.287C87.6839 327.295 87.6456 327.306 87.6065 327.313ZM49.8486 29.8954C46.8313 14.0863 34.4378 3.11496 22.1943 5.45892C9.97587 7.80301 2.47061 22.5403 5.4629 38.3495C8.25584 53.0364 19.1024 63.6587 30.6973 63.0605L31.4453 63.0107L32.584 68.9482L32.7637 68.914C32.8312 68.8995 32.8995 68.8838 32.9678 68.871L34.0332 68.6718L35.875 68.3202L34.7373 62.3876L34.7617 62.412L35.46 62.163C46.4567 58.4476 52.6664 44.5827 49.8486 29.8954Z" fill="#B55C3A"/>
</g>
<defs>
<filter id="filter0_g_115_227" x="55.6958" y="43.0557" width="54.7737" height="288.361" filterUnits="userSpaceOnUse" color-interpolation-filters="sRGB">
<feFlood flood-opacity="0" result="BackgroundImageFix"/>
<feBlend mode="normal" in="SourceGraphic" in2="BackgroundImageFix" result="shape"/>
<feTurbulence type="fractalNoise" baseFrequency="0.019999999552965164 0.019999999552965164" numOctaves="3" seed="4516" />
<feDisplacementMap in="shape" scale="6" xChannelSelector="R" yChannelSelector="G" result="displacedImage" width="100%" height="100%" />
<feMerge result="effect1_texture_115_227">
<feMergeNode in="displacedImage"/>
</feMerge>
</filter>
<filter id="filter1_g_115_227" x="93.8328" y="14.8276" width="48.0845" height="371.661" filterUnits="userSpaceOnUse" color-interpolation-filters="sRGB">
<feFlood flood-opacity="0" result="BackgroundImageFix"/>
<feBlend mode="normal" in="SourceGraphic" in2="BackgroundImageFix" result="shape"/>
<feTurbulence type="fractalNoise" baseFrequency="0.019999999552965164 0.019999999552965164" numOctaves="3" seed="4516" />
<feDisplacementMap in="shape" scale="6" xChannelSelector="R" yChannelSelector="G" result="displacedImage" width="100%" height="100%" />
<feMerge result="effect1_texture_115_227">
<feMergeNode in="displacedImage"/>
</feMerge>
</filter>
<filter id="filter2_g_115_227" x="0.0825195" y="0.444336" width="108.847" height="375.42" filterUnits="userSpaceOnUse" color-interpolation-filters="sRGB">
<feFlood flood-opacity="0" result="BackgroundImageFix"/>
<feBlend mode="normal" in="SourceGraphic" in2="BackgroundImageFix" result="shape"/>
<feTurbulence type="fractalNoise" baseFrequency="0.019999999552965164 0.019999999552965164" numOctaves="3" seed="4516" />
<feDisplacementMap in="shape" scale="6" xChannelSelector="R" yChannelSelector="G" result="displacedImage" width="100%" height="100%" />
<feMerge result="effect1_texture_115_227">
<feMergeNode in="displacedImage"/>
</feMerge>
</filter>
</defs>
</svg>
