<svg width="150" height="151" viewBox="0 0 150 151" fill="none" xmlns="http://www.w3.org/2000/svg">
<path d="M51.2876 35.576C51.2081 35.6339 51.1259 35.6924 51.0411 35.7513C49.1396 37.0569 45.774 39.5228 44.0599 41.199C44.027 41.23 43.9941 41.261 43.9612 41.2921C43.534 41.6944 43.1467 42.0893 42.7 42.5671C41.6557 43.721 40.1886 45.2377 37.5717 48.8772C36.8715 49.9774 36.2081 51.1035 35.5799 52.2519C32.7507 57.438 30.6334 63.083 29.4679 68.8421C27.8327 76.9184 28.0106 85.3171 30.4771 93.1428C30.5356 93.3111 30.5961 93.4818 30.6582 93.6536C31.8237 96.9894 33.8876 100.857 35.3257 103.206C37.1307 106.213 38.6154 108.114 39.866 109.646C47.3901 118.144 58.0397 123.883 69.3689 126.095C72.9205 126.795 76.5415 127.161 80.1689 127.194C81.721 127.209 83.251 127.164 84.803 127.06C86.6185 126.937 88.3278 126.719 90.0882 126.379C91.9274 125.965 93.6912 125.414 95.241 124.817C97.4372 123.974 99.2858 123.023 100.776 122.193C104.395 120.224 108.103 117.325 110.509 114.78C110.905 114.369 111.271 113.971 111.603 113.596C113.365 111.444 114.902 109.094 116.203 106.623C116.315 106.471 116.429 106.318 116.543 106.161C117.952 104.209 119.272 101.501 120.605 97.0064C121.176 95.0467 121.734 92.7346 122.194 89.9799C122.486 88.1981 122.707 87.2954 122.895 86.5478C122.949 86.3282 122.998 86.1216 123.041 85.9115C123.188 85.1898 123.151 84.4179 123.085 83.5069C122.998 82.3217 122.868 80.9238 122.973 79.0601C123.246 73.1024 122.304 70.5201 121.714 68.6463C121.529 68.0936 121.354 67.5963 121.2 67.0833C120.706 65.4179 120.158 63.0175 119.699 61.1966C119.356 59.7484 118.158 57.0148 117.027 55.0788C116.606 54.3454 116.09 53.3238 115.43 52.1552C114.876 51.1716 114.214 50.0778 113.43 48.9691C113.253 48.7187 113.069 48.4686 112.878 48.2199C110.25 44.8656 108.478 43.4255 107.104 42.2501C106.706 41.9206 106.329 41.6209 105.947 41.3289C104.741 40.4043 103.193 39.3212 101.545 38.3511C99.5772 37.1832 97.4679 36.187 95.8153 35.5526C92.219 33.9013 88.3897 32.6925 84.4619 31.9497C84.4604 31.9204 83.9448 31.9169 83.4154 32.002C81.3161 32.2927 78.3975 33.0419 75.7702 31.8394C74.4644 31.2321 73.7825 30.0931 73.7005 29.4129C73.591 28.7 73.8278 28.3278 74.1213 28.1967C74.7283 27.9469 75.7157 28.7054 76.7476 28.4125C77.8572 28.274 79.7758 27.4377 82.5366 26.8423C83.3014 26.7122 84.1187 26.5402 85.3358 26.7051C89.8875 27.3726 94.3753 28.6087 98.6387 30.4486C104.616 33.0249 110.177 36.8385 114.543 41.8413C115.71 43.1771 116.792 44.5915 117.774 46.0735C119.329 48.4187 120.694 50.8853 121.867 53.4279C122.062 53.8521 122.253 54.2787 122.438 54.7075C124.131 58.1239 125.417 61.7293 126.121 64.3178C126.706 66.4563 126.925 68.0632 127.087 69.4337C127.197 70.378 127.275 71.2137 127.392 72.0538C127.455 72.5052 127.541 73.1219 127.63 73.8674C128.016 76.9038 128.299 82.145 127.661 86.8699C127.395 88.9635 126.909 91.3715 126.304 93.6294C125.453 96.8577 124.337 99.7658 123.858 101.256C123.033 103.887 121.664 106.766 120.233 109.175C118.879 111.479 117.487 113.363 116.774 114.495C115.919 115.848 115.015 116.883 113.573 118.31C112.568 119.292 111.298 120.471 109.472 121.932C107.348 123.617 105.671 124.57 104.246 125.321C102.212 126.369 100.655 127.047 98.3393 128.119C95.7588 129.307 92.863 130.165 90.5872 130.516C89.5303 130.684 88.3308 130.867 87.0871 131.005C86.431 131.077 85.7534 131.138 85.0689 131.181C84.0507 131.246 83.0385 131.276 82.0858 131.258C80.781 131.234 79.699 131.092 78.758 130.951C78.4646 130.906 78.1813 130.862 77.9064 130.821C76.8697 130.778 75.8426 130.712 74.8137 130.622C74.6445 130.627 74.4666 130.634 74.2809 130.639C73.3467 130.664 72.2114 130.681 70.7961 130.538C68.5707 130.31 66.6515 129.839 64.667 129.256C63.1198 128.798 61.5297 128.27 59.7114 127.665C58.4685 127.251 57.0576 126.769 55.6736 126.233C53.6188 125.443 51.6337 124.524 50.3336 123.75C49.8439 123.46 49.4595 123.149 49.0845 122.837C49.0829 122.836 49.0813 122.834 49.0798 122.833C49.0543 122.812 49.0287 122.791 49.0033 122.769C45.8019 120.961 42.7603 118.847 39.9526 116.438C39.6994 116.24 39.4456 116.037 39.196 115.834C37.9762 114.842 36.8371 113.809 36.0588 113.166C35.2103 112.473 33.3166 110.479 31.5667 108.161C30.4143 106.649 29.3199 105.01 28.4619 103.642C27.9584 102.841 27.6166 102.012 27.2874 101.15C26.9798 100.343 26.6883 99.5184 26.2932 98.6444C26.0956 98.207 25.8656 97.7374 25.6302 97.2349C25.4234 96.7938 25.2106 96.3229 25.0097 95.8197C24.8233 95.3522 24.4948 94.2758 24.1546 92.8864C23.9431 92.0249 23.7266 91.0391 23.528 90.0088C22.8621 87.2918 22.4276 84.5546 22.2102 81.763C22.1024 81.1887 21.9872 80.695 21.8529 80.2985C21.7566 80.0147 21.6466 79.772 21.5357 79.5208C21.385 79.1789 21.2313 78.8217 21.1134 78.3229C21.0211 77.9373 20.9905 77.4867 21.0361 77.1826C21.0572 77.0412 21.094 76.9332 21.1275 76.8353C21.1658 76.7231 21.2001 76.6231 21.2035 76.4996C21.2059 76.4106 21.1844 76.317 21.1588 76.2016C21.1181 76.0174 21.066 75.7768 21.083 75.4136C21.1463 74.0585 21.296 72.5696 21.5072 71.0706C21.6843 69.8099 21.9029 68.5617 22.1072 67.4619C22.1646 67.1528 22.2207 66.8559 22.274 66.574C22.5402 65.1485 23.1102 63.1639 23.7914 61.2284C24.264 59.876 24.7848 58.5455 25.2351 57.4075C25.676 56.2907 26.0932 55.1163 26.5308 53.9861C27.0544 52.6309 27.6087 51.3398 28.222 50.3175C28.346 50.1108 28.5721 49.8907 28.8571 49.619C29.0593 49.4265 29.2922 49.2063 29.54 48.9481C30.2614 47.6292 31.0342 46.3367 31.8596 45.0744C31.877 45.0225 31.8952 44.969 31.9133 44.9153C31.9135 44.9144 31.9137 44.9135 31.9139 44.9126C32.3229 43.706 32.9294 42.0174 34.6396 40.2755C35.074 39.8355 35.4155 39.6147 35.7226 39.4181C36.0249 39.2252 36.2939 39.0573 36.6025 38.7343C36.9535 38.3672 37.3006 37.8807 37.6975 37.3522C38.2511 36.6133 38.9005 35.7964 39.7314 35.1608C39.788 35.1174 39.8492 35.0711 39.9127 35.0228C40.5128 34.5654 41.4214 33.905 42.4237 33.3825C44.0895 32.084 45.8675 30.9086 47.7499 29.9022C48.6277 29.4361 49.5504 28.8985 50.4908 28.3568C54.1148 26.3745 57.6299 23.8946 62.8745 23.3251C63.8094 23.2778 64.8046 23.2038 65.8283 23.1604C68.3837 23.048 71.2439 23.3667 73.1367 24.8345C75.0807 26.3898 74.6933 28.0615 74.1213 28.1966C73.5011 28.411 72.6961 27.9516 71.5959 27.993C70.4696 27.9493 68.5095 28.1321 66.1937 28.3816C65.2744 28.4732 64.3305 28.598 63.3056 28.7087C61.3149 28.9667 58.6776 30.3851 56.2413 31.8876C56.074 32 55.9042 32.1143 55.7358 32.2276C54.478 33.0737 53.3581 33.9917 52.1519 34.9253C51.87 35.1422 51.5873 35.3574 51.2876 35.576Z" fill="#B55C3A"/>
<path d="M69.6809 46.8998C70.383 46.2319 72.082 45.8314 72.9717 45.7295C72.9882 45.7271 73.0047 45.7247 73.0212 45.7223C73.2351 45.6935 73.4354 45.6581 73.671 45.6204C74.22 45.5393 74.9867 45.4084 76.5355 45.5295C76.9795 45.5026 77.4281 45.4924 77.8721 45.4991C82.6273 45.6189 87.5093 47.1895 91.0998 51.0828C91.148 51.1286 91.1967 51.1756 91.2455 51.2235C92.1998 52.1255 93.2027 53.5488 93.5371 54.5817C93.9816 55.8872 94.0484 56.8215 94.0656 57.554C94.145 58.2491 94.1574 58.8951 94.1198 59.5762C93.9091 62.5377 93.3234 65.7147 91.3646 68.4666C90.6421 69.4754 89.7337 70.3728 88.7464 71.0883C87.8374 71.7505 86.8628 72.2687 85.8912 72.6842C85.3405 72.981 84.8268 73.2403 84.3333 73.468C83.6551 73.7828 83.0362 74.0292 82.5235 74.1753C81.282 74.5301 79.8717 74.6375 78.8533 74.7008C78.6862 74.7113 78.5304 74.7205 78.3858 74.7297C77.5952 74.8858 76.8172 75.0367 76.0533 75.1927C75.9982 75.1746 75.9426 75.1554 75.8861 75.1358C75.1822 74.8923 74.3726 75.0089 73.1519 75.2414C72.6206 75.3443 72.0113 75.4709 71.3129 75.6198C70.8598 75.7175 70.6005 75.6517 70.3841 75.5987C70.3207 75.5832 70.2614 75.569 70.2021 75.5611C69.9995 75.5339 69.8389 75.6801 69.6593 75.8544C69.4264 76.081 69.1604 76.3534 68.6898 76.3841C67.1668 76.5062 66.7897 77.188 66.5713 77.6332C66.5163 77.7459 66.4685 77.8496 66.412 77.9396C66.5215 77.8669 66.6143 77.7892 66.6917 77.713C67.0803 77.2951 67.0754 77.1325 67.1082 77.0654C67.1247 77.0032 67.1069 77.034 67.0873 77.0912C67.0451 77.2164 66.9835 77.4502 66.92 77.6592C66.8143 77.9945 67.0425 78.7234 67.3087 79.2689C67.406 79.4643 67.4667 79.7737 67.5385 80.1127C67.6154 80.4771 67.7086 80.8956 67.8807 81.3336C68.3167 82.4374 68.5609 83.029 68.7529 83.5017C68.808 83.6366 68.8593 83.7627 68.9116 83.8886C69.0764 84.2848 69.2611 84.7841 69.4512 85.2879C69.679 85.8925 69.915 86.5047 70.1284 86.9603C70.4108 88.2224 70.6904 89.494 70.979 90.7548C71.1284 91.4081 71.0409 92.1056 70.7228 92.7041C70.4041 93.3022 69.8844 93.7529 69.2562 93.9512C68.6347 94.1696 67.9451 94.1111 67.3325 93.8017C66.7203 93.4922 66.2387 92.9565 65.984 92.3181C65.4751 91.042 64.9763 89.7556 64.5104 88.4505C63.9455 86.8674 63.4274 85.2571 63.0158 83.5962C62.7283 82.4292 62.475 81.2619 62.28 80.0051C62.2599 79.8743 62.2411 79.7448 62.2235 79.617C61.9201 78.5106 61.509 77.6715 61.7612 75.8637C61.8886 75.3948 61.9727 74.5692 63.1581 73.6058C63.5104 73.3621 63.8281 73.2165 64.1118 73.0948C64.3947 72.9738 64.6445 72.8768 64.8726 72.7386C64.9952 72.6645 65.161 72.5608 65.3632 72.4415C66.1803 71.9453 67.637 71.2524 69.0045 71.0267C69.6075 70.9218 70.3179 70.8834 70.9771 70.8723C71.9226 70.8548 72.7737 70.8852 73.1778 70.7614C73.8907 70.5432 74.7279 70.4994 75.4562 70.4679C76.1509 70.4377 76.751 70.4153 77.0692 70.2597C77.4521 70.0735 77.7957 70.0792 78.3062 70.0836C78.6615 70.086 79.0891 70.0895 79.6616 70.0202C80.3141 69.941 80.7881 69.9416 81.1819 69.9388C81.7435 69.9317 82.1618 69.9196 82.7037 69.6127C83.2965 69.2736 83.8867 68.9566 84.3781 68.8098C84.6009 68.7442 84.841 68.631 85.0794 68.5057C85.3937 68.3409 85.7081 68.1523 86.0156 68.0237C86.2697 67.9176 86.5248 67.8886 86.754 67.8522C86.8253 67.8409 86.8939 67.8287 86.9583 67.8139C87.1276 67.6714 87.2893 67.5215 87.443 67.3631C87.4538 67.3233 87.4642 67.2804 87.474 67.2365C87.5236 67.016 87.5705 66.7501 87.689 66.4831C87.8674 66.0706 88.1351 65.7824 88.399 65.4468C88.6087 65.1748 88.8064 64.8903 88.9321 64.4868C89.02 64.2037 89.0605 63.9035 89.0962 63.5677C89.1488 63.0689 89.1562 62.6127 89.2582 62.2649C89.2962 62.1355 89.389 62.0497 89.4824 61.951C89.483 61.9506 89.4835 61.9502 89.4841 61.9498C89.4904 61.9432 89.4966 61.9366 89.5028 61.93C89.5446 61.1581 89.5253 60.4002 89.4621 59.5762C89.4556 59.5052 89.448 59.4351 89.4394 59.3659C89.417 59.3017 89.3939 59.238 89.3704 59.1759C89.2562 58.8745 89.1226 58.6015 88.9574 58.444C88.781 58.275 88.5987 57.8242 88.3352 57.4082C88.1637 57.1309 87.9616 56.8684 87.755 56.6814C87.635 56.573 87.6251 56.406 87.6037 56.2277C87.5841 56.0622 87.554 55.8869 87.4284 55.7658C87.3654 55.7052 87.2786 55.6562 87.1852 55.6066C87.1029 55.5628 87.015 55.5181 86.9324 55.4626C86.8557 55.4112 86.7467 55.2349 86.5865 55.0145C86.4874 54.8782 86.3659 54.7228 86.2252 54.5708C85.7693 54.2792 85.2779 54.0186 84.7608 53.7881C84.6238 53.7958 84.4902 53.8321 84.3646 53.9035C84.2745 53.9547 84.1849 54.0256 84.0941 54.0988C83.9705 54.1985 83.8445 54.3028 83.7103 54.3708C83.6051 54.4237 83.5145 54.4228 83.4787 54.3645C83.4621 54.3373 83.4574 54.2981 83.4529 54.2626C83.4477 54.2219 83.4428 54.1856 83.421 54.1771C83.4053 54.171 83.3793 54.1868 83.3477 54.2059C83.297 54.2364 83.232 54.276 83.1687 54.252C82.9324 54.1621 82.6698 54.0405 82.4041 53.929C82.108 53.8044 81.8104 53.6936 81.5606 53.6451C81.2808 53.5901 80.9094 53.4044 80.518 53.2354C80.2454 53.1171 79.9666 53.0072 79.7198 52.9465C79.4782 52.887 79.2146 52.9081 78.9629 52.9352C78.6602 52.9676 78.3738 53.0083 78.1345 52.9181C78.0861 52.8998 78.0289 52.7976 77.9547 52.6703C77.9022 52.5802 77.8408 52.4773 77.7691 52.3827C77.4507 52.3779 77.1307 52.3786 76.8155 52.3853C76.805 52.3993 76.7943 52.4137 76.7835 52.4283C76.7833 52.4286 76.7832 52.429 76.783 52.4293C76.5343 52.7605 76.2381 53.2143 75.7416 53.013C75.6134 52.9623 75.5214 52.8519 75.4369 52.753C75.3541 52.6559 75.2785 52.5696 75.1863 52.5637C75.0811 52.5572 74.9753 52.6423 74.8588 52.7373C74.6959 52.8706 74.5262 53.0214 74.31 52.9644C74.2952 52.9606 74.2792 52.9563 74.2627 52.9521C74.107 52.9124 73.8686 52.8593 73.5994 52.7065C72.9693 52.8295 72.3521 52.9967 71.786 53.2075C70.8338 53.5628 69.9998 54.0513 69.3707 54.7038C69.0641 55.0187 68.6161 55.2461 68.0349 55.4231C67.4556 55.5914 66.7909 55.6983 66.1625 55.5435C65.5377 55.3909 64.9872 54.9499 64.7343 54.2164C64.4791 53.4895 64.5953 52.5205 65.0736 51.7154C65.8442 50.4038 66.9026 49.3086 68.0536 48.457C68.1091 48.4059 68.1657 48.3555 68.2229 48.3064C68.6491 47.941 69.019 47.5417 69.4067 47.1601C69.4963 47.0723 69.5875 46.9851 69.6809 46.8998Z" fill="#B55C3A"/>
<path d="M71.7886 109.68C71.8709 109.984 71.9764 109.829 71.9829 109.749C71.9832 109.748 71.9835 109.746 71.9839 109.745C71.9877 109.726 71.9944 109.719 72.0018 109.71C72.0152 109.693 72.0551 109.654 71.9528 109.484C71.9583 109.489 71.96 109.493 71.9572 109.495C71.9278 109.499 71.4768 109.667 71.1355 109.971C71.1366 109.976 71.1377 109.98 71.1389 109.985C71.1608 110.073 71.2021 110.142 71.0936 110.19C70.9557 110.255 70.8328 110.316 70.7302 110.377C70.5442 110.597 70.4073 110.867 70.7222 111.119C70.7812 111.163 70.8484 111.201 70.9339 111.233C71.0247 111.264 71.1117 111.29 71.1966 111.311C71.391 111.36 71.5983 111.394 71.784 111.405C71.8967 111.355 72.0166 111.29 72.1082 111.224C72.2378 111.133 72.3403 111.045 72.4152 111.016C72.5891 110.947 72.7522 111.046 72.865 111.11C72.8831 111.12 72.8997 111.13 72.9145 111.138C72.9769 111.08 73.0056 111.019 73.0076 110.967C73.0202 110.989 73.0335 111.013 73.0475 111.036C73.2256 111.332 73.2862 111.292 73.3198 111.249C73.3368 111.229 73.3526 111.207 73.3986 111.183C73.4277 111.168 73.5554 111.218 73.6636 111.251C73.6953 111.261 73.7253 111.27 73.7502 111.275C73.8359 111.293 73.7651 111.228 73.676 111.162C73.5614 111.073 73.413 110.992 73.5738 110.985C74.0966 110.92 73.7889 110.687 73.5448 110.612C73.4736 110.584 73.4089 110.561 73.3731 110.54C73.2574 110.474 73.3743 110.387 73.5297 110.294C73.6538 110.22 73.5126 110.09 73.3364 110.021C73.2701 109.994 73.2597 109.946 73.2453 109.888C73.2306 109.828 73.2113 109.758 73.1241 109.704C72.9034 109.57 72.7892 109.52 72.6991 109.478C72.6733 109.467 72.6497 109.457 72.6254 109.447C72.5485 109.417 72.4749 109.376 72.4011 109.342C72.3126 109.3 72.2246 109.272 72.1344 109.278C72.1313 109.132 72.1373 108.992 72.1528 108.875C72.162 108.815 72.3246 108.567 72.5289 108.123C72.7382 107.68 72.9624 107.082 73.2433 106.487C73.524 105.892 73.8728 105.349 74.2966 105.028C74.7173 104.707 75.1591 104.641 75.4432 104.805C76.0138 105.132 76.5021 105.528 76.9124 105.972C77.4113 106.512 77.794 107.124 78.0297 107.789C78.1941 108.253 78.3033 108.738 78.3553 109.236C78.3607 109.288 78.3652 109.339 78.3694 109.391C78.5902 109.784 78.7602 110.229 78.8068 110.562C78.8461 110.835 78.7436 111.037 78.6524 111.202C78.5894 111.316 78.5314 111.413 78.5221 111.522C78.5171 111.58 78.5142 111.661 78.5079 111.759C78.4891 112.15 78.3744 112.899 77.9005 113.454C77.695 113.699 77.3824 113.935 77.0684 114.119C76.6196 114.387 76.1828 114.534 76.0509 114.709C75.81 115.027 75.3856 115.191 75.0364 115.275C74.6943 115.361 74.4154 115.389 74.2948 115.539C74.1465 115.72 73.9663 115.711 73.7306 115.676C73.5669 115.652 73.3543 115.618 73.1185 115.613C72.8368 115.608 72.6289 115.519 72.4811 115.442C72.2668 115.331 72.097 115.242 71.8624 115.376C71.5987 115.525 71.2819 115.592 71.0978 115.507C71.0089 115.468 70.9014 115.455 70.788 115.439C70.6362 115.417 70.4812 115.392 70.3647 115.302C70.2666 115.227 70.2071 115.08 70.1567 114.95C70.1409 114.909 70.1259 114.871 70.1107 114.836C70.0473 114.82 69.9835 114.804 69.919 114.788C69.8924 114.781 69.8644 114.774 69.8364 114.766C69.8137 114.781 69.7894 114.798 69.7639 114.814C69.6363 114.898 69.4726 114.996 69.3017 115.008C69.0327 115.027 68.8345 114.857 68.6673 114.68C68.5316 114.54 68.3933 114.384 68.2004 114.275C68.0689 114.201 67.8904 114.129 67.7215 114.05C67.4726 113.936 67.2179 113.776 67.1338 113.601C67.1018 113.535 67.1251 113.437 67.1517 113.341C67.1519 113.34 67.1522 113.34 67.1524 113.339C67.1542 113.333 67.1559 113.327 67.1577 113.32C66.8344 113.005 66.5486 112.643 66.3123 112.253C66.2784 112.225 66.2449 112.196 66.2121 112.166C66.0513 112.022 65.9044 111.871 65.7403 111.786C65.5614 111.695 65.3911 111.374 65.2535 111.022C65.1621 110.792 65.0829 110.553 64.9949 110.353C64.9434 110.237 65.0251 110.124 65.1119 110.014C65.193 109.911 65.2782 109.811 65.2648 109.697C65.258 109.64 65.2282 109.577 65.1972 109.509C65.17 109.449 65.1419 109.385 65.1282 109.319C65.1155 109.257 65.1759 109.129 65.2588 108.975C65.3101 108.879 65.3701 108.773 65.4269 108.662C65.4412 108.341 65.4783 108.022 65.5386 107.707C65.4916 107.62 65.4229 107.534 65.3259 107.447C65.2564 107.386 65.1698 107.321 65.0818 107.255C64.9622 107.164 64.8395 107.068 64.7528 106.966C64.6849 106.885 64.6735 106.817 64.7243 106.796C64.7479 106.786 64.7846 106.786 64.8177 106.787C64.8557 106.787 64.8894 106.788 64.8948 106.773C64.8987 106.763 64.8806 106.742 64.8589 106.717C64.8242 106.676 64.7799 106.623 64.7971 106.58C64.8611 106.419 64.9657 106.25 65.074 106.09C65.1944 105.91 65.3185 105.741 65.3925 105.589C65.4752 105.417 65.7026 105.243 65.9388 105.083C66.1033 104.971 66.2706 104.867 66.3958 104.763C66.5186 104.66 66.5923 104.504 66.6715 104.352C66.7653 104.171 66.8704 103.993 67.0481 103.944C67.0841 103.935 67.1814 103.982 67.3011 104.045C67.386 104.089 67.4825 104.14 67.577 104.184C67.7295 104.058 67.8925 103.94 68.0635 103.831C68.0617 103.816 68.06 103.8 68.0581 103.785C68.058 103.784 68.058 103.784 68.0579 103.784C68.0112 103.43 68.0047 102.913 68.4485 102.969C68.5597 102.985 68.6656 103.068 68.7588 103.144C68.8505 103.219 68.9304 103.287 68.9949 103.279C69.0681 103.27 69.1156 103.176 69.173 103.074C69.2524 102.93 69.3554 102.768 69.532 102.818C69.544 102.821 69.557 102.825 69.5703 102.829C69.6966 102.864 69.8841 102.92 70.0893 103.095C70.5349 103.035 70.9903 103.034 71.4224 103.09C72.1439 103.18 72.8086 103.426 73.3508 103.735C73.6241 103.888 73.7758 104.272 73.7469 104.787C73.7213 105.304 73.5226 105.904 73.2432 106.487C72.964 107.07 72.6337 107.604 72.3779 108.023C72.1198 108.441 71.9623 108.708 71.8953 108.762C71.7855 108.85 71.7243 108.961 71.7155 109.067C71.7148 109.08 71.7144 109.093 71.7142 109.106C71.7119 109.196 71.725 109.378 71.7611 109.558C71.7693 109.599 71.7785 109.64 71.7886 109.68Z" fill="#B55C3A"/>
</svg>
