<svg xmlns="http://www.w3.org/2000/svg" version="1.1" xmlns:xlink="http://www.w3.org/1999/xlink" width="40" height="40"><svg width="40" height="40" viewBox="0 0 40 40" fill="none" xmlns="http://www.w3.org/2000/svg">
<rect width="40" height="40" rx="8" fill="#6A6D51"></rect>
<path d="M10.6603 13.4207C10.7815 13.2328 11.0816 12.9321 11.2466 12.7666C11.2496 12.7636 11.2526 12.7605 11.2557 12.7575C11.2948 12.7182 11.3308 12.6801 11.373 12.6354C11.4735 12.5289 11.6094 12.385 11.9081 12.0987C11.9891 12.0099 12.0704 11.9214 12.1521 11.8333C13.0338 10.8811 13.9392 9.95075 14.8493 9.02475C14.8603 9.01259 14.8714 9.00022 14.8827 8.98771C15.101 8.74618 15.3716 8.44668 15.5543 8.2702C15.7865 8.04584 15.9475 7.89649 16.0803 7.7743C16.8034 7.03907 17.5242 6.30158 18.2329 5.55306C18.4551 5.31847 18.6761 5.08273 18.8956 4.8457C19.0977 4.62742 19.299 4.40825 19.4994 4.1884C19.611 4.05556 19.7155 3.9279 19.8125 3.80952C19.8145 3.80712 19.8164 3.80473 19.8184 3.80234L19.9864 3.60729L20.2114 3.77113C20.3852 3.89123 20.54 3.9983 20.6647 4.0914C20.9695 4.31899 21.3 4.59658 21.5455 4.80272C21.5856 4.83641 21.6234 4.86823 21.6585 4.89757C21.862 5.05046 22.0657 5.2031 22.2694 5.3556C22.2808 5.36862 22.2922 5.38182 22.3037 5.39527C22.4481 5.56307 22.6584 5.72741 22.9895 5.98615C23.1336 6.09882 23.3007 6.22944 23.4952 6.38599C23.6206 6.48687 23.6751 6.55127 23.7196 6.60388C23.7327 6.61935 23.745 6.63385 23.758 6.64792C23.8023 6.69613 23.8629 6.7292 23.9346 6.76826C24.0275 6.81894 24.139 6.87973 24.2575 6.99682C24.635 7.3699 24.8431 7.48102 25.0005 7.56508C25.0467 7.58974 25.0886 7.61211 25.129 7.63804C25.2602 7.72214 25.425 7.87012 25.544 7.98909C25.6384 8.08343 25.8566 8.23453 26.0272 8.34273C26.0917 8.38364 26.1726 8.44692 26.268 8.52149C26.3666 8.59866 26.4807 8.68798 26.608 8.77695C26.9295 9.00179 27.0998 9.12207 27.2367 9.2188C27.2757 9.24638 27.312 9.2721 27.3483 9.29772C27.4631 9.37869 27.6038 9.48153 27.7462 9.58566C27.9165 9.71027 28.0895 9.83674 28.2236 9.9297C28.5495 10.1984 28.8739 10.4691 29.1983 10.7396C29.3649 10.8787 29.5058 11.0362 29.5889 11.1787C29.6719 11.3213 29.6906 11.437 29.6398 11.5018C29.589 11.5666 29.4721 11.5759 29.3139 11.5292C29.1557 11.4824 28.9691 11.3831 28.7944 11.2543C28.4426 10.9949 28.0908 10.7355 27.7406 10.4739C27.314 10.1553 26.8898 9.83363 26.471 9.50507C26.1781 9.27523 25.8864 9.04383 25.5956 8.8112C25.5657 8.78725 25.5358 8.76327 25.5058 8.7393C25.2472 8.56216 24.9902 8.38394 24.8131 8.25333C24.6669 8.14548 24.5694 8.05524 24.4859 7.97796C24.4284 7.92477 24.3776 7.87771 24.322 7.83529C24.2922 7.81251 24.2511 7.78185 24.2016 7.74488C23.9992 7.59392 23.6556 7.33753 23.3602 7.08059C23.2291 6.96658 23.0812 6.82854 22.94 6.69676C22.7381 6.50832 22.5498 6.33261 22.4437 6.25797C22.2575 6.12691 22.0584 5.95797 21.8826 5.80868C21.7149 5.66628 21.5682 5.54174 21.4736 5.48502C21.3607 5.41726 21.2772 5.34321 21.1529 5.23316C21.0668 5.15682 20.961 5.06318 20.8123 4.94221C20.6406 4.80255 20.5245 4.69688 20.4259 4.60705C20.287 4.48064 20.1825 4.38552 20.0056 4.27085C19.9646 4.24433 19.9236 4.21726 19.8828 4.18991L20.209 4.16402C20.0927 4.30988 19.9727 4.45025 19.8655 4.55821C19.8038 4.62032 19.7364 4.69423 19.6662 4.77113C19.5733 4.87295 19.4756 4.98002 19.3801 5.07198C19.3014 5.14775 19.2285 5.20303 19.1639 5.25195C19.1437 5.26721 19.1244 5.28187 19.106 5.29632C19.0471 5.36019 18.9883 5.42413 18.9296 5.48819C18.922 5.50026 18.914 5.51304 18.9057 5.52636C18.8639 5.59321 18.8125 5.67537 18.739 5.76799C18.6227 5.91458 18.5049 6.02864 18.3806 6.14891C18.2838 6.24255 18.1831 6.33996 18.0762 6.45952C18.0032 6.54105 17.9234 6.63686 17.8443 6.73183C17.7268 6.87288 17.6107 7.01215 17.5208 7.10036C17.4871 7.13342 17.4522 7.15633 17.4177 7.17896C17.4175 7.17905 17.4173 7.17914 17.4172 7.17923C17.4148 7.18076 17.4125 7.18232 17.4101 7.18386C17.2076 7.41384 17.0056 7.64437 16.8039 7.87518C16.7878 7.89642 16.7714 7.91783 16.7552 7.93904C16.6759 8.04267 16.5989 8.14337 16.5553 8.21523C16.5082 8.2931 16.3636 8.46487 16.2113 8.64589C16.1115 8.76443 16.0084 8.88698 15.9271 8.98971C15.8795 9.04977 15.8227 9.0959 15.7643 9.14333C15.7097 9.18758 15.6537 9.23303 15.6025 9.29201C15.5769 9.32155 15.5514 9.35544 15.5241 9.39161C15.5001 9.42346 15.4747 9.45714 15.4468 9.49113C15.4209 9.52272 15.355 9.58556 15.2706 9.66617C15.2184 9.71599 15.1592 9.77262 15.0978 9.83282C14.9483 10.0037 14.7986 10.1745 14.6486 10.3449C14.6231 10.3858 14.6038 10.4239 14.5928 10.4581C14.5849 10.4826 14.5809 10.5059 14.5768 10.5299C14.5711 10.5626 14.5653 10.5963 14.5493 10.6354C14.5368 10.666 14.5154 10.696 14.4952 10.7107C14.4858 10.7175 14.4767 10.7211 14.4685 10.7243C14.4591 10.728 14.4507 10.7313 14.444 10.7387C14.4392 10.744 14.4364 10.7516 14.433 10.7609C14.4274 10.7757 14.4202 10.7949 14.4007 10.8164C14.3282 10.8962 14.2431 10.9844 14.1597 11.0709C14.067 11.167 13.9764 11.2609 13.9075 11.3388C13.8302 11.426 13.709 11.5399 13.5876 11.6541C13.5029 11.7337 13.4181 11.8135 13.348 11.8844C13.2793 11.9538 13.2149 12.0328 13.1526 12.1092C13.0778 12.201 13.0059 12.2893 12.9328 12.3533C12.918 12.3663 12.8924 12.3756 12.8602 12.3873C12.8374 12.3956 12.8112 12.4052 12.7835 12.418C12.6999 12.5082 12.616 12.5981 12.5317 12.6876C12.53 12.692 12.5282 12.6964 12.5265 12.7009C12.5265 12.701 12.5265 12.7011 12.5264 12.7012C12.487 12.8023 12.4331 12.9407 12.2773 13.0611C12.2377 13.0917 12.2054 13.1041 12.1763 13.1154C12.1477 13.1264 12.1222 13.1362 12.0959 13.1609C12.066 13.1889 12.0393 13.2299 12.0102 13.2746C11.9693 13.3374 11.9237 13.4075 11.8578 13.4592C11.8533 13.4628 11.8484 13.4666 11.8434 13.4705C11.7958 13.5082 11.7253 13.5639 11.6449 13.6098C11.4613 13.7971 11.2768 13.9836 11.0917 14.1695C10.7831 14.4793 10.4729 14.7877 10.1628 15.0961C10.0119 15.246 9.84552 15.3698 9.69886 15.4389C9.55213 15.5079 9.43743 15.5168 9.37815 15.4619C9.31889 15.407 9.31901 15.292 9.37656 15.1404C9.43416 14.9889 9.54486 14.8135 9.68278 14.6515C9.9078 14.3875 10.1329 14.1233 10.3587 13.86C10.3699 13.8455 10.3811 13.831 10.3923 13.8166C10.4758 13.7098 10.5443 13.6023 10.6129 13.4948C10.6286 13.4701 10.6444 13.4454 10.6603 13.4207ZM32.0044 12.79C32.0481 12.775 32.0765 12.8174 32.0921 12.8407C32.0924 12.8411 32.0927 12.8415 32.093 12.842C32.0967 12.8475 32.1011 12.8516 32.1063 12.8564C32.1186 12.8678 32.1352 12.8833 32.1571 12.9318C32.1684 12.9395 32.1795 12.9476 32.1903 12.9561C32.307 13.0476 32.4037 13.1644 32.4965 13.2863C32.4981 13.2873 32.4998 13.2883 32.5014 13.2893C32.5331 13.3091 32.5724 13.3337 32.5865 13.3627C32.6044 13.3996 32.6138 13.4281 32.6211 13.4521C32.6946 13.5492 32.7701 13.6437 32.8557 13.7254C32.8825 13.751 32.9103 13.7753 32.9393 13.7981C32.9661 13.8191 32.9936 13.8391 33.0217 13.8583C33.0425 13.8638 33.0635 13.8676 33.0829 13.8711C33.1103 13.8759 33.1346 13.8803 33.1511 13.8885C33.1909 13.9081 33.2208 13.9498 33.243 13.9808C33.2466 13.9859 33.2501 13.9907 33.2533 13.995C33.2794 14.0088 33.3058 14.0223 33.3322 14.0357C33.3317 14.0394 33.3312 14.0433 33.3307 14.0472C33.3237 14.0963 33.348 14.1146 33.3863 14.1436C33.4029 14.1563 33.4222 14.1709 33.4427 14.191C33.4559 14.2039 33.4529 14.2231 33.4504 14.2388C33.4496 14.2434 33.449 14.2477 33.4487 14.2515C33.448 14.2644 33.4612 14.2602 33.4768 14.2552C33.4969 14.2488 33.5212 14.2411 33.5243 14.2677C33.5344 14.3525 33.5806 14.3366 33.6155 14.3246C33.6258 14.321 33.6351 14.3178 33.6422 14.3176C33.6653 14.3169 33.6761 14.344 33.6787 14.3717C33.6807 14.3936 33.7143 14.3998 33.7448 14.3981C33.7563 14.3975 33.7657 14.4046 33.7767 14.413C33.788 14.4217 33.8012 14.4317 33.8204 14.4359C33.8689 14.4466 33.8941 14.453 33.9143 14.4582C33.9201 14.4597 33.9254 14.4611 33.9308 14.4625C33.9479 14.4667 33.9672 14.4743 33.9867 14.4821C34.01 14.4913 34.0338 14.5007 34.0544 14.5046C34.086 14.5424 34.1161 14.5822 34.1463 14.6219C34.1617 14.6423 34.1576 14.6861 34.1338 14.7448C34.11 14.8035 34.0687 14.8721 34.0179 14.9369C33.967 15.0017 33.9102 15.0581 33.8589 15.0952C33.8075 15.1323 33.766 15.1467 33.7424 15.1366C33.6951 15.1161 33.6477 15.0956 33.602 15.0729C33.5464 15.0454 33.4931 15.0147 33.4453 14.9772C33.4119 14.951 33.3796 14.9231 33.3483 14.8941C33.3451 14.8911 33.3419 14.8881 33.3387 14.8851C33.2981 14.879 33.2586 14.8715 33.2348 14.8611C33.2151 14.8526 33.2099 14.8348 33.2054 14.8195C33.2024 14.809 33.1996 14.7997 33.1928 14.7954C33.1891 14.7932 33.1837 14.7905 33.1773 14.7874C33.1508 14.7744 33.1058 14.7524 33.0829 14.7092C33.0727 14.6901 33.0653 14.6623 33.0582 14.6357C33.0481 14.5977 33.0386 14.5623 33.0228 14.5585C32.995 14.5518 32.9778 14.5255 32.9626 14.5022C32.948 14.48 32.9353 14.4606 32.9171 14.4637C32.8952 14.4674 32.8893 14.4543 32.8805 14.4348C32.8744 14.4213 32.8669 14.4048 32.8518 14.3886C32.8343 14.37 32.8273 14.3499 32.8214 14.3328C32.813 14.3088 32.8068 14.2907 32.7762 14.2909C32.7421 14.291 32.7119 14.2844 32.6988 14.2656C32.6928 14.2571 32.6834 14.2506 32.6735 14.2439C32.6605 14.235 32.6468 14.2256 32.6396 14.2103C32.6337 14.1977 32.6354 14.1787 32.637 14.162C32.6375 14.1568 32.638 14.1518 32.6382 14.1472C32.6302 14.1413 32.6222 14.1354 32.6141 14.1296C32.6113 14.1307 32.6082 14.1319 32.605 14.1331C32.5889 14.1392 32.5692 14.1467 32.553 14.1455C32.5275 14.1436 32.5183 14.125 32.5086 14.1054C32.5011 14.0901 32.4933 14.0742 32.4771 14.065C32.4661 14.0588 32.4509 14.0552 32.4358 14.0516C32.4134 14.0462 32.3913 14.0409 32.3837 14.0273C32.3809 14.0222 32.3834 14.0114 32.386 14.0007C32.386 14.0007 32.386 14.0006 32.3861 14.0005C32.3862 13.9998 32.3864 13.9991 32.3866 13.9984C32.3543 13.9828 32.3216 13.9678 32.2886 13.9532C32.2846 13.9534 32.2806 13.9535 32.2767 13.9536C32.2574 13.9541 32.2387 13.9545 32.2209 13.962C32.2016 13.9701 32.1749 13.9627 32.1467 13.9548C32.1283 13.9497 32.1092 13.9444 32.0912 13.9431C32.0807 13.9424 32.0806 13.9292 32.0805 13.9155C32.0803 13.9028 32.0802 13.8897 32.0717 13.8862C32.0674 13.8845 32.0609 13.8849 32.0541 13.8853C32.048 13.8857 32.0416 13.8861 32.036 13.885C32.0309 13.8841 32.0262 13.8732 32.0201 13.8594C32.0164 13.8508 32.0121 13.8411 32.007 13.8318C31.9826 13.8209 31.9584 13.8097 31.9344 13.7982C31.9246 13.802 31.9136 13.8084 31.9014 13.818C31.8926 13.8249 31.8828 13.8337 31.8728 13.8427C31.8591 13.8549 31.8451 13.8675 31.8323 13.8764C31.8224 13.8834 31.8163 13.8844 31.817 13.8789C31.8174 13.8763 31.8192 13.8724 31.8209 13.8688C31.8228 13.8647 31.8244 13.8611 31.8235 13.8605C31.8228 13.86 31.8202 13.8619 31.817 13.8643C31.812 13.8679 31.8055 13.8727 31.8027 13.8709C31.7924 13.8641 31.7829 13.8535 31.7737 13.8431C31.7633 13.8315 31.7532 13.8203 31.7425 13.8148C31.7304 13.8086 31.7226 13.7878 31.7148 13.767C31.7093 13.7525 31.7038 13.7381 31.6969 13.7285C31.6901 13.7191 31.677 13.7169 31.6643 13.7149C31.6491 13.7124 31.6344 13.7101 31.632 13.6953C31.6315 13.6923 31.637 13.6808 31.6439 13.6663C31.6488 13.6561 31.6544 13.6443 31.6591 13.6331C31.6481 13.6245 31.6373 13.6154 31.6269 13.606C31.6254 13.607 31.624 13.608 31.6225 13.6091C31.6224 13.6091 31.6224 13.6092 31.6224 13.6092C31.5887 13.6334 31.5427 13.6665 31.5453 13.6272C31.546 13.6173 31.5526 13.6031 31.5585 13.5903C31.5644 13.5778 31.5696 13.5665 31.568 13.562C31.5661 13.5569 31.5566 13.56 31.5463 13.5633C31.5319 13.5681 31.5158 13.5734 31.5165 13.5572C31.5165 13.5561 31.5166 13.5549 31.5166 13.5537C31.517 13.5421 31.5175 13.5249 31.5268 13.4968C31.5078 13.4725 31.4896 13.4471 31.4719 13.4212C31.4424 13.3779 31.4143 13.3329 31.3862 13.2879C31.3726 13.2659 31.3776 13.2217 31.4016 13.1633C31.4256 13.1049 31.4662 13.0375 31.5161 12.974C31.566 12.9104 31.6217 12.855 31.6728 12.8178C31.7237 12.7806 31.7655 12.7652 31.79 12.7732C31.83 12.7863 31.8701 12.7995 31.9094 12.8135C31.912 12.8135 31.9147 12.8135 31.9172 12.8136C31.9364 12.8142 31.9617 12.8052 31.987 12.7961C31.9928 12.794 31.9987 12.7919 32.0044 12.79ZM13.0432 10.6224C13.1829 10.5837 13.4523 10.5995 13.6005 10.6082C13.6032 10.6083 13.6059 10.6085 13.6087 10.6086C13.6438 10.6107 13.6771 10.6112 13.7161 10.6118C13.809 10.6132 13.9346 10.6151 14.1967 10.6397C14.273 10.6388 14.3492 10.6383 14.4255 10.6383C15.249 10.6383 16.0726 10.6705 16.8961 10.7091C16.9065 10.7089 16.9171 10.7087 16.9278 10.7085C17.1344 10.7045 17.3905 10.6995 17.5514 10.7136C17.756 10.7316 17.895 10.7483 18.0091 10.7627C18.6633 10.7937 19.3174 10.8214 19.9715 10.8329C20.1765 10.8364 20.3816 10.8384 20.5866 10.8384C20.7754 10.8384 20.9642 10.8372 21.153 10.8349C21.2629 10.8264 21.3675 10.8164 21.4644 10.8072C21.6006 10.7941 21.7219 10.7825 21.822 10.7788C22.0634 10.7697 22.3371 10.784 22.5404 10.7947C22.5736 10.7964 22.605 10.7981 22.634 10.7995C22.7955 10.7942 22.957 10.7886 23.1184 10.7828C23.1292 10.786 23.1401 10.7894 23.1511 10.7928C23.2889 10.8357 23.4583 10.8352 23.7249 10.8344C23.841 10.834 23.9756 10.8337 24.1341 10.8368C24.2361 10.8388 24.2886 10.8558 24.3314 10.8697C24.344 10.8737 24.3559 10.8776 24.3678 10.8806C24.4088 10.8912 24.4521 10.8798 24.5031 10.8663C24.5694 10.8488 24.6489 10.8278 24.7539 10.8468C25.0885 10.9073 25.2359 10.8662 25.3475 10.8352C25.3802 10.8261 25.4098 10.8178 25.4402 10.8133C25.5386 10.7984 25.6789 10.8131 25.7849 10.8333C25.869 10.8493 26.0371 10.8334 26.1646 10.8133C26.2129 10.8056 26.2781 10.8054 26.3549 10.8053C26.4344 10.8051 26.5263 10.8049 26.6247 10.7964C26.8733 10.7747 27.0055 10.7643 27.1117 10.7559C27.142 10.7535 27.1702 10.7513 27.1983 10.749C27.2874 10.7419 27.3979 10.736 27.5097 10.73C27.6436 10.7229 27.7795 10.7156 27.8829 10.706C28.1508 10.7162 28.4188 10.7288 28.6868 10.7415C28.8244 10.748 28.9565 10.785 29.0538 10.8459C29.1511 10.9068 29.2057 10.9862 29.2057 11.0686C29.2057 11.1509 29.1511 11.2304 29.0538 11.2913C28.9565 11.3522 28.8244 11.3892 28.6868 11.3957C28.4095 11.4088 28.1322 11.4219 27.8549 11.4323C27.5171 11.445 27.1793 11.4537 26.8416 11.4537C26.6053 11.4537 26.369 11.4517 26.1327 11.4482C26.1084 11.4479 26.084 11.4475 26.0597 11.4471C25.8612 11.4673 25.6631 11.4858 25.5235 11.4923C25.4082 11.4978 25.3242 11.487 25.2523 11.4777C25.2027 11.4713 25.1589 11.4657 25.1146 11.4666C25.0908 11.4671 25.0582 11.4683 25.019 11.4698C24.8589 11.476 24.5869 11.4864 24.3387 11.4666C24.2286 11.4578 24.1007 11.4405 23.9786 11.424C23.804 11.4004 23.6412 11.3783 23.559 11.3851C23.4146 11.397 23.2491 11.3869 23.1028 11.378C22.9633 11.3695 22.8412 11.3621 22.7718 11.3758C22.6889 11.3922 22.6182 11.3855 22.5131 11.3756C22.4401 11.3688 22.3506 11.3604 22.229 11.357C22.0886 11.3531 21.9892 11.3417 21.9048 11.3319C21.786 11.3181 21.6965 11.3078 21.5633 11.3268C21.4152 11.3479 21.2605 11.3614 21.1386 11.3547C21.0831 11.3517 21.0197 11.3524 20.9536 11.3532C20.8661 11.3542 20.7742 11.3553 20.6902 11.3477C20.621 11.3414 20.5638 11.3255 20.5131 11.3113C20.4973 11.3069 20.4822 11.3027 20.4675 11.299C20.4124 11.2992 20.3573 11.2995 20.3021 11.3C20.2932 11.3025 20.2838 11.3054 20.274 11.3083C20.2249 11.3231 20.1645 11.3412 20.0897 11.3502C19.9713 11.3645 19.8674 11.3555 19.7578 11.346C19.6724 11.3387 19.5837 11.331 19.4819 11.3337C19.4125 11.3356 19.3334 11.3421 19.2551 11.3486C19.1388 11.3582 19.0239 11.3677 18.944 11.3617C18.9141 11.3594 18.8884 11.3494 18.863 11.3394C18.8629 11.3393 18.8627 11.3393 18.8626 11.3392C18.8609 11.3385 18.8592 11.3379 18.8574 11.3372C18.663 11.3448 18.4686 11.3533 18.2742 11.3622C18.2573 11.3647 18.2403 11.3673 18.2234 11.3698C18.141 11.382 18.0609 11.3939 18.0087 11.4108C17.9521 11.4291 17.8098 11.4397 17.6598 11.451C17.5616 11.4583 17.46 11.4659 17.3772 11.4761C17.3287 11.482 17.2827 11.4716 17.2354 11.461C17.1913 11.451 17.146 11.4408 17.0965 11.4433C17.0717 11.4446 17.0449 11.4489 17.0163 11.4535C16.9911 11.4575 16.9645 11.4618 16.9366 11.4644C16.9107 11.4668 16.8531 11.4612 16.7791 11.454C16.7334 11.4496 16.6815 11.4446 16.627 11.4405C16.483 11.4469 16.339 11.4531 16.1949 11.4588C16.1649 11.4679 16.1388 11.4797 16.1182 11.4948C16.1034 11.5056 16.0908 11.5186 16.0778 11.5318C16.0602 11.5499 16.042 11.5685 16.0168 11.5834C15.9972 11.595 15.974 11.5996 15.9585 11.5948C15.9512 11.5925 15.9457 11.5883 15.9406 11.5845C15.9348 11.5801 15.9297 11.5762 15.9234 11.5763C15.9188 11.5764 15.9141 11.5795 15.9083 11.5832C15.899 11.5892 15.8869 11.597 15.8685 11.5973C15.8001 11.5983 15.7223 11.5958 15.6461 11.5934C15.5614 11.5906 15.4786 11.588 15.4126 11.5903C15.3387 11.5929 15.2334 11.5814 15.1279 11.5699C15.0543 11.5618 14.9806 11.5539 14.9174 11.5506C14.8554 11.5474 14.7909 11.5537 14.7284 11.56C14.6534 11.5675 14.5813 11.5747 14.52 11.5646C14.5076 11.5625 14.4922 11.55 14.4729 11.5343C14.4592 11.5233 14.4434 11.5106 14.4255 11.4989C14.3475 11.4989 14.2694 11.4984 14.1914 11.4974C14.1886 11.4991 14.1858 11.5008 14.1829 11.5026C14.1829 11.5026 14.1829 11.5027 14.1828 11.5027C14.1187 11.5425 14.031 11.597 13.9078 11.5645C13.8765 11.5562 13.8568 11.541 13.839 11.5273C13.8215 11.5138 13.806 11.5017 13.7831 11.4992C13.7572 11.4963 13.7266 11.5046 13.6932 11.5136C13.6464 11.5262 13.594 11.5403 13.5415 11.5272C13.5379 11.5263 13.5341 11.5253 13.5301 11.5243C13.492 11.515 13.4357 11.5011 13.3796 11.4733C13.2132 11.4659 13.0469 11.4572 12.8805 11.4477C12.6032 11.4318 12.3259 11.4138 12.0486 11.3957C11.9137 11.3868 11.7843 11.3489 11.6889 11.2882C11.5935 11.2275 11.5399 11.1494 11.5399 11.0686C11.5399 10.9878 11.5935 10.9097 11.6889 10.849C11.7843 10.7883 11.9137 10.7504 12.0486 10.7415C12.2686 10.7272 12.4886 10.7128 12.7086 10.6996C12.7201 10.6979 12.7317 10.6963 12.7432 10.6948C12.829 10.6835 12.9086 10.6607 12.9882 10.638C13.0065 10.6327 13.0248 10.6275 13.0432 10.6224ZM30.9317 10.5531C30.9704 10.7644 30.9546 11.1719 30.9459 11.3961C30.9458 11.4002 30.9457 11.4043 30.9455 11.4084C30.9435 11.4616 30.9429 11.5119 30.9423 11.5709C30.941 11.7115 30.9391 11.9014 30.9144 12.2978C30.9153 12.4132 30.9158 12.5286 30.9158 12.6439C30.9158 13.8896 30.8836 15.1352 30.8451 16.3809C30.8453 16.3967 30.8455 16.4127 30.8457 16.4288C30.8497 16.7413 30.8546 17.1287 30.8405 17.3721C30.8225 17.6816 30.8058 17.8918 30.7915 18.0644C30.7604 19.0538 30.7327 20.0432 30.7213 21.0327C30.7177 21.3427 30.7157 21.6529 30.7157 21.963C30.7157 22.2485 30.7169 22.5342 30.7193 22.8197C30.7277 22.986 30.7377 23.1441 30.747 23.2907C30.76 23.4968 30.7716 23.6802 30.7754 23.8317C30.7844 24.1967 30.7701 24.6108 30.7594 24.9183C30.7577 24.9685 30.756 25.016 30.7546 25.0599C30.7599 25.3041 30.7655 25.5483 30.7713 25.7925C30.7681 25.8088 30.7648 25.8253 30.7613 25.842C30.7184 26.0504 30.7189 26.3066 30.7197 26.7099C30.7201 26.8856 30.7205 27.0891 30.7174 27.3287C30.7154 27.4832 30.6984 27.5625 30.6845 27.6273C30.6804 27.6464 30.6766 27.6643 30.6735 27.6823C30.6629 27.7444 30.6743 27.8098 30.6878 27.887C30.7053 27.9872 30.7263 28.1075 30.7074 28.2663C30.6468 28.7724 30.6879 28.9954 30.719 29.1641C30.7281 29.2136 30.7363 29.2585 30.7409 29.3044C30.7557 29.4533 30.741 29.6654 30.7208 29.8258C30.7049 29.9529 30.7207 30.2072 30.7409 30.4001C30.7485 30.4731 30.7487 30.5717 30.7489 30.6879C30.749 30.8081 30.7492 30.9472 30.7578 31.096C30.7794 31.4721 30.7899 31.6719 30.7982 31.8326C30.8006 31.8784 30.8028 31.921 30.8051 31.9637C30.8122 32.0983 30.8182 32.2655 30.8241 32.4347C30.8313 32.6372 30.8385 32.8427 30.8482 32.9991C30.8379 33.4044 30.8253 33.8098 30.8126 34.215C30.8061 34.4232 30.7692 34.6229 30.7083 34.7701C30.6473 34.9173 30.5679 35 30.4856 35C30.4032 35 30.3238 34.9173 30.2628 34.7701C30.2019 34.6229 30.165 34.4232 30.1584 34.215C30.1453 33.7957 30.1322 33.3762 30.1218 32.9568C30.1092 32.4459 30.1004 31.9349 30.1004 31.424C30.1004 31.0666 30.1024 30.7092 30.1059 30.3518C30.1063 30.315 30.1067 30.2782 30.1071 30.2414C30.0868 29.9412 30.0683 29.6415 30.0618 29.4304C30.0563 29.256 30.0672 29.1289 30.0764 29.0201C30.0828 28.9452 30.0884 28.8789 30.0875 28.8118C30.0871 28.7758 30.0858 28.7266 30.0843 28.6673C30.0782 28.4251 30.0677 28.0136 30.0875 27.6383C30.0963 27.4718 30.1136 27.2783 30.1301 27.0936C30.1538 26.8295 30.1758 26.5832 30.169 26.4589C30.1571 26.2405 30.1672 25.9901 30.1761 25.7689C30.1846 25.5579 30.192 25.3733 30.1783 25.2683C30.1619 25.1429 30.1686 25.0359 30.1785 24.8769C30.1853 24.7666 30.1937 24.6312 30.1971 24.4472C30.201 24.2349 30.2125 24.0846 30.2222 23.9569C30.236 23.7771 30.2463 23.6419 30.2273 23.4403C30.2062 23.2163 30.1927 22.9823 30.1994 22.798C30.2025 22.714 30.2017 22.618 30.2009 22.5181C30.1999 22.3858 30.1989 22.2467 30.2064 22.1196C30.2127 22.015 30.2287 21.9284 30.2428 21.8519C30.2472 21.828 30.2514 21.8051 30.2551 21.7829C30.2549 21.6995 30.2546 21.6161 30.2542 21.5327C30.2516 21.5192 30.2487 21.505 30.2458 21.4902C30.231 21.4159 30.2129 21.3245 30.2039 21.2113C30.1897 21.0323 30.1986 20.8751 30.2081 20.7093C30.2155 20.5803 30.2232 20.446 30.2204 20.292C30.2185 20.187 30.212 20.0675 30.2055 19.949C30.1959 19.773 30.1864 19.5993 30.1925 19.4785C30.1947 19.4333 30.2047 19.3944 30.2147 19.3559C30.2148 19.3557 30.2149 19.3555 30.2149 19.3554C30.2156 19.3528 30.2163 19.3501 30.2169 19.3475C30.2093 19.0535 30.2008 18.7594 30.192 18.4653C30.1894 18.4398 30.1868 18.4141 30.1843 18.3886C30.1721 18.2639 30.1602 18.1427 30.1433 18.0637C30.125 17.9781 30.1144 17.7628 30.1032 17.536C30.0958 17.3875 30.0882 17.2339 30.0781 17.1085C30.0721 17.0352 30.0825 16.9657 30.0931 16.8941C30.1031 16.8274 30.1133 16.7589 30.1108 16.684C30.1095 16.6464 30.1052 16.6059 30.1007 16.5627C30.0966 16.5246 30.0923 16.4843 30.0897 16.4422C30.0873 16.403 30.0929 16.3158 30.1001 16.204C30.1045 16.1348 30.1095 16.0563 30.1137 15.9739C30.1072 15.7561 30.101 15.5382 30.0953 15.3203C30.0862 15.2749 30.0744 15.2354 30.0593 15.2042C30.0485 15.1818 30.0355 15.1627 30.0223 15.1432C30.0043 15.1165 29.9856 15.0889 29.9708 15.0509C29.9592 15.0212 29.9545 14.9862 29.9594 14.9626C29.9616 14.9517 29.9658 14.9433 29.9697 14.9356C29.9741 14.9269 29.978 14.9191 29.9779 14.9095C29.9778 14.9027 29.9747 14.8955 29.9709 14.8867C29.9649 14.8726 29.9571 14.8544 29.9569 14.8266C29.9558 14.7231 29.9583 14.6054 29.9608 14.4902C29.9635 14.362 29.9661 14.2368 29.9638 14.137C29.9612 14.0252 29.9728 13.8659 29.9843 13.7063C29.9923 13.595 30.0003 13.4835 30.0035 13.3879C30.0068 13.2942 30.0004 13.1966 29.9941 13.1021C29.9867 12.9886 29.9795 12.8795 29.9896 12.7868C29.9916 12.7681 30.0041 12.7448 30.0198 12.7156C30.0309 12.6949 30.0436 12.671 30.0552 12.6439C30.0552 12.5259 30.0558 12.4078 30.0567 12.2898C30.055 12.2856 30.0533 12.2814 30.0515 12.2771C30.0515 12.277 30.0514 12.2769 30.0514 12.2769C30.0116 12.1799 29.9572 12.0472 29.9896 11.8609C29.9979 11.8135 30.0131 11.7837 30.0269 11.7568C30.0403 11.7304 30.0524 11.7068 30.0549 11.6723C30.0578 11.6331 30.0495 11.5868 30.0405 11.5363C30.0279 11.4655 30.0138 11.3863 30.0269 11.3069C30.0278 11.3014 30.0288 11.2956 30.0298 11.2895C30.0391 11.232 30.053 11.1467 30.0808 11.0619C30.0883 10.8103 30.097 10.5587 30.1065 10.307C30.1223 9.8876 30.1403 9.46808 30.1584 9.04869C30.1673 8.84465 30.2052 8.64896 30.2659 8.50468C30.3267 8.36039 30.4048 8.27931 30.4856 8.27931C30.5663 8.27932 30.6444 8.3604 30.7052 8.50468C30.7659 8.64896 30.8038 8.84464 30.8126 9.04869C30.827 9.38141 30.8413 9.71424 30.8545 10.047C30.8562 10.0644 30.8578 10.082 30.8593 10.0994C30.8707 10.2291 30.8934 10.3495 30.9162 10.4699C30.9214 10.4976 30.9266 10.5253 30.9317 10.5531ZM21.8686 18.3637C22.0837 18.3184 22.4998 18.3129 22.7273 18.3036C22.7315 18.3034 22.7357 18.3033 22.7399 18.3031C22.7941 18.3011 22.8451 18.2975 22.9043 18.2931C23.0473 18.2814 23.2392 18.2696 23.6356 18.2402C23.7517 18.2229 23.8628 18.2048 23.9758 18.1845C24.2791 18.1295 24.5819 18.0601 24.8309 17.9603C24.9537 17.9116 25.0625 17.8487 25.109 17.8045C25.1541 17.7476 25.1281 17.8157 25.1353 17.7866C25.1751 17.7868 24.9332 17.5696 24.6799 17.4791C24.4177 17.3702 24.1296 17.2919 23.8297 17.228C23.8144 17.2254 23.7988 17.2229 23.7829 17.2203C23.4759 17.1701 23.0874 17.1346 22.8434 17.1041C22.5309 17.0643 22.3191 17.0431 22.1437 17.0261C21.1394 16.9862 20.1122 17.0451 19.1551 17.3102C18.858 17.395 18.5688 17.5025 18.3106 17.6488C18.0749 17.7825 17.8671 17.9517 17.7532 18.1497C17.6929 18.2679 17.6723 18.3861 17.6775 18.4929C17.6816 18.5836 17.6999 18.6591 17.727 18.7415C17.751 18.8154 17.7735 18.8826 17.7936 18.9433C17.9054 19.2876 18.0505 19.6679 18.1893 19.9312C18.2116 19.9742 18.234 20.0155 18.2548 20.0522C18.3825 20.2511 18.528 20.4356 18.6909 20.601C18.6991 20.6145 18.7075 20.6281 18.716 20.6419C18.8242 20.8133 19.0062 20.9881 19.3392 21.1924C19.4849 21.2807 19.6608 21.3731 19.8775 21.4648C20.017 21.5233 20.0871 21.5642 20.1431 21.5978C20.1598 21.6077 20.1756 21.6168 20.1919 21.6253C20.2483 21.6544 20.3139 21.6623 20.3921 21.6699C20.4943 21.6799 20.6149 21.6889 20.7661 21.7397C21.2558 21.8982 21.4949 21.8698 21.6654 21.8561C21.7164 21.8514 21.7632 21.8469 21.8094 21.8457C21.9608 21.8423 22.1766 21.8677 22.3392 21.892C22.4315 21.906 22.5877 21.9043 22.7439 21.8933C22.8069 21.8889 22.869 21.8825 22.9253 21.8753C22.9988 21.8659 23.0972 21.8623 23.2143 21.8548C23.3348 21.8472 23.4742 21.8354 23.6223 21.8098C23.9951 21.7438 24.1894 21.6919 24.3455 21.6518C24.3902 21.64 24.4307 21.629 24.4723 21.6173C24.6026 21.5807 24.7631 21.5346 24.9244 21.4822C25.1174 21.4199 25.3105 21.3485 25.4538 21.2866C25.8373 21.1597 26.2155 21.0072 26.5744 20.8269C26.7598 20.7339 26.945 20.6635 27.0995 20.6322C27.2538 20.6013 27.3664 20.6122 27.4169 20.6776C27.4686 20.7412 27.4485 20.8602 27.3492 21.0011C27.2504 21.1418 27.0832 21.2879 26.8867 21.4018C26.4934 21.6299 26.0802 21.8245 25.6556 21.9857C25.1389 22.1817 24.6003 22.3286 24.051 22.4148C23.6671 22.4751 23.277 22.5078 22.8881 22.5111C22.848 22.5115 22.8078 22.5115 22.7675 22.5112C22.7596 22.5117 22.7518 22.5122 22.7439 22.5127C22.4311 22.5328 22.1178 22.5397 21.8956 22.5321C21.7075 22.5259 21.5697 22.5025 21.4544 22.4814C21.3732 22.4666 21.3024 22.4527 21.2306 22.4444C21.1916 22.4399 21.1375 22.4339 21.0734 22.426C20.8111 22.3949 20.3609 22.3211 19.9665 22.1681C19.7921 22.1017 19.5948 22.0067 19.4141 21.902C19.1546 21.7536 18.9341 21.5836 18.8168 21.5072C18.6085 21.3746 18.3998 21.1779 18.2382 20.9883C18.083 20.8081 17.9671 20.6363 17.8897 20.5479C17.7968 20.4411 17.7379 20.3356 17.661 20.1766C17.6081 20.0658 17.5467 19.9288 17.4698 19.7426C17.381 19.5255 17.3389 19.3673 17.3052 19.2337C17.2725 19.103 17.2506 19.0004 17.2158 18.8783C17.1968 18.8104 17.1793 18.7398 17.1646 18.661C17.1064 18.3819 17.1851 18.0549 17.3202 17.8613C17.3794 17.7711 17.4522 17.6771 17.5381 17.5888C17.648 17.4752 17.7794 17.3724 17.9064 17.2989C18.015 17.2359 18.1015 17.2066 18.1863 17.1782C18.2123 17.1697 18.2378 17.1616 18.2619 17.1539C18.3419 17.1143 18.4251 17.0767 18.5112 17.0409C18.5241 17.0328 18.5383 17.024 18.552 17.0154C18.62 16.9725 18.7064 16.9205 18.8236 16.8721C19.0014 16.7982 19.1746 16.7596 19.3472 16.7272C19.4853 16.7013 19.6267 16.6784 19.7887 16.6451C19.9009 16.6221 20.0233 16.5948 20.1484 16.5696C20.3358 16.5318 20.5157 16.5011 20.6464 16.4937C20.695 16.4909 20.7367 16.4969 20.7785 16.5031C20.7786 16.5031 20.7788 16.5032 20.779 16.5032C20.7818 16.5036 20.7847 16.504 20.7875 16.5045C21.099 16.4682 21.411 16.4429 21.7243 16.428C21.7513 16.4249 21.7787 16.4219 21.8058 16.4191C21.9384 16.405 22.0685 16.3938 22.1528 16.378C22.2433 16.3608 22.4761 16.3546 22.7195 16.3574C22.881 16.3591 23.0429 16.3641 23.1813 16.3672C23.2611 16.3689 23.3339 16.3871 23.4086 16.4065C23.4807 16.425 23.5535 16.4446 23.6337 16.4533C23.674 16.4577 23.7169 16.4597 23.7638 16.4623C23.8064 16.4648 23.8511 16.4677 23.8971 16.473C23.941 16.4781 24.0293 16.4989 24.1507 16.5311C24.2258 16.5511 24.3092 16.5746 24.3941 16.5997C24.6358 16.6532 24.8652 16.7153 25.1088 16.8159C25.1621 16.8296 25.2086 16.839 25.2483 16.8422C25.2796 16.8459 25.3079 16.8462 25.3369 16.847C25.3765 16.8482 25.4176 16.8502 25.4685 16.8645C25.5075 16.875 25.5518 16.8993 25.5788 16.925C25.591 16.9366 25.5987 16.9476 25.6056 16.9577C25.6134 16.9692 25.6203 16.9795 25.6316 16.9884C25.6397 16.9948 25.65 16.9992 25.6626 17.0049C25.6828 17.0141 25.7092 17.0264 25.7405 17.0559C25.8539 17.1641 25.9789 17.3198 26.0381 17.545C26.0455 17.5738 26.0517 17.603 26.0565 17.6326C26.1127 17.9064 25.9863 18.2235 25.8643 18.3665C25.7313 18.5428 25.5185 18.6711 25.3279 18.7509C25.1906 18.8093 25.0618 18.8487 24.9556 18.881C24.8461 18.9144 24.7444 18.9502 24.6393 18.9838C24.5181 19.0227 24.3982 19.0563 24.2954 19.0666C24.2745 19.0687 24.2455 19.0616 24.2113 19.0522C24.1872 19.0454 24.1595 19.0377 24.1283 19.0314C23.9999 19.0545 23.8755 19.0736 23.7467 19.0907C23.7425 19.093 23.7382 19.0953 23.7339 19.0977C23.7339 19.0978 23.7338 19.0978 23.7337 19.0979C23.637 19.1515 23.4992 19.2244 23.2955 19.2131C23.2429 19.2102 23.2108 19.1981 23.1807 19.1872C23.1513 19.1765 23.1251 19.1669 23.0879 19.1678C23.0459 19.1687 22.9965 19.1814 22.9441 19.1947C22.8702 19.2136 22.7859 19.2342 22.7007 19.227C22.6949 19.2265 22.6886 19.2259 22.6821 19.2254C22.6205 19.2202 22.5284 19.2123 22.437 19.1896C22.1698 19.1975 21.9028 19.1991 21.6367 19.1961C21.1919 19.1911 20.7519 19.1735 20.3081 19.1467C20.0956 19.1337 19.8865 19.0891 19.7393 19.0225C19.5882 18.9557 19.5097 18.8733 19.5138 18.7927C19.5176 18.712 19.6033 18.6383 19.7566 18.5836C19.9062 18.5288 20.1127 18.4975 20.321 18.4926C20.6648 18.4851 21.0084 18.4718 21.3507 18.4536C21.3687 18.4516 21.3869 18.4497 21.4048 18.4479C21.5375 18.4343 21.6614 18.4086 21.7838 18.3821C21.812 18.376 21.8403 18.3698 21.8686 18.3637ZM18.8078 23.2522C18.849 23.2135 18.9285 23.2293 18.9722 23.238C18.973 23.2381 18.9738 23.2383 18.9746 23.2384C18.985 23.2405 18.9948 23.241 19.0063 23.2416C19.0337 23.243 19.0708 23.2449 19.1481 23.2695C19.1706 23.2686 19.1931 23.2681 19.2156 23.2681C19.4586 23.2681 19.7015 23.3003 19.9445 23.3389C19.9476 23.3387 19.9507 23.3385 19.9539 23.3383C20.0148 23.3343 20.0904 23.3293 20.1379 23.3434C20.1982 23.3614 20.2392 23.3781 20.2729 23.3925C20.4659 23.4235 20.6589 23.4512 20.8519 23.4626C20.9123 23.4662 20.9728 23.4682 21.0333 23.4682C21.089 23.4682 21.1447 23.467 21.2004 23.4647C21.2329 23.4562 21.2637 23.4462 21.2923 23.437C21.3325 23.4239 21.3683 23.4123 21.3978 23.4086C21.469 23.3995 21.5498 23.4138 21.6098 23.4245C21.6196 23.4262 21.6288 23.4279 21.6374 23.4293C21.685 23.424 21.7327 23.4184 21.7803 23.4126C21.7835 23.4158 21.7867 23.4192 21.7899 23.4226C21.8306 23.4655 21.8806 23.465 21.9592 23.4642C21.9935 23.4638 22.0332 23.4635 22.0799 23.4666C22.1101 23.4686 22.1255 23.4856 22.1382 23.4995C22.1419 23.5035 22.1454 23.5074 22.1489 23.5104C22.161 23.521 22.1738 23.5096 22.1888 23.4961C22.2084 23.4786 22.2318 23.4576 22.2628 23.4766C22.3615 23.5371 22.405 23.496 22.4379 23.465C22.4476 23.4559 22.4563 23.4476 22.4653 23.4431C22.4943 23.4282 22.5357 23.4429 22.567 23.4631C22.5918 23.4791 22.6414 23.4632 22.679 23.4431C22.6933 23.4354 22.7125 23.4352 22.7352 23.4351C22.7586 23.4349 22.7857 23.4347 22.8148 23.4262C22.8881 23.4045 22.9271 23.3941 22.9584 23.3857C22.9674 23.3833 22.9757 23.3811 22.984 23.3788C23.0103 23.3717 23.0429 23.3658 23.0759 23.3598C23.1154 23.3527 23.1555 23.3454 23.186 23.3358C23.265 23.346 23.3441 23.3586 23.4231 23.3713C23.4637 23.3778 23.5027 23.4148 23.5314 23.4757C23.5601 23.5366 23.5763 23.616 23.5763 23.6984C23.5763 23.7807 23.5601 23.8602 23.5314 23.9211C23.5027 23.982 23.4637 24.019 23.4231 24.0255C23.3413 24.0386 23.2595 24.0517 23.1777 24.0621C23.0781 24.0748 22.9784 24.0835 22.8788 24.0835C22.809 24.0835 22.7393 24.0815 22.6696 24.078C22.6624 24.0777 22.6553 24.0773 22.6481 24.0769C22.5895 24.0971 22.5311 24.1156 22.4899 24.1221C22.4559 24.1276 22.4311 24.1168 22.4098 24.1075C22.3952 24.1011 22.3823 24.0955 22.3692 24.0964C22.3622 24.0969 22.3526 24.0981 22.341 24.0996C22.2938 24.1058 22.2135 24.1162 22.1403 24.0964C22.1078 24.0876 22.0701 24.0703 22.0341 24.0538C21.9826 24.0302 21.9345 24.0081 21.9103 24.0149C21.8677 24.0268 21.8188 24.0167 21.7757 24.0078C21.7345 23.9993 21.6985 23.9919 21.678 24.0056C21.6536 24.022 21.6327 24.0153 21.6017 24.0054C21.5802 23.9986 21.5538 23.9902 21.5179 23.9868C21.4765 23.9829 21.4472 23.9714 21.4222 23.9617C21.3872 23.9479 21.3608 23.9376 21.3215 23.9566C21.2778 23.9777 21.2322 23.9912 21.1962 23.9845C21.1798 23.9815 21.1611 23.9822 21.1416 23.983C21.1158 23.984 21.0887 23.9851 21.0639 23.9775C21.0435 23.9712 21.0266 23.9553 21.0117 23.9411C21.007 23.9367 21.0025 23.9325 20.9982 23.9288C20.9819 23.929 20.9657 23.9293 20.9494 23.9298C20.9468 23.9323 20.944 23.9352 20.9411 23.9381C20.9266 23.9529 20.9088 23.971 20.8867 23.98C20.8518 23.9943 20.8211 23.9853 20.7888 23.9758C20.7636 23.9685 20.7374 23.9608 20.7074 23.9635C20.6869 23.9654 20.6636 23.9719 20.6405 23.9784C20.6062 23.988 20.5723 23.9975 20.5487 23.9915C20.5399 23.9892 20.5323 23.9792 20.5248 23.9692C20.5248 23.9691 20.5247 23.9691 20.5247 23.969C20.5242 23.9683 20.5237 23.9677 20.5232 23.967C20.4658 23.9746 20.4084 23.9831 20.3511 23.992C20.3461 23.9945 20.3411 23.9971 20.3361 23.9996C20.3118 24.0118 20.2882 24.0237 20.2728 24.0406C20.2561 24.0589 20.2141 24.0695 20.1698 24.0808C20.1408 24.0881 20.1109 24.0957 20.0864 24.1059C20.0721 24.1118 20.0586 24.1014 20.0446 24.0908C20.0316 24.0808 20.0182 24.0706 20.0036 24.0731C19.9963 24.0744 19.9884 24.0787 19.98 24.0833C19.9725 24.0873 19.9647 24.0916 19.9565 24.0942C19.9488 24.0966 19.9318 24.091 19.91 24.0838C19.8965 24.0794 19.8812 24.0744 19.8651 24.0703C19.8226 24.0767 19.7801 24.0829 19.7376 24.0886C19.7288 24.0977 19.7211 24.1095 19.715 24.1246C19.7106 24.1354 19.7069 24.1484 19.7031 24.1616C19.6979 24.1797 19.6925 24.1983 19.6851 24.2132C19.6793 24.2248 19.6725 24.2294 19.6679 24.2246C19.6657 24.2223 19.6641 24.2181 19.6626 24.2143C19.6609 24.2099 19.6594 24.206 19.6575 24.2061C19.6562 24.2062 19.6548 24.2093 19.6531 24.213C19.6503 24.219 19.6468 24.2268 19.6413 24.2271C19.6211 24.2281 19.5982 24.2256 19.5757 24.2232C19.5507 24.2204 19.5263 24.2178 19.5068 24.2201C19.485 24.2227 19.454 24.2112 19.4228 24.1997C19.4011 24.1916 19.3794 24.1837 19.3607 24.1804C19.3424 24.1772 19.3234 24.1835 19.305 24.1898C19.2828 24.1973 19.2616 24.2045 19.2435 24.1944C19.2398 24.1923 19.2353 24.1798 19.2296 24.1641C19.2255 24.153 19.2209 24.1404 19.2156 24.1287C19.1926 24.1287 19.1695 24.1282 19.1465 24.1272C19.1457 24.1289 19.1449 24.1306 19.144 24.1324C19.144 24.1324 19.144 24.1325 19.144 24.1325C19.1251 24.1723 19.0992 24.2268 19.0629 24.1943C19.0536 24.186 19.0478 24.1708 19.0426 24.1571C19.0374 24.1436 19.0328 24.1315 19.0261 24.129C19.0184 24.1261 19.0094 24.1344 18.9996 24.1434C18.9857 24.156 18.9703 24.1701 18.9548 24.157C18.9537 24.1561 18.9526 24.1551 18.9514 24.1541C18.9402 24.1448 18.9236 24.1309 18.907 24.1031C18.8579 24.0957 18.8089 24.087 18.7598 24.0775C18.678 24.0616 18.5961 24.0436 18.5143 24.0255C18.4745 24.0166 18.4364 23.9787 18.4082 23.918C18.3801 23.8573 18.3643 23.7792 18.3643 23.6984C18.3643 23.6176 18.3801 23.5395 18.4082 23.4788C18.4364 23.4181 18.4745 23.3802 18.5143 23.3713C18.5792 23.357 18.6442 23.3426 18.7091 23.3294C18.7125 23.3277 18.7159 23.3261 18.7193 23.3246C18.7446 23.3133 18.7681 23.2905 18.7916 23.2678C18.7969 23.2625 18.8024 23.2573 18.8078 23.2522ZM23.9045 23.2522C23.935 23.2135 23.9938 23.2293 24.0261 23.238C24.0267 23.2381 24.0273 23.2383 24.0279 23.2384C24.0356 23.2405 24.0429 23.241 24.0514 23.2416C24.0717 23.243 24.0991 23.2449 24.1563 23.2695C24.1729 23.2686 24.1896 23.2681 24.2062 23.2681C24.386 23.2681 24.5658 23.3003 24.7456 23.3389C24.7479 23.3387 24.7502 23.3385 24.7526 23.3383C24.7977 23.3343 24.8536 23.3293 24.8887 23.3434C24.9334 23.3614 24.9637 23.3781 24.9886 23.3925C25.1315 23.4235 25.2743 23.4512 25.4171 23.4626C25.4618 23.4662 25.5066 23.4682 25.5514 23.4682C25.5926 23.4682 25.6338 23.467 25.675 23.4647C25.699 23.4562 25.7219 23.4462 25.743 23.437C25.7728 23.4239 25.7992 23.4123 25.8211 23.4086C25.8738 23.3995 25.9336 23.4138 25.9779 23.4245C25.9852 23.4262 25.992 23.4279 25.9984 23.4293C26.0336 23.424 26.0689 23.4184 26.1041 23.4126C26.1065 23.4158 26.1089 23.4192 26.1113 23.4226C26.1413 23.4655 26.1783 23.465 26.2365 23.4642C26.2619 23.4638 26.2913 23.4635 26.3259 23.4666C26.3482 23.4686 26.3596 23.4856 26.369 23.4995C26.3717 23.5035 26.3743 23.5074 26.3769 23.5104C26.3859 23.521 26.3953 23.5096 26.4064 23.4961C26.4209 23.4786 26.4383 23.4576 26.4612 23.4766C26.5342 23.5371 26.5664 23.496 26.5908 23.465C26.5979 23.4559 26.6044 23.4476 26.611 23.4431C26.6325 23.4282 26.6631 23.4429 26.6863 23.4631C26.7046 23.4791 26.7413 23.4632 26.7692 23.4431C26.7797 23.4354 26.794 23.4352 26.8107 23.4351C26.8281 23.4349 26.8482 23.4347 26.8696 23.4262C26.9239 23.4045 26.9528 23.3941 26.9759 23.3857C26.9826 23.3833 26.9887 23.3811 26.9949 23.3788C27.0143 23.3717 27.0384 23.3658 27.0629 23.3598C27.0921 23.3527 27.1218 23.3454 27.1443 23.3358C27.2028 23.346 27.2613 23.3586 27.3198 23.3713C27.3499 23.3778 27.3787 23.4148 27.4 23.4757C27.4212 23.5366 27.4331 23.616 27.4331 23.6984C27.4331 23.7807 27.4212 23.8602 27.4 23.9211C27.3787 23.982 27.3499 24.019 27.3198 24.0255C27.2593 24.0386 27.1988 24.0517 27.1382 24.0621C27.0645 24.0748 26.9907 24.0835 26.917 24.0835C26.8654 24.0835 26.8138 24.0815 26.7622 24.078C26.7569 24.0777 26.7516 24.0773 26.7463 24.0769C26.7029 24.0971 26.6597 24.1156 26.6292 24.1221C26.604 24.1276 26.5857 24.1168 26.57 24.1075C26.5592 24.1011 26.5496 24.0955 26.5399 24.0964C26.5347 24.0969 26.5276 24.0981 26.5191 24.0996C26.4841 24.1058 26.4247 24.1162 26.3705 24.0964C26.3465 24.0876 26.3186 24.0703 26.2919 24.0538C26.2538 24.0302 26.2182 24.0081 26.2003 24.0149C26.1688 24.0268 26.1326 24.0167 26.1007 24.0078C26.0703 23.9993 26.0436 23.9919 26.0285 24.0056C26.0104 24.022 25.9949 24.0153 25.972 24.0054C25.956 23.9986 25.9365 23.9902 25.9099 23.9868C25.8793 23.9829 25.8576 23.9714 25.8392 23.9617C25.8132 23.9479 25.7937 23.9376 25.7646 23.9566C25.7323 23.9777 25.6985 23.9912 25.6719 23.9845C25.6598 23.9815 25.6459 23.9822 25.6315 23.983C25.6124 23.984 25.5923 23.9851 25.574 23.9775C25.5589 23.9712 25.5464 23.9553 25.5353 23.9411C25.5319 23.9367 25.5286 23.9325 25.5254 23.9288C25.5133 23.929 25.5013 23.9293 25.4893 23.9298C25.4873 23.9323 25.4853 23.9352 25.4831 23.9381C25.4724 23.9529 25.4592 23.971 25.4429 23.98C25.417 23.9943 25.3943 23.9853 25.3704 23.9758C25.3518 23.9685 25.3324 23.9608 25.3102 23.9635C25.295 23.9654 25.2778 23.9719 25.2607 23.9784C25.2353 23.988 25.2102 23.9975 25.1928 23.9915C25.1862 23.9892 25.1806 23.9792 25.1751 23.9692C25.175 23.9691 25.175 23.9691 25.175 23.969C25.1746 23.9683 25.1742 23.9677 25.1738 23.967C25.1314 23.9746 25.089 23.9831 25.0465 23.992C25.0428 23.9945 25.0391 23.9971 25.0354 23.9996C25.0174 24.0118 24.9999 24.0237 24.9885 24.0406C24.9762 24.0589 24.9451 24.0695 24.9124 24.0808C24.8909 24.0881 24.8688 24.0957 24.8507 24.1059C24.8401 24.1118 24.8301 24.1014 24.8197 24.0908C24.8101 24.0808 24.8002 24.0706 24.7894 24.0731C24.784 24.0744 24.7781 24.0787 24.7719 24.0833C24.7664 24.0873 24.7606 24.0916 24.7545 24.0942C24.7488 24.0966 24.7362 24.091 24.7201 24.0838C24.7101 24.0794 24.6988 24.0744 24.6869 24.0703C24.6555 24.0767 24.624 24.0829 24.5926 24.0886C24.586 24.0977 24.5803 24.1095 24.5758 24.1246C24.5726 24.1354 24.5698 24.1484 24.567 24.1616C24.5631 24.1797 24.5592 24.1983 24.5537 24.2132C24.5494 24.2248 24.5443 24.2294 24.5409 24.2246C24.5394 24.2223 24.5381 24.2181 24.537 24.2143C24.5358 24.2099 24.5346 24.206 24.5333 24.2061C24.5323 24.2062 24.5312 24.2093 24.53 24.213C24.5279 24.219 24.5253 24.2268 24.5213 24.2271C24.5064 24.2281 24.4894 24.2256 24.4727 24.2232C24.4542 24.2204 24.4362 24.2178 24.4218 24.2201C24.4056 24.2227 24.3826 24.2112 24.3596 24.1997C24.3435 24.1916 24.3274 24.1837 24.3136 24.1804C24.3001 24.1772 24.286 24.1835 24.2724 24.1898C24.256 24.1973 24.2403 24.2045 24.2269 24.1944C24.2242 24.1923 24.2208 24.1798 24.2166 24.1641C24.2136 24.153 24.2102 24.1404 24.2062 24.1287C24.1892 24.1287 24.1722 24.1282 24.1551 24.1272C24.1545 24.1289 24.1539 24.1306 24.1533 24.1324C24.1533 24.1324 24.1533 24.1325 24.1533 24.1325C24.1393 24.1723 24.1201 24.2268 24.0932 24.1943C24.0864 24.186 24.0821 24.1708 24.0782 24.1571C24.0744 24.1436 24.071 24.1315 24.066 24.129C24.0603 24.1261 24.0537 24.1344 24.0464 24.1434C24.0361 24.156 24.0247 24.1701 24.0133 24.157C24.0125 24.1561 24.0116 24.1551 24.0108 24.1541C24.0024 24.1448 23.9901 24.1309 23.9779 24.1031C23.9416 24.0957 23.9053 24.087 23.8689 24.0775C23.8084 24.0616 23.7478 24.0436 23.6873 24.0255C23.6579 24.0166 23.6296 23.9787 23.6088 23.918C23.588 23.8573 23.5763 23.7792 23.5763 23.6984C23.5763 23.6176 23.588 23.5395 23.6088 23.4788C23.6296 23.4181 23.6579 23.3802 23.6873 23.3713C23.7353 23.357 23.7834 23.3426 23.8314 23.3294C23.8339 23.3277 23.8365 23.3261 23.839 23.3246C23.8577 23.3133 23.8751 23.2905 23.8925 23.2678C23.8964 23.2625 23.9004 23.2573 23.9045 23.2522ZM24.0514 24.6688C24.0901 24.7563 24.0743 24.925 24.0656 25.0178C24.0654 25.0195 24.0653 25.0212 24.0652 25.0229C24.0631 25.045 24.0626 25.0658 24.062 25.0902C24.0606 25.1484 24.0587 25.2271 24.034 25.3912C24.0349 25.439 24.0354 25.4868 24.0354 25.5345C24.0354 26.0503 24.0032 26.5661 23.9647 27.0819C23.9649 27.0884 23.9651 27.095 23.9653 27.1017C23.9693 27.2311 23.9742 27.3915 23.9601 27.4923C23.9422 27.6204 23.9255 27.7075 23.9111 27.779C23.8801 28.1886 23.8524 28.5983 23.8409 29.008C23.8373 29.1364 23.8354 29.2648 23.8354 29.3932C23.8354 29.5114 23.8366 29.6297 23.8389 29.7479C23.8473 29.8168 23.8573 29.8823 23.8666 29.943C23.8796 30.0283 23.8912 30.1042 23.895 30.167C23.9041 30.3181 23.8897 30.4896 23.8791 30.6169C23.8773 30.6377 23.8757 30.6573 23.8742 30.6755C23.8795 30.7766 23.8852 30.8778 23.891 30.9789C23.8877 30.9856 23.8844 30.9924 23.881 30.9993C23.838 31.0856 23.8386 31.1917 23.8394 31.3587C23.8397 31.4315 23.8401 31.5157 23.837 31.615C23.835 31.6789 23.818 31.7118 23.8041 31.7386C23.8 31.7465 23.7962 31.7539 23.7931 31.7614C23.7826 31.7871 23.794 31.8141 23.8075 31.8461C23.825 31.8876 23.846 31.9374 23.827 32.0032C23.7665 32.2127 23.8075 32.3051 23.8386 32.3749C23.8477 32.3954 23.8559 32.414 23.8605 32.433C23.8753 32.4947 23.8606 32.5825 23.8405 32.6489C23.8245 32.7015 23.8403 32.8068 23.8605 32.8867C23.8681 32.9169 23.8683 32.9578 23.8685 33.0059C23.8687 33.0556 23.8689 33.1132 23.8774 33.1749C23.899 33.3306 23.9095 33.4133 23.9179 33.4798C23.9203 33.4988 23.9224 33.5165 23.9247 33.5341C23.9319 33.5899 23.9378 33.6591 23.9438 33.7291C23.9509 33.813 23.9581 33.8981 23.9678 33.9628C23.9576 34.1307 23.9449 34.2985 23.9323 34.4663C23.9257 34.5525 23.8888 34.6352 23.8279 34.6962C23.767 34.7571 23.6875 34.7913 23.6052 34.7913C23.5229 34.7913 23.4434 34.7571 23.3825 34.6962C23.3216 34.6352 23.2846 34.5525 23.278 34.4663C23.265 34.2927 23.2519 34.119 23.2415 33.9453C23.2288 33.7338 23.2201 33.5222 23.2201 33.3107C23.2201 33.1627 23.222 33.0147 23.2255 32.8667C23.2259 32.8515 23.2263 32.8362 23.2267 32.821C23.2064 32.6967 23.188 32.5726 23.1814 32.4852C23.176 32.413 23.1868 32.3604 23.1961 32.3153C23.2024 32.2843 23.2081 32.2568 23.2072 32.2291C23.2067 32.2142 23.2054 32.1938 23.2039 32.1692C23.1978 32.0689 23.1874 31.8986 23.2072 31.7431C23.216 31.6742 23.2333 31.5941 23.2498 31.5176C23.2734 31.4082 23.2954 31.3063 23.2887 31.2548C23.2768 31.1644 23.2868 31.0607 23.2957 30.9691C23.3042 30.8817 23.3117 30.8053 23.2979 30.7618C23.2815 30.7099 23.2882 30.6656 23.2981 30.5997C23.305 30.5541 23.3134 30.498 23.3167 30.4218C23.3206 30.3339 23.3321 30.2717 23.3419 30.2188C23.3556 30.1444 23.366 30.0884 23.3469 30.0049C23.3258 29.9122 23.3124 29.8153 23.3191 29.739C23.3221 29.7042 23.3214 29.6644 23.3206 29.6231C23.3196 29.5683 23.3185 29.5107 23.3261 29.4581C23.3323 29.4147 23.3483 29.3789 23.3624 29.3472C23.3669 29.3373 23.3711 29.3278 23.3748 29.3186C23.3746 29.2841 23.3743 29.2496 23.3738 29.2151C23.3712 29.2095 23.3684 29.2036 23.3654 29.1975C23.3507 29.1667 23.3326 29.1288 23.3236 29.082C23.3093 29.0078 23.3182 28.9428 23.3277 28.8741C23.3351 28.8207 23.3428 28.7651 23.34 28.7013C23.3382 28.6579 23.3316 28.6084 23.3252 28.5593C23.3155 28.4864 23.3061 28.4145 23.3121 28.3645C23.3143 28.3457 23.3244 28.3296 23.3344 28.3137C23.3344 28.3136 23.3345 28.3136 23.3346 28.3135C23.3352 28.3124 23.3359 28.3113 23.3366 28.3102C23.3289 28.1885 23.3205 28.0667 23.3116 27.9449C23.309 27.9344 23.3065 27.9237 23.304 27.9132C23.2917 27.8615 23.2798 27.8114 23.263 27.7787C23.2447 27.7432 23.234 27.6541 23.2228 27.5602C23.2155 27.4986 23.2079 27.4351 23.1977 27.3831C23.1918 27.3528 23.2021 27.324 23.2128 27.2944C23.2227 27.2667 23.233 27.2384 23.2304 27.2074C23.2292 27.1918 23.2249 27.175 23.2203 27.1571C23.2163 27.1414 23.212 27.1247 23.2094 27.1072C23.2069 27.091 23.2126 27.0549 23.2197 27.0086C23.2242 26.98 23.2292 26.9475 23.2333 26.9133C23.2269 26.8231 23.2207 26.7329 23.2149 26.6427C23.2059 26.6239 23.1941 26.6076 23.179 26.5947C23.1681 26.5854 23.1552 26.5775 23.1419 26.5694C23.1239 26.5583 23.1053 26.5469 23.0904 26.5312C23.0788 26.5189 23.0742 26.5044 23.079 26.4946C23.0812 26.4901 23.0855 26.4866 23.0893 26.4834C23.0937 26.4798 23.0976 26.4766 23.0975 26.4726C23.0974 26.4698 23.0943 26.4668 23.0905 26.4632C23.0845 26.4574 23.0768 26.4498 23.0765 26.4383C23.0755 26.3954 23.078 26.3467 23.0804 26.299C23.0831 26.2459 23.0858 26.1941 23.0835 26.1528C23.0809 26.1065 23.0924 26.0405 23.1039 25.9744C23.1119 25.9283 23.1199 25.8822 23.1232 25.8426C23.1264 25.8038 23.12 25.7634 23.1138 25.7242C23.1063 25.6773 23.0991 25.6321 23.1092 25.5937C23.1113 25.5859 23.1238 25.5763 23.1394 25.5642C23.1505 25.5556 23.1632 25.5458 23.1749 25.5345C23.1749 25.4857 23.1754 25.4368 23.1764 25.3879C23.1747 25.3862 23.1729 25.3844 23.1712 25.3826C23.1711 25.3826 23.1711 25.3826 23.171 25.3825C23.1312 25.3424 23.0768 25.2875 23.1093 25.2103C23.1175 25.1907 23.1328 25.1783 23.1465 25.1672C23.16 25.1563 23.172 25.1465 23.1746 25.1322C23.1775 25.116 23.1692 25.0968 23.1602 25.0759C23.1475 25.0466 23.1334 25.0138 23.1466 24.9809C23.1475 24.9787 23.1484 24.9762 23.1494 24.9737C23.1588 24.9499 23.1726 24.9146 23.2005 24.8795C23.2079 24.7753 23.2166 24.6711 23.2261 24.5669C23.2419 24.3932 23.26 24.2195 23.278 24.0459C23.2869 23.9614 23.3248 23.8804 23.3855 23.8206C23.4463 23.7609 23.5244 23.7273 23.6052 23.7273C23.686 23.7273 23.764 23.7609 23.8248 23.8206C23.8855 23.8804 23.9234 23.9614 23.9323 24.0459C23.9466 24.1836 23.9609 24.3215 23.9742 24.4592C23.9758 24.4665 23.9775 24.4737 23.979 24.4809C23.9903 24.5346 24.013 24.5845 24.0358 24.6344C24.041 24.6458 24.0463 24.6573 24.0514 24.6688ZM9.45918 19.2987C9.4979 19.3721 9.48209 19.5138 9.4734 19.5917C9.47326 19.5932 9.47312 19.5946 9.47298 19.596C9.47092 19.6145 9.47039 19.632 9.4698 19.6525C9.46841 19.7014 9.46653 19.7674 9.44185 19.9052C9.44276 19.9453 9.44325 19.9855 9.44325 20.0256C9.44325 20.4586 9.41106 20.8917 9.37251 21.3247C9.37271 21.3302 9.37292 21.3358 9.37312 21.3414C9.37712 21.45 9.38206 21.5847 9.36793 21.6693C9.34997 21.7769 9.33331 21.85 9.31892 21.91C9.2879 22.254 9.26019 22.598 9.24873 22.942C9.24514 23.0498 9.24318 23.1576 9.24318 23.2654C9.24318 23.3647 9.2444 23.464 9.24672 23.5632C9.25514 23.6211 9.26515 23.676 9.27443 23.727C9.28746 23.7986 9.29903 23.8624 9.30281 23.9151C9.31191 24.042 9.29755 24.1859 9.28688 24.2928C9.28513 24.3103 9.28348 24.3268 9.28206 24.342C9.28734 24.4269 9.293 24.5119 9.29878 24.5968C9.29556 24.6024 9.29221 24.6081 9.28877 24.6139C9.24586 24.6864 9.24641 24.7755 9.2472 24.9157C9.24755 24.9767 9.24793 25.0475 9.24482 25.1308C9.24282 25.1845 9.22581 25.2121 9.21193 25.2346C9.20784 25.2413 9.20402 25.2475 9.20094 25.2538C9.19037 25.2753 9.20179 25.2981 9.21528 25.3249C9.23278 25.3598 9.2538 25.4016 9.23481 25.4568C9.1743 25.6327 9.21536 25.7103 9.24641 25.7689C9.25552 25.7861 9.26375 25.8017 9.26832 25.8177C9.28314 25.8694 9.26846 25.9432 9.2483 25.9989C9.23232 26.0431 9.24816 26.1316 9.26832 26.1986C9.27594 26.224 9.27614 26.2583 9.27632 26.2987C9.27651 26.3405 9.27668 26.3888 9.28523 26.4405C9.30684 26.5713 9.31731 26.6408 9.3257 26.6966C9.32809 26.7125 9.33026 26.7274 9.33253 26.7422C9.33971 26.789 9.34561 26.8471 9.35158 26.9059C9.35871 26.9763 9.36596 27.0478 9.37562 27.1022C9.36539 27.2431 9.35273 27.384 9.3401 27.5249C9.33354 27.5973 9.29661 27.6667 9.23573 27.7179C9.1748 27.769 9.09535 27.7978 9.01301 27.7978C8.93067 27.7978 8.85122 27.769 8.79029 27.7179C8.7294 27.6667 8.69241 27.5973 8.68585 27.5249C8.67278 27.3791 8.65971 27.2333 8.64929 27.0875C8.63661 26.9098 8.62787 26.7322 8.62787 26.5546C8.62787 26.4303 8.62983 26.3061 8.63336 26.1818C8.63373 26.169 8.63413 26.1562 8.63452 26.1434C8.61425 26.0391 8.59581 25.9349 8.58923 25.8615C8.58381 25.8009 8.59463 25.7567 8.60388 25.7188C8.61025 25.6928 8.61589 25.6698 8.61499 25.6464C8.61451 25.6339 8.61326 25.6168 8.61176 25.5962C8.60562 25.512 8.59521 25.3689 8.61499 25.2385C8.62377 25.1806 8.64107 25.1133 8.65759 25.0491C8.68122 24.9573 8.70324 24.8716 8.69647 24.8284C8.68459 24.7525 8.69465 24.6655 8.70355 24.5885C8.71205 24.5152 8.71947 24.451 8.70575 24.4145C8.68936 24.3709 8.69604 24.3337 8.70593 24.2784C8.7128 24.2401 8.72118 24.193 8.72455 24.1291C8.72844 24.0552 8.73993 24.003 8.7497 23.9586C8.76344 23.8961 8.77378 23.8491 8.75476 23.779C8.73364 23.7011 8.7202 23.6198 8.72687 23.5557C8.72991 23.5265 8.72917 23.4931 8.7284 23.4584C8.72737 23.4124 8.72631 23.364 8.73389 23.3199C8.74014 23.2835 8.75612 23.2534 8.77027 23.2268C8.77468 23.2185 8.77889 23.2105 8.7826 23.2028C8.78239 23.1738 8.78209 23.1448 8.78162 23.1158C8.77905 23.1111 8.7762 23.1062 8.77326 23.101C8.7585 23.0752 8.74041 23.0434 8.73139 23.0041C8.71712 22.9418 8.72605 22.8872 8.73554 22.8295C8.74292 22.7847 8.75063 22.738 8.74787 22.6845C8.74598 22.648 8.73945 22.6064 8.73297 22.5652C8.72336 22.504 8.7139 22.4436 8.71991 22.4016C8.72217 22.3859 8.7322 22.3724 8.74219 22.359C8.74225 22.359 8.74231 22.3589 8.74237 22.3588C8.74305 22.3579 8.74371 22.357 8.74439 22.3561C8.73674 22.2539 8.72831 22.1516 8.71942 22.0494C8.71684 22.0405 8.7143 22.0316 8.71179 22.0227C8.69955 21.9794 8.68766 21.9372 8.67078 21.9098C8.65248 21.88 8.64184 21.8052 8.63062 21.7263C8.62327 21.6747 8.61568 21.6213 8.60553 21.5777C8.5996 21.5522 8.60994 21.528 8.62061 21.5032C8.63056 21.48 8.64077 21.4561 8.63824 21.4301C8.63698 21.4171 8.63269 21.403 8.62811 21.3879C8.62408 21.3747 8.61981 21.3607 8.61719 21.346C8.61476 21.3324 8.6204 21.3021 8.62756 21.2632C8.63199 21.2392 8.637 21.2119 8.64111 21.1832C8.63467 21.1075 8.62849 21.0318 8.62274 20.956C8.61367 20.9402 8.6019 20.9265 8.58679 20.9157C8.57595 20.9079 8.56299 20.9012 8.54974 20.8944C8.53171 20.8852 8.51308 20.8756 8.49823 20.8624C8.48662 20.852 8.48199 20.8399 8.48681 20.8317C8.48906 20.8279 8.4933 20.8249 8.49713 20.8223C8.50152 20.8192 8.50542 20.8165 8.50531 20.8132C8.50522 20.8108 8.50211 20.8083 8.49835 20.8053C8.49234 20.8004 8.48459 20.794 8.48431 20.7844C8.48329 20.7484 8.48577 20.7075 8.48822 20.6674C8.49094 20.6229 8.49359 20.5793 8.49127 20.5446C8.48867 20.5058 8.50021 20.4504 8.51172 20.3949C8.51974 20.3562 8.52773 20.3175 8.531 20.2842C8.53421 20.2516 8.52783 20.2177 8.5216 20.1848C8.51413 20.1454 8.50691 20.1075 8.51703 20.0752C8.51908 20.0687 8.53159 20.0606 8.54724 20.0505C8.55833 20.0433 8.57101 20.035 8.5827 20.0256C8.5827 19.9845 8.58322 19.9435 8.58417 19.9024C8.58247 19.901 8.58074 19.8995 8.57898 19.898C8.57894 19.898 8.5789 19.898 8.57886 19.8979C8.53905 19.8642 8.48461 19.8181 8.51709 19.7533C8.52534 19.7369 8.5406 19.7265 8.55432 19.7171C8.5678 19.708 8.57986 19.6998 8.5824 19.6878C8.58527 19.6741 8.57699 19.658 8.56799 19.6405C8.55535 19.6159 8.54123 19.5883 8.55438 19.5607C8.55528 19.5588 8.55626 19.5568 8.55725 19.5547C8.5666 19.5347 8.58044 19.5051 8.60828 19.4756C8.61571 19.3881 8.62441 19.3006 8.63391 19.2131C8.64975 19.0673 8.66781 18.9215 8.68585 18.7757C8.69474 18.7047 8.73265 18.6367 8.79334 18.5865C8.85411 18.5364 8.93222 18.5082 9.01301 18.5082C9.09379 18.5082 9.17185 18.5364 9.23262 18.5865C9.29331 18.6367 9.33122 18.7047 9.3401 18.7757C9.35442 18.8913 9.36876 19.007 9.38197 19.1227C9.38365 19.1288 9.38527 19.1349 9.38679 19.1409C9.39811 19.186 9.42085 19.2279 9.44362 19.2698C9.44885 19.2794 9.45409 19.289 9.45918 19.2987ZM3.35911 24.0587C3.48188 24.113 3.6597 24.2865 3.75753 24.3819C3.75933 24.3836 3.76114 24.3854 3.76294 24.3871C3.78616 24.4097 3.80904 24.4301 3.83588 24.4539C3.89988 24.5106 3.98634 24.5873 4.15328 24.7631C4.20712 24.8082 4.2607 24.8535 4.31395 24.8992C4.889 25.3928 5.44309 25.9107 5.99304 26.4335C6.00043 26.4396 6.00795 26.4458 6.01555 26.4521C6.16239 26.5728 6.34446 26.7226 6.44763 26.8297C6.5788 26.966 6.66499 27.0619 6.73531 27.1412C7.17187 27.5568 7.61058 27.9699 8.05987 28.3706C8.20068 28.4962 8.34258 28.6205 8.48573 28.7434C8.61755 28.8565 8.75022 28.9688 8.88354 29.0802C8.9658 29.1397 9.04531 29.1947 9.11904 29.2458C9.22264 29.3175 9.31484 29.3814 9.38725 29.4386C9.42675 29.4698 9.46663 29.5029 9.50626 29.5369L9.06423 29.5588C9.18759 29.4298 9.3219 29.3044 9.42782 29.2054C9.4502 29.1845 9.47133 29.1648 9.4908 29.1465C9.58961 29.0354 9.68816 28.924 9.7866 28.8126C9.79578 28.8077 9.80511 28.8028 9.81461 28.7978C9.93323 28.7357 10.0405 28.6226 10.2094 28.4447C10.283 28.3672 10.3682 28.2774 10.4712 28.1741C10.5375 28.1075 10.5831 28.0844 10.6204 28.0655C10.6314 28.0599 10.6417 28.0547 10.6515 28.0489C10.6852 28.0289 10.7044 27.9922 10.7271 27.9489C10.7566 27.8927 10.7919 27.8253 10.8724 27.7686C11.1288 27.5877 11.1929 27.4613 11.2413 27.3656C11.2555 27.3376 11.2684 27.3121 11.2844 27.2888C11.3362 27.213 11.436 27.1299 11.518 27.0732C11.5829 27.0284 11.6784 26.9055 11.7448 26.8067C11.77 26.7694 11.8113 26.7259 11.86 26.6746C11.9104 26.6216 11.9687 26.5603 12.025 26.4889C12.1674 26.3086 12.2439 26.2134 12.3053 26.137C12.3228 26.1152 12.3392 26.0949 12.3554 26.0746C12.4069 26.0104 12.4728 25.9328 12.5396 25.8542C12.6195 25.7602 12.7007 25.6648 12.7594 25.5893C12.9371 25.4181 13.1166 25.2485 13.296 25.079C13.3883 24.9919 13.4989 24.9296 13.6048 24.9069C13.7107 24.8842 13.8029 24.9027 13.8624 24.9596C13.922 25.0165 13.9447 25.1077 13.9269 25.2146C13.9091 25.3214 13.8519 25.4348 13.7691 25.5309C13.6024 25.7244 13.4355 25.918 13.2668 26.1097C13.0613 26.3432 12.8529 26.574 12.6382 26.7987C12.488 26.9559 12.3364 27.1118 12.1837 27.2666C12.168 27.2825 12.1522 27.2984 12.1365 27.3144C12.0249 27.4604 11.9123 27.605 11.8284 27.7024C11.759 27.7829 11.6978 27.8313 11.6454 27.8728C11.6093 27.9013 11.5774 27.9266 11.5498 27.9567C11.535 27.9729 11.5153 27.9954 11.4914 28.0225C11.3941 28.1333 11.2287 28.3215 11.0567 28.473C10.9804 28.5402 10.8865 28.6133 10.797 28.6832C10.6689 28.783 10.5495 28.8762 10.5021 28.9355C10.419 29.0398 10.3065 29.143 10.2071 29.2342C10.1122 29.3211 10.0293 29.3972 9.99512 29.4529C9.95427 29.5194 9.90449 29.5618 9.83051 29.6249C9.7792 29.6687 9.71625 29.7225 9.6365 29.8011C9.57342 29.8632 9.52001 29.9101 9.4731 29.9494L9.29279 30.1163L9.138 29.966C9.11884 29.9454 9.10136 29.9261 9.0848 29.9079C9.01077 29.8262 8.95506 29.7648 8.84962 29.6994C8.73249 29.6267 8.61569 29.5441 8.53495 29.466C8.49818 29.4305 8.45336 29.393 8.40673 29.354C8.34499 29.3023 8.28007 29.248 8.22636 29.1919C8.18211 29.1457 8.15257 29.0993 8.12644 29.0582C8.11829 29.0454 8.11045 29.0331 8.10261 29.0215C8.06399 28.9887 8.0253 28.9558 7.9865 28.9232C7.97859 28.9198 7.97019 28.9163 7.96143 28.9127C7.91751 28.8944 7.86353 28.8719 7.80542 28.8339C7.71345 28.7738 7.64672 28.7048 7.57637 28.6319C7.5216 28.5752 7.46462 28.5161 7.39175 28.4572C7.34206 28.417 7.28263 28.3746 7.22371 28.3326C7.13621 28.2702 7.04982 28.2085 6.99799 28.1561C6.97858 28.1364 6.96716 28.1134 6.9559 28.0906C6.95586 28.0905 6.95582 28.0904 6.95578 28.0902C6.95501 28.0887 6.95424 28.0872 6.95347 28.0856C6.81273 27.9749 6.67148 27.8648 6.52994 27.755C6.5165 27.7469 6.50295 27.7386 6.48954 27.7304C6.424 27.6903 6.36032 27.6513 6.31286 27.6328C6.26141 27.6128 6.15511 27.5355 6.04309 27.4542C5.96973 27.4009 5.89389 27.3458 5.8294 27.3038C5.7917 27.2793 5.76634 27.2439 5.74026 27.2075C5.71593 27.1735 5.69095 27.1386 5.65472 27.1108C5.63657 27.0969 5.61507 27.0841 5.59212 27.0704C5.57192 27.0584 5.55055 27.0457 5.52939 27.031C5.50973 27.0173 5.47314 26.9785 5.42618 26.9287C5.39716 26.898 5.36416 26.8631 5.3288 26.8273C5.22403 26.7459 5.11942 26.6642 5.01511 26.5823C4.98822 26.5711 4.96235 26.5644 4.9381 26.5635C4.9207 26.5629 4.90345 26.5652 4.88578 26.5675C4.86173 26.5706 4.83687 26.5738 4.80964 26.57C4.78837 26.567 4.76918 26.5567 4.76146 26.5437C4.75787 26.5376 4.75674 26.5311 4.75571 26.5252C4.75453 26.5184 4.75346 26.5123 4.74899 26.5086C4.74576 26.506 4.74043 26.5055 4.73392 26.5049C4.72352 26.5038 4.71003 26.5025 4.69701 26.4917C4.64856 26.4514 4.59587 26.403 4.54427 26.3554C4.48689 26.3026 4.43078 26.251 4.38321 26.2132C4.32991 26.1709 4.26389 26.099 4.19771 26.027C4.15155 25.9768 4.10529 25.9266 4.06327 25.8862C4.0221 25.8467 3.97289 25.8128 3.92521 25.7801C3.86797 25.7408 3.8129 25.7031 3.77668 25.6587C3.76936 25.6497 3.76676 25.631 3.76347 25.6075C3.76113 25.5909 3.75839 25.5718 3.75348 25.5522C3.69899 25.5054 3.64483 25.4583 3.59096 25.4108C3.58794 25.4104 3.58483 25.41 3.5817 25.4097C3.58164 25.4097 3.58159 25.4097 3.58153 25.4097C3.51085 25.4015 3.41415 25.3902 3.34926 25.2917C3.33277 25.2667 3.32893 25.2433 3.32547 25.2223C3.32206 25.2016 3.31903 25.1831 3.30475 25.1675C3.28851 25.1498 3.26175 25.1377 3.23259 25.1245C3.19165 25.106 3.14591 25.0854 3.1178 25.0439C3.11588 25.0411 3.11383 25.0381 3.11167 25.0349C3.09119 25.005 3.06085 24.9607 3.03983 24.906C2.92851 24.8007 2.818 24.6943 2.70803 24.5874C2.52471 24.4092 2.34281 24.2293 2.16095 24.0494C2.07254 23.9619 2.0069 23.8556 1.97982 23.7523C1.95279 23.649 1.96623 23.5577 2.01884 23.4963C2.07146 23.4351 2.15973 23.4079 2.26591 23.419C2.37205 23.4301 2.48707 23.4789 2.58705 23.553C2.74998 23.6739 2.91297 23.7949 3.07519 23.9168C3.08433 23.9224 3.09348 23.9281 3.10252 23.9339C3.16977 23.9767 3.24015 24.0071 3.31058 24.0375C3.32675 24.0445 3.34296 24.0515 3.35911 24.0587ZM10.2694 32.0667C10.329 32.1381 10.3606 32.2972 10.3809 32.3837C10.3813 32.3853 10.3817 32.3869 10.3821 32.3885C10.3868 32.409 10.3927 32.4279 10.3998 32.4501C10.417 32.5026 10.4388 32.5738 10.4743 32.7245C10.4923 32.7654 10.5103 32.8053 10.5286 32.8451C10.6524 33.1236 10.8253 33.3955 10.9462 33.4722C11.084 33.5529 11.2399 33.634 11.3946 33.7102C11.4007 33.7124 11.4069 33.7146 11.4132 33.7169C11.534 33.7609 11.6837 33.8109 11.7758 33.8582C11.8885 33.9168 11.9679 33.9604 12.0313 33.996C12.4143 34.1523 12.8091 34.2858 13.2121 34.385C13.3374 34.4159 13.466 34.4438 13.5937 34.4677C13.7146 34.4903 13.8283 34.5088 13.95 34.526C14.0194 34.5286 14.0862 34.5286 14.1487 34.5284C14.2376 34.5282 14.3135 34.5268 14.377 34.5312C14.5315 34.5421 14.6988 34.5751 14.8286 34.5982C14.8491 34.602 14.8686 34.6055 14.8866 34.6086C14.9877 34.6126 15.093 34.6156 15.1941 34.6169C15.2006 34.6206 15.2072 34.6244 15.2139 34.6284C15.2968 34.6771 15.408 34.6838 15.5751 34.6905C15.6482 34.6934 15.7362 34.6963 15.8354 34.702C15.8998 34.7056 15.9329 34.7232 15.96 34.7376C15.968 34.7418 15.9755 34.7457 15.9831 34.7489C16.0092 34.7599 16.0371 34.7489 16.0701 34.7357C16.1135 34.7186 16.1626 34.6979 16.2294 34.7169C16.4433 34.7768 16.5373 34.7326 16.6068 34.6999C16.6274 34.6902 16.646 34.6814 16.6652 34.6763C16.7273 34.6596 16.8177 34.6708 16.8851 34.6878C16.9389 34.7014 17.0451 34.68 17.1254 34.6546C17.1562 34.6451 17.1965 34.6422 17.245 34.6386C17.2951 34.6349 17.3532 34.6303 17.415 34.6166C17.5725 34.5817 17.6516 34.5629 17.7183 34.5476C17.7372 34.5432 17.7547 34.5392 17.7723 34.535C17.8278 34.5218 17.8972 34.508 17.9658 34.4937C18.0484 34.4765 18.1328 34.4581 18.1966 34.4395C18.3651 34.4267 18.5347 34.4132 18.7037 34.3968C18.79 34.3886 18.8787 34.4099 18.9513 34.4581C19.0238 34.5064 19.074 34.5775 19.0898 34.6583C19.1056 34.7391 19.0857 34.8241 19.0339 34.8958C18.9822 34.9676 18.9028 35.0197 18.815 35.0415C18.6368 35.0855 18.4578 35.1265 18.2771 35.1616C18.0569 35.2045 17.8347 35.2387 17.613 35.2591C17.4563 35.2736 17.3004 35.2836 17.1439 35.2897C17.1277 35.2903 17.1115 35.2909 17.0953 35.2914C16.964 35.3194 16.8364 35.3434 16.7419 35.3532C16.6651 35.3613 16.609 35.3519 16.5613 35.3438C16.5284 35.3382 16.4995 35.3331 16.4704 35.3345C16.4549 35.3352 16.4327 35.3368 16.4066 35.3387C16.2988 35.3463 16.1211 35.3573 15.9545 35.3345C15.8811 35.3245 15.7986 35.3052 15.7175 35.286C15.6016 35.2586 15.4961 35.2315 15.4422 35.2355C15.3461 35.2425 15.2363 35.2257 15.1417 35.2099C15.0517 35.195 14.97 35.1807 14.9237 35.1905C14.8676 35.2021 14.8225 35.1913 14.7545 35.1747C14.7066 35.1631 14.6483 35.1488 14.5693 35.1367C14.4787 35.1227 14.4144 35.1032 14.3602 35.0866C14.2837 35.0631 14.2284 35.0454 14.1387 35.0519C14.0379 35.0591 13.9359 35.0571 13.8582 35.0378C13.822 35.0289 13.7802 35.0227 13.7371 35.0162C13.6798 35.0075 13.6215 34.9983 13.5678 34.9808C13.5234 34.9664 13.4892 34.9437 13.4591 34.9236C13.4498 34.9173 13.4408 34.9113 13.4321 34.9058C13.3966 34.8992 13.3616 34.8926 13.3263 34.886C13.32 34.8874 13.3133 34.8889 13.3063 34.8905C13.2712 34.8985 13.2282 34.9081 13.1781 34.9068C13.0991 34.9047 13.0346 34.8813 12.9652 34.8558C12.9115 34.836 12.8579 34.8156 12.7917 34.8024C12.7461 34.7934 12.6936 34.7871 12.6423 34.7808C12.5676 34.7718 12.4889 34.7608 12.4401 34.7414C12.4217 34.7341 12.408 34.72 12.3947 34.706C12.3946 34.7059 12.3946 34.7058 12.3945 34.7058C12.3936 34.7048 12.3927 34.7039 12.3918 34.7029C12.2654 34.6761 12.1423 34.6492 12.0143 34.6192C12.0029 34.6184 11.9915 34.6175 11.9802 34.6167C11.9257 34.6126 11.8704 34.6074 11.8318 34.6127C11.7896 34.6183 11.6986 34.5999 11.5984 34.5771C11.5351 34.5631 11.4675 34.5471 11.4117 34.5376C11.3789 34.5319 11.3555 34.5123 11.3287 34.4909C11.3035 34.4708 11.2784 34.4504 11.2468 34.4409C11.231 34.4362 11.213 34.4339 11.1941 34.4314C11.1773 34.4291 11.1577 34.426 11.1392 34.4215C11.1218 34.4172 11.0873 34.3973 11.0458 34.3726C11.0181 34.3564 10.9865 34.3378 10.955 34.3199C10.8639 34.2882 10.7689 34.2526 10.6793 34.2162C10.6553 34.2149 10.6336 34.2174 10.6141 34.2247C10.6001 34.2299 10.5867 34.2377 10.5729 34.2457C10.5665 34.2494 10.56 34.2532 10.5533 34.2568C10.5364 34.2615 10.5183 34.2649 10.4981 34.2648C10.4739 34.2648 10.4496 34.2559 10.4379 34.2429C10.4325 34.2369 10.4298 34.2302 10.4275 34.2242C10.4248 34.2173 10.4225 34.2111 10.4171 34.2077C10.4131 34.2052 10.4074 34.2051 10.4003 34.2049C10.3891 34.2045 10.3744 34.2039 10.3588 34.193C10.3013 34.153 10.2448 34.1018 10.1963 34.0513C10.1416 33.9946 10.0956 33.9383 10.0585 33.8969C10.0157 33.8493 9.97237 33.7723 9.93628 33.697C9.91014 33.6433 9.88794 33.5919 9.86623 33.5483C9.84554 33.5066 9.81602 33.4665 9.78906 33.4289C9.75625 33.3829 9.72619 33.3386 9.71589 33.2936C9.71383 33.2845 9.72017 33.2687 9.7285 33.2496C9.73438 33.236 9.74112 33.2204 9.74642 33.204C9.72311 33.1531 9.70161 33.1025 9.68127 33.0511C9.67895 33.05 9.67659 33.0488 9.67419 33.0476C9.67414 33.0476 9.67409 33.0476 9.67404 33.0476C9.62018 33.0215 9.54569 32.9828 9.5457 32.89C9.54572 32.8664 9.55527 32.8481 9.56394 32.8318C9.57245 32.8158 9.58012 32.8015 9.5772 32.7858C9.57387 32.7679 9.55902 32.7507 9.54296 32.7318C9.52042 32.7053 9.4954 32.6752 9.49658 32.6366C9.49666 32.634 9.49677 32.6312 9.49684 32.6282C9.49755 32.6003 9.49884 32.559 9.5141 32.5143C9.48749 32.4034 9.46488 32.2922 9.44549 32.1811C9.41307 31.9954 9.38932 31.8096 9.37166 31.6233C9.363 31.5317 9.38579 31.4409 9.43552 31.3672C9.48554 31.2948 9.55816 31.2492 9.63816 31.2382C9.71813 31.2265 9.80001 31.2492 9.86932 31.298C9.93877 31.3483 9.98935 31.4183 10.014 31.4992C10.0539 31.6298 10.0973 31.7599 10.1427 31.8883C10.1461 31.8948 10.1494 31.9014 10.1526 31.908C10.1764 31.956 10.2109 31.998 10.2455 32.0385C10.2535 32.0479 10.2615 32.0573 10.2694 32.0667ZM30.8284 4.17505C30.8671 4.18165 30.8513 4.19439 30.8426 4.20139C30.8425 4.20152 30.8423 4.20165 30.8422 4.20178C30.8401 4.20344 30.8396 4.20501 30.839 4.20685C30.8376 4.21125 30.8357 4.21718 30.8111 4.22957C30.812 4.23318 30.8125 4.23678 30.8125 4.24039C30.8125 4.27931 30.7803 4.31824 30.7417 4.35717C30.7419 4.35766 30.7421 4.35816 30.7423 4.35866C30.7463 4.36843 30.7513 4.38053 30.7371 4.38814C30.7192 4.39781 30.7025 4.40438 30.6881 4.40978C30.6571 4.4407 30.6294 4.47162 30.6179 4.50253C30.6143 4.51222 30.6124 4.52192 30.6124 4.53161C30.6124 4.54053 30.6136 4.54946 30.6159 4.55838C30.6243 4.56358 30.6344 4.56852 30.6436 4.5731C30.6567 4.57954 30.6682 4.58527 30.672 4.59C30.6811 4.60141 30.6667 4.61435 30.6561 4.62396C30.6543 4.62553 30.6527 4.62701 30.6513 4.62838C30.6565 4.63602 30.6622 4.64365 30.668 4.65128C30.6648 4.65179 30.6614 4.6523 30.658 4.65283C30.6151 4.65934 30.6156 4.66735 30.6164 4.67995C30.6168 4.68544 30.6171 4.6918 30.614 4.69929C30.612 4.70411 30.595 4.70659 30.5811 4.70862C30.577 4.70921 30.5732 4.70977 30.5701 4.71034C30.5596 4.71228 30.571 4.71432 30.5845 4.71673C30.602 4.71987 30.623 4.72362 30.604 4.72859C30.5435 4.7444 30.5846 4.75137 30.6156 4.75664C30.6247 4.75819 30.633 4.75959 30.6375 4.76103C30.6523 4.76568 30.6377 4.77231 30.6175 4.77732C30.6015 4.78129 30.6174 4.78924 30.6375 4.79527C30.6451 4.79755 30.6453 4.80063 30.6455 4.80426C30.6457 4.80802 30.6459 4.81236 30.6544 4.81701C30.676 4.82877 30.6865 4.83501 30.6949 4.84003C30.6973 4.84146 30.6995 4.8428 30.7017 4.84413C30.7089 4.84834 30.7148 4.85356 30.7208 4.85885C30.7279 4.86518 30.7352 4.8716 30.7448 4.87649C30.7346 4.88915 30.7219 4.90182 30.7093 4.91448C30.7027 4.92099 30.6658 4.92723 30.6049 4.93183C30.544 4.93643 30.4645 4.93901 30.3822 4.93901C30.2999 4.93901 30.2204 4.93643 30.1595 4.93183C30.0986 4.92723 30.0616 4.92099 30.0551 4.91448C30.042 4.90138 30.0289 4.88827 30.0185 4.87516C30.0058 4.8592 29.9971 4.84323 29.9971 4.82727C29.9971 4.8161 29.999 4.80493 30.0026 4.79376C30.0029 4.79261 30.0033 4.79146 30.0037 4.79031C29.9834 4.78093 29.965 4.77156 29.9584 4.76496C29.953 4.75952 29.9638 4.75554 29.9731 4.75214C29.9795 4.7498 29.9851 4.74773 29.9842 4.74563C29.9837 4.74451 29.9825 4.74297 29.981 4.74112C29.9748 4.73355 29.9644 4.72069 29.9842 4.70896C29.993 4.70376 30.0103 4.69771 30.0268 4.69194C30.0504 4.68369 30.0724 4.67599 30.0657 4.6721C30.0538 4.66528 30.0639 4.65746 30.0728 4.65054C30.0813 4.64395 30.0887 4.63818 30.075 4.6349C30.0586 4.63098 30.0652 4.62764 30.0751 4.62267C30.082 4.61922 30.0904 4.61499 30.0938 4.60924C30.0976 4.6026 30.1091 4.59791 30.1189 4.59392C30.1326 4.5883 30.143 4.58407 30.124 4.57777C30.1028 4.57077 30.0894 4.56346 30.0961 4.5577C30.0991 4.55508 30.0984 4.55208 30.0976 4.54895C30.0966 4.54482 30.0955 4.54047 30.1031 4.5365C30.1093 4.53323 30.1253 4.53053 30.1395 4.52814C30.1439 4.52739 30.1481 4.52667 30.1518 4.52598C30.1516 4.52337 30.1513 4.52077 30.1508 4.51816C30.1482 4.51774 30.1454 4.5173 30.1425 4.51683C30.1277 4.51451 30.1096 4.51165 30.1006 4.50812C30.0863 4.50252 30.0953 4.49761 30.1047 4.49243C30.1121 4.4884 30.1198 4.4842 30.1171 4.47939C30.1152 4.47611 30.1086 4.47237 30.1022 4.46867C30.0926 4.46317 30.0831 4.45774 30.0891 4.45397C30.0914 4.45255 30.1014 4.45134 30.1114 4.45014C30.1115 4.45013 30.1115 4.45012 30.1116 4.45012C30.1123 4.45004 30.1129 4.44996 30.1136 4.44987C30.1059 4.44068 30.0975 4.43149 30.0886 4.4223C30.086 4.42151 30.0835 4.4207 30.081 4.41991C30.0688 4.41601 30.0569 4.41222 30.04 4.40975C30.0217 4.40708 30.011 4.40035 29.9998 4.39326C29.9925 4.38862 29.9849 4.38382 29.9747 4.3799C29.9688 4.37761 29.9791 4.37544 29.9898 4.37321C29.9998 4.37112 30.01 4.36898 30.0074 4.36664C30.0062 4.36546 30.0019 4.3642 29.9973 4.36285C29.9933 4.36166 29.989 4.3604 29.9864 4.35908C29.984 4.35786 29.9896 4.35513 29.9968 4.35164C30.0012 4.34948 30.0062 4.34702 30.0103 4.34445C30.0039 4.33764 29.9977 4.33083 29.9919 4.32402C29.9829 4.3226 29.9711 4.32137 29.956 4.3204C29.9452 4.3197 29.9322 4.3191 29.9189 4.31849C29.9009 4.31765 29.8823 4.31679 29.8674 4.3156C29.8558 4.31468 29.8512 4.31358 29.856 4.31285C29.8583 4.3125 29.8625 4.31224 29.8663 4.312C29.8707 4.31173 29.8746 4.31148 29.8745 4.31119C29.8744 4.31097 29.8713 4.31075 29.8676 4.31047C29.8615 4.31003 29.8538 4.30946 29.8535 4.30859C29.8525 4.30536 29.855 4.30168 29.8574 4.29808C29.8601 4.29408 29.8628 4.29016 29.8605 4.28705C29.8579 4.28355 29.8694 4.27857 29.8809 4.27359C29.8889 4.27011 29.8969 4.26662 29.9002 4.26364C29.9034 4.26071 29.897 4.25766 29.8908 4.2547C29.8833 4.25116 29.8761 4.24775 29.8862 4.24485C29.8883 4.24427 29.9008 4.24354 29.9164 4.24263C29.9275 4.24198 29.9402 4.24123 29.9519 4.24039C29.9519 4.2367 29.9524 4.23301 29.9534 4.22932C29.9517 4.22919 29.9499 4.22906 29.9482 4.22892C29.9481 4.22892 29.9481 4.22892 29.9481 4.22892C29.9083 4.22589 29.8538 4.22174 29.8863 4.21592C29.8945 4.21444 29.9098 4.2135 29.9235 4.21266C29.937 4.21184 29.9491 4.2111 29.9516 4.21002C29.9545 4.2088 29.9462 4.20735 29.9372 4.20577C29.9246 4.20356 29.9104 4.20109 29.9236 4.1986C29.9245 4.19843 29.9255 4.19825 29.9265 4.19806C29.9358 4.19626 29.9496 4.1936 29.9775 4.19095C29.9849 4.18309 29.9936 4.17522 30.0031 4.16736C30.019 4.15425 30.037 4.14114 30.0551 4.12804C30.0639 4.12166 30.1019 4.11554 30.1625 4.11104C30.2233 4.10653 30.3014 4.10399 30.3822 4.10399C30.463 4.10399 30.541 4.10653 30.6018 4.11104C30.6625 4.11554 30.7004 4.12166 30.7093 4.12804C30.7236 4.13843 30.738 4.14883 30.7512 4.15923C30.7529 4.15978 30.7545 4.16033 30.756 4.16087C30.7673 4.16492 30.7901 4.16868 30.8128 4.17245C30.8181 4.17331 30.8233 4.17418 30.8284 4.17505Z" fill="#F4E8DA"></path>
</svg><style>@media (prefers-color-scheme: light) { :root { filter: none; } }
@media (prefers-color-scheme: dark) { :root { filter: none; } }
</style></svg>