<svg width="403" height="397" viewBox="0 0 403 397" fill="none" xmlns="http://www.w3.org/2000/svg">
<path d="M109.433 122.758C110.962 120.425 114.707 116.665 116.767 114.597C116.805 114.559 116.843 114.521 116.88 114.483C117.369 113.992 117.819 113.516 118.346 112.958C119.602 111.627 121.3 109.83 125.025 106.248C126.038 105.14 127.054 104.035 128.075 102.934C139.098 91.0459 150.405 79.4205 161.767 67.847C161.904 67.6952 162.044 67.5408 162.185 67.3848C164.915 64.3705 168.3 60.6328 170.578 58.425C173.475 55.618 175.482 53.7479 177.136 52.2177C186.164 43.0284 195.164 33.8119 204.02 24.4629C206.796 21.5328 209.558 18.5891 212.302 15.6297C214.829 12.9045 217.345 10.1686 219.852 7.42453C221.249 5.76866 222.56 4.17813 223.776 2.70319C223.797 2.67777 223.818 2.65241 223.839 2.62707L225.86 0.290569L228.551 2.25296C230.725 3.76092 232.661 5.10507 234.221 6.27113C238.028 9.11542 242.164 12.575 245.235 15.1442C245.737 15.5641 246.211 15.9605 246.65 16.3263C249.19 18.2368 251.735 20.1442 254.279 22.0499C254.422 22.2112 254.566 22.3748 254.712 22.5413C256.529 24.6198 259.158 26.6714 263.295 29.9014C265.097 31.308 267.185 32.9385 269.617 34.8915C271.184 36.15 271.871 36.9475 272.432 37.5989C272.597 37.7905 272.752 37.9701 272.915 38.1445C273.472 38.7424 274.227 39.1594 275.118 39.6521C276.274 40.2913 277.661 41.0579 279.148 42.5123C283.885 47.1467 286.473 48.5491 288.431 49.61C289.006 49.9212 289.526 50.2035 290.03 50.5289C291.665 51.5843 293.73 53.4259 295.223 54.9034C296.407 56.0749 299.13 57.9671 301.256 59.3252C302.059 59.8387 303.071 60.6287 304.263 61.5596C305.496 62.5229 306.922 63.6379 308.51 64.7517C312.522 67.5663 314.647 69.0717 316.355 70.2822C316.842 70.6273 317.295 70.9492 317.748 71.2699C319.181 72.2833 320.937 73.5691 322.714 74.8712C324.842 76.4293 327.001 78.0107 328.674 79.1747C332.751 82.525 336.809 85.8985 340.868 89.2712C342.952 91.0042 344.725 92.9565 345.782 94.7132C346.839 96.4702 347.098 97.8843 346.488 98.6621C345.879 99.4399 344.444 99.5265 342.485 98.9207C340.526 98.3141 338.206 97.06 336.025 95.4509C331.632 92.2078 327.239 88.9642 322.865 85.6957C317.537 81.7142 312.238 77.6952 307.004 73.5939C303.343 70.7249 299.696 67.8372 296.061 64.9348C295.687 64.636 295.313 64.3368 294.939 64.0377C291.713 61.819 288.506 59.5875 286.295 57.9546C284.468 56.6064 283.247 55.484 282.2 54.5228C281.48 53.8614 280.843 53.276 280.149 52.7462C279.776 52.4617 279.263 52.0785 278.644 51.6164C276.117 49.7298 271.825 46.5255 268.127 43.3256C266.486 41.9058 264.632 40.1892 262.862 38.5505C260.331 36.2072 257.971 34.0222 256.647 33.0879C254.323 31.4475 251.832 29.3425 249.631 27.4823C247.532 25.7079 245.696 24.1562 244.519 23.4431C243.113 22.5911 242.067 21.6693 240.511 20.2993C239.432 19.349 238.107 18.1832 236.247 16.6745C234.1 14.9327 232.646 13.6179 231.41 12.5003C229.67 10.9275 228.361 9.74417 226.155 8.30559C225.64 7.96974 225.123 7.6271 224.611 7.28105L228.523 6.9704C227.067 8.78219 225.569 10.5269 224.234 11.8732C223.464 12.6496 222.621 13.5721 221.744 14.532C220.582 15.8028 219.36 17.1394 218.169 18.2898C217.188 19.2379 216.282 19.9333 215.48 20.5485C215.23 20.7405 214.99 20.9249 214.761 21.1065C214.025 21.9039 213.289 22.7021 212.556 23.5017C212.459 23.6515 212.358 23.8102 212.253 23.9756C211.725 24.8054 211.076 25.8253 210.154 26.9787C208.694 28.8043 207.225 30.2312 205.675 31.7358C204.468 32.9073 203.211 34.126 201.873 35.6178C200.961 36.6351 199.961 37.8291 198.969 39.0127C197.497 40.7706 196.042 42.5064 194.921 43.6097C194.5 44.0231 194.068 44.3123 193.639 44.5982C193.637 44.5993 193.635 44.6004 193.633 44.6015C193.604 44.621 193.575 44.6406 193.546 44.66C191.011 47.5288 188.483 50.4043 185.959 53.2831C185.756 53.5474 185.551 53.8139 185.347 54.0779C184.351 55.3678 183.383 56.6211 182.833 57.5128C182.236 58.4792 180.425 60.6203 178.517 62.8766C177.267 64.3542 175.974 65.8818 174.954 67.1611C174.358 67.909 173.652 68.4883 172.925 69.0839C172.247 69.6397 171.55 70.2104 170.91 70.9459C170.589 71.3143 170.268 71.736 169.925 72.1862C169.624 72.5824 169.305 73.0015 168.955 73.4251C168.63 73.8187 167.809 74.6051 166.756 75.6139C166.105 76.2373 165.367 76.9459 164.601 77.6989C162.73 79.8305 160.856 81.9603 158.979 84.0863C158.657 84.594 158.411 85.0664 158.268 85.4876C158.165 85.7898 158.11 86.0776 158.054 86.3726C157.976 86.7741 157.896 87.1893 157.691 87.6733C157.53 88.0515 157.26 88.4236 157.01 88.6088C156.893 88.6951 156.781 88.7408 156.68 88.7824C156.564 88.8301 156.461 88.8728 156.377 88.9647C156.317 89.0311 156.281 89.1247 156.236 89.2394C156.165 89.4226 156.071 89.6603 155.828 89.9279C154.921 90.924 153.858 92.0264 152.817 93.1062C151.659 94.307 150.527 95.4808 149.664 96.452C148.698 97.5401 147.187 98.9662 145.673 100.395C144.618 101.392 143.561 102.391 142.686 103.277C141.828 104.145 141.021 105.128 140.239 106.081C139.301 107.225 138.399 108.325 137.49 109.127C137.306 109.29 136.99 109.41 136.593 109.561C136.313 109.668 135.99 109.792 135.647 109.955C134.603 111.082 133.554 112.204 132.501 113.323C132.479 113.376 132.456 113.431 132.434 113.487C132.433 113.488 132.433 113.489 132.433 113.49C131.925 114.74 131.23 116.45 129.295 117.964C128.803 118.348 128.405 118.509 128.047 118.653C127.695 118.795 127.38 118.922 127.052 119.23C126.68 119.581 126.343 120.091 125.975 120.646C125.46 121.425 124.883 122.296 124.065 122.946C124.009 122.991 123.949 123.039 123.886 123.088C123.294 123.562 122.418 124.262 121.423 124.844C119.131 127.185 116.827 129.516 114.517 131.84C110.666 135.713 106.795 139.57 102.925 143.425C101.041 145.3 98.9758 146.858 97.165 147.74C95.3533 148.621 93.9486 148.757 93.2377 148.098C92.527 147.439 92.5576 146.028 93.2996 144.155C94.0424 142.283 95.4404 140.107 97.1678 138.087C99.9862 134.795 102.805 131.501 105.634 128.218C105.773 128.037 105.914 127.857 106.055 127.678C107.103 126.348 107.968 125.014 108.834 123.679C109.032 123.372 109.232 123.065 109.433 122.758ZM375.906 114.912C376.44 114.74 376.799 115.263 376.997 115.55C377.001 115.556 377.005 115.561 377.009 115.566C377.056 115.634 377.111 115.685 377.175 115.745C377.33 115.887 377.538 116.079 377.819 116.675C377.961 116.773 378.1 116.874 378.235 116.98C379.693 118.122 380.912 119.568 382.085 121.075C382.105 121.087 382.125 121.1 382.145 121.113C382.54 121.362 383.03 121.67 383.211 122.027C383.44 122.481 383.563 122.831 383.658 123.125C384.587 124.325 385.539 125.494 386.613 126.51C386.949 126.828 387.297 127.131 387.66 127.416C387.994 127.678 388.338 127.928 388.689 128.168C388.946 128.241 389.205 128.291 389.445 128.338C389.783 128.404 390.083 128.463 390.289 128.566C390.783 128.815 391.161 129.33 391.442 129.713C391.488 129.776 391.532 129.835 391.572 129.889C391.897 130.063 392.225 130.233 392.554 130.402C392.549 130.448 392.543 130.495 392.537 130.542C392.464 131.139 392.768 131.369 393.245 131.731C393.454 131.889 393.695 132.072 393.952 132.321C394.118 132.481 394.085 132.715 394.058 132.905C394.05 132.962 394.043 133.014 394.041 133.06C394.035 133.216 394.197 133.169 394.387 133.112C394.634 133.039 394.93 132.95 394.975 133.275C395.12 134.311 395.685 134.128 396.112 133.989C396.237 133.948 396.351 133.912 396.438 133.911C396.722 133.907 396.862 134.241 396.9 134.578C396.931 134.846 397.346 134.929 397.721 134.916C397.862 134.911 397.979 134.999 398.116 135.104C398.259 135.213 398.423 135.338 398.66 135.394C399.26 135.535 399.572 135.619 399.822 135.687C399.893 135.707 399.959 135.725 400.026 135.743C400.236 135.799 400.476 135.896 400.718 135.995C401.008 136.113 401.302 136.234 401.556 136.286C401.955 136.754 402.336 137.245 402.716 137.736C402.912 137.989 402.872 138.521 402.594 139.231C402.315 139.942 401.824 140.768 401.214 141.546C400.605 142.323 399.92 142.998 399.297 143.439C398.674 143.879 398.166 144.045 397.874 143.916C397.287 143.655 396.699 143.394 396.131 143.107C395.439 142.759 394.776 142.373 394.179 141.904C393.76 141.576 393.356 141.23 392.964 140.869C392.924 140.832 392.884 140.794 392.844 140.757C392.342 140.673 391.855 140.572 391.559 140.441C391.315 140.332 391.246 140.113 391.188 139.926C391.147 139.797 391.111 139.683 391.026 139.63C390.98 139.602 390.914 139.568 390.833 139.528C390.504 139.364 389.945 139.085 389.653 138.554C389.523 138.318 389.424 137.977 389.33 137.652C389.196 137.187 389.071 136.753 388.875 136.703C388.532 136.615 388.313 136.29 388.12 136.003C387.936 135.729 387.775 135.49 387.551 135.523C387.283 135.563 387.207 135.402 387.094 135.162C387.016 134.996 386.919 134.793 386.729 134.593C386.509 134.361 386.418 134.115 386.341 133.905C386.233 133.611 386.151 133.389 385.774 133.384C385.356 133.378 384.982 133.29 384.816 133.058C384.74 132.953 384.622 132.871 384.5 132.787C384.337 132.676 384.167 132.558 384.074 132.37C383.998 132.215 384.015 131.984 384.03 131.781C384.035 131.717 384.039 131.656 384.04 131.601C383.941 131.526 383.841 131.453 383.74 131.381C383.706 131.393 383.668 131.407 383.629 131.421C383.433 131.492 383.192 131.579 382.992 131.56C382.677 131.531 382.559 131.303 382.436 131.061C382.339 130.873 382.239 130.677 382.039 130.562C381.902 130.483 381.713 130.435 381.527 130.388C381.25 130.317 380.976 130.247 380.88 130.08C380.843 130.017 380.872 129.886 380.901 129.757C380.901 129.756 380.901 129.755 380.902 129.755C380.904 129.746 380.905 129.737 380.907 129.728C380.507 129.531 380.1 129.341 379.69 129.155C379.641 129.156 379.592 129.157 379.544 129.157C379.307 129.158 379.078 129.159 378.86 129.246C378.624 129.341 378.294 129.244 377.945 129.142C377.717 129.075 377.481 129.006 377.259 128.987C377.13 128.975 377.125 128.814 377.12 128.648C377.116 128.492 377.111 128.333 377.005 128.288C376.951 128.266 376.872 128.269 376.788 128.273C376.713 128.276 376.634 128.279 376.566 128.265C376.502 128.252 376.442 128.119 376.364 127.949C376.316 127.844 376.261 127.724 376.195 127.61C375.892 127.471 375.591 127.33 375.294 127.184C375.174 127.228 375.04 127.303 374.892 127.417C374.786 127.499 374.667 127.604 374.546 127.711C374.382 127.857 374.211 128.008 374.057 128.113C373.936 128.196 373.861 128.207 373.869 128.14C373.873 128.109 373.895 128.061 373.914 128.018C373.936 127.968 373.956 127.924 373.944 127.917C373.935 127.911 373.904 127.934 373.866 127.961C373.805 128.005 373.726 128.062 373.691 128.039C373.563 127.954 373.443 127.822 373.327 127.694C373.197 127.55 373.07 127.41 372.936 127.341C372.786 127.263 372.685 127.008 372.583 126.753C372.512 126.575 372.441 126.397 372.353 126.279C372.267 126.162 372.106 126.133 371.949 126.105C371.761 126.072 371.58 126.04 371.546 125.859C371.54 125.823 371.605 125.683 371.687 125.509C371.745 125.385 371.811 125.243 371.865 125.108C371.727 125 371.593 124.887 371.462 124.769C371.444 124.782 371.426 124.794 371.408 124.807C371.408 124.807 371.408 124.807 371.407 124.808C370.999 125.095 370.441 125.487 370.463 125.01C370.469 124.888 370.547 124.717 370.617 124.562C370.686 124.411 370.748 124.275 370.726 124.22C370.701 124.157 370.586 124.192 370.46 124.231C370.284 124.285 370.087 124.346 370.091 124.149C370.091 124.136 370.092 124.121 370.092 124.106C370.094 123.965 370.096 123.756 370.203 123.416C369.964 123.115 369.734 122.802 369.509 122.481C369.136 121.947 368.778 121.392 368.421 120.836C368.248 120.565 368.3 120.028 368.58 119.322C368.861 118.616 369.344 117.804 369.942 117.041C370.54 116.278 371.213 115.615 371.831 115.173C372.449 114.732 372.959 114.554 373.264 114.657C373.759 114.827 374.255 114.996 374.742 115.177C374.775 115.177 374.807 115.178 374.839 115.179C375.074 115.191 375.384 115.087 375.693 114.982C375.764 114.958 375.835 114.934 375.906 114.912ZM139.04 87.9031C140.786 87.4385 144.154 87.6282 146.006 87.7324C146.04 87.7341 146.074 87.7358 146.108 87.7375C146.548 87.7622 146.964 87.7686 147.451 87.7756C148.613 87.7923 150.182 87.8149 153.459 88.1111C154.412 88.1002 155.365 88.0942 156.319 88.0942C166.613 88.0942 176.907 88.4805 187.202 88.9431C187.332 88.9407 187.464 88.9383 187.598 88.9358C190.179 88.8878 193.381 88.8285 195.393 88.998C197.95 89.2136 199.688 89.4136 201.114 89.5862C209.291 89.9584 217.468 90.291 225.644 90.4285C228.207 90.4716 230.77 90.4951 233.332 90.4951C235.692 90.4951 238.053 90.4804 240.413 90.4527C241.787 90.3516 243.093 90.2314 244.305 90.1201C246.008 89.9638 247.524 89.8249 248.776 89.7796C251.792 89.6704 255.214 89.8427 257.755 89.9707C258.171 89.9916 258.563 90.0115 258.925 90.0286C260.944 89.9652 262.962 89.8973 264.98 89.8279C265.115 89.8665 265.251 89.9068 265.389 89.948C267.111 90.463 269.229 90.4564 272.562 90.4468C274.013 90.4426 275.695 90.4381 277.676 90.4754C278.952 90.4994 279.607 90.7035 280.143 90.8702C280.301 90.9192 280.448 90.965 280.598 91.002C281.111 91.1288 281.651 90.9917 282.289 90.8299C283.118 90.6199 284.111 90.3676 285.424 90.5955C289.606 91.3216 291.449 90.829 292.843 90.4563C293.252 90.347 293.623 90.2482 294.003 90.1934C295.233 90.0155 296.986 90.1917 298.311 90.4336C299.362 90.6254 301.464 90.4353 303.058 90.1934C303.661 90.1019 304.476 90.0996 305.436 90.0974C306.43 90.0952 307.579 90.0931 308.809 89.9905C311.917 89.7312 313.568 89.6055 314.896 89.5049C315.274 89.4762 315.627 89.4501 315.979 89.4229C317.092 89.3368 318.473 89.2659 319.872 89.1943C321.545 89.1087 323.244 89.0218 324.536 88.9058C327.886 89.0286 331.235 89.1805 334.585 89.332C336.305 89.4107 337.956 89.8539 339.172 90.5845C340.388 91.3157 341.072 92.2691 341.072 93.2572C341.072 94.2452 340.388 95.1986 339.172 95.9298C337.956 96.6604 336.305 97.1043 334.585 97.183C331.119 97.3399 327.652 97.4968 324.186 97.6217C319.964 97.774 315.742 97.8788 311.52 97.8788C308.566 97.8788 305.612 97.8553 302.659 97.8129C302.355 97.8085 302.051 97.8037 301.746 97.799C299.265 98.0423 296.789 98.2636 295.044 98.3425C293.603 98.4076 292.553 98.2777 291.653 98.1667C291.034 98.0902 290.486 98.0226 289.932 98.0334C289.635 98.0392 289.228 98.0542 288.738 98.0722C286.736 98.1458 283.336 98.2708 280.234 98.0334C278.858 97.928 277.259 97.7204 275.732 97.5221C273.55 97.2387 271.514 96.9744 270.487 97.0556C268.683 97.1982 266.613 97.0775 264.785 96.9706C263.041 96.8687 261.516 96.7797 260.648 96.9442C259.611 97.141 258.727 97.0608 257.413 96.942C256.502 96.8597 255.383 96.7591 253.863 96.7187C252.107 96.6719 250.866 96.5341 249.81 96.4169C248.324 96.2519 247.207 96.1279 245.541 96.3561C243.69 96.6096 241.756 96.7709 240.233 96.6908C239.539 96.6543 238.746 96.6632 237.92 96.6725C236.827 96.6848 235.677 96.6976 234.627 96.6066C233.762 96.5316 233.047 96.3398 232.414 96.1701C232.217 96.1171 232.027 96.0665 231.844 96.0221C231.155 96.0245 230.466 96.0281 229.777 96.0338C229.665 96.0647 229.548 96.0989 229.425 96.1342C228.811 96.3112 228.056 96.5284 227.121 96.6366C225.641 96.8079 224.342 96.7006 222.972 96.5868C221.905 96.4982 220.796 96.4057 219.523 96.4389C218.656 96.4615 217.668 96.5399 216.689 96.6176C215.234 96.7329 213.798 96.8465 212.8 96.7743C212.427 96.7473 212.105 96.6268 211.787 96.507C211.786 96.5062 211.784 96.5055 211.783 96.5048C211.761 96.4966 211.74 96.4887 211.718 96.4806C209.288 96.5724 206.857 96.6736 204.427 96.7802C204.217 96.8111 204.004 96.8417 203.793 96.8717C202.762 97.0186 201.761 97.1613 201.108 97.3639C200.401 97.5835 198.622 97.7112 196.747 97.8459C195.52 97.934 194.251 98.0251 193.214 98.1469C192.609 98.2181 192.034 98.094 191.443 97.966C190.891 97.8466 190.325 97.724 189.706 97.7543C189.396 97.7695 189.061 97.8209 188.704 97.8759C188.389 97.9243 188.056 97.9756 187.708 98.007C187.384 98.0361 186.663 97.9685 185.739 97.8825C185.168 97.8293 184.519 97.7693 183.838 97.7199C182.038 97.7972 180.237 97.8714 178.437 97.9404C178.061 98.0492 177.735 98.1904 177.477 98.3718C177.292 98.5019 177.135 98.6574 176.973 98.8163C176.752 99.0327 176.524 99.2563 176.21 99.4345C175.965 99.5738 175.675 99.6293 175.481 99.5715C175.39 99.5445 175.321 99.4937 175.258 99.4477C175.185 99.395 175.121 99.3482 175.042 99.3496C174.985 99.3506 174.926 99.3879 174.853 99.4331C174.737 99.5051 174.586 99.5982 174.356 99.6015C173.501 99.6138 172.529 99.584 171.576 99.5546C170.517 99.522 169.482 99.4902 168.658 99.518C167.734 99.5492 166.417 99.4107 165.099 99.2727C164.179 99.1763 163.257 99.0805 162.467 99.0412C161.693 99.0027 160.886 99.0793 160.105 99.154C159.168 99.2437 158.266 99.3304 157.5 99.2089C157.345 99.1843 157.152 99.0342 156.911 98.8464C156.74 98.7133 156.543 98.5611 156.319 98.4208C155.343 98.4208 154.368 98.4147 153.392 98.4033C153.358 98.4236 153.322 98.4443 153.287 98.4655C153.286 98.466 153.286 98.4665 153.285 98.467C152.484 98.9446 151.388 99.598 149.847 99.2082C149.456 99.1091 149.209 98.9261 148.987 98.7614C148.769 98.5997 148.574 98.4549 148.289 98.4245C147.965 98.39 147.582 98.4893 147.165 98.5973C146.58 98.749 145.926 98.9184 145.269 98.7607C145.224 98.7499 145.176 98.7381 145.126 98.7263C144.65 98.614 143.946 98.448 143.245 98.1139C141.166 98.0248 139.086 97.9203 137.006 97.8063C133.54 97.6163 130.073 97.3996 126.607 97.183C124.921 97.0764 123.304 96.6215 122.112 95.8932C120.919 95.1639 120.249 94.2266 120.249 93.2572C120.249 92.2878 120.919 91.3511 122.112 90.6219C123.304 89.8935 124.921 89.4386 126.607 89.332C129.357 89.1602 132.107 88.9882 134.857 88.8296C135.002 88.8095 135.146 88.79 135.29 88.7717C136.362 88.6359 137.357 88.363 138.352 88.0898C138.581 88.0271 138.81 87.9642 139.04 87.9031ZM362.409 86.8079C362.874 89.4461 362.684 94.5332 362.58 97.3315C362.578 97.3828 362.576 97.4341 362.575 97.4855C362.55 98.1496 362.543 98.7778 362.536 99.5138C362.52 101.269 362.497 103.64 362.201 108.589C362.212 110.029 362.218 111.469 362.218 112.909C362.218 128.46 361.832 144.011 361.369 159.562C361.371 159.758 361.374 159.958 361.376 160.16C361.424 164.06 361.484 168.897 361.314 171.935C361.099 175.799 360.899 178.423 360.726 180.578C360.354 192.93 360.021 205.282 359.884 217.633C359.841 221.505 359.817 225.376 359.817 229.248C359.817 232.812 359.832 236.378 359.859 239.943C359.961 242.019 360.081 243.993 360.192 245.823C360.348 248.395 360.487 250.685 360.533 252.576C360.642 257.133 360.469 262.302 360.341 266.141C360.32 266.768 360.301 267.361 360.284 267.909C360.347 270.957 360.415 274.007 360.484 277.055C360.446 277.259 360.405 277.464 360.364 277.672C359.849 280.274 359.856 283.473 359.865 288.508C359.869 290.7 359.874 293.241 359.837 296.233C359.813 298.161 359.609 299.151 359.442 299.96C359.393 300.198 359.347 300.421 359.31 300.647C359.183 301.422 359.32 302.238 359.482 303.203C359.692 304.454 359.944 305.955 359.717 307.938C358.99 314.256 359.483 317.04 359.856 319.146C359.965 319.763 360.064 320.323 360.119 320.897C360.297 322.756 360.12 325.404 359.878 327.405C359.687 328.993 359.877 332.168 360.119 334.576C360.21 335.486 360.212 336.718 360.215 338.168C360.217 339.669 360.219 341.406 360.322 343.263C360.581 347.958 360.707 350.453 360.807 352.458C360.836 353.03 360.862 353.563 360.889 354.095C360.975 355.776 361.046 357.863 361.118 359.975C361.203 362.503 361.29 365.069 361.406 367.021C361.284 372.081 361.132 377.141 360.98 382.2C360.901 384.799 360.458 387.293 359.728 389.131C358.996 390.968 358.043 392 357.055 392C356.067 392 355.113 390.968 354.382 389.131C353.652 387.293 353.208 384.799 353.129 382.2C352.972 376.965 352.815 371.729 352.69 366.493C352.538 360.115 352.433 353.736 352.433 347.358C352.433 342.896 352.457 338.435 352.499 333.973C352.504 333.513 352.508 333.054 352.513 332.595C352.27 328.846 352.049 325.105 351.97 322.469C351.905 320.293 352.034 318.706 352.145 317.348C352.222 316.413 352.289 315.585 352.279 314.748C352.273 314.298 352.258 313.684 352.24 312.944C352.166 309.919 352.041 304.783 352.279 300.098C352.384 298.019 352.592 295.603 352.79 293.297C353.073 290 353.338 286.926 353.257 285.374C353.114 282.648 353.235 279.522 353.341 276.76C353.443 274.125 353.532 271.821 353.368 270.511C353.171 268.945 353.251 267.61 353.37 265.624C353.452 264.247 353.553 262.558 353.593 260.261C353.64 257.609 353.778 255.733 353.895 254.139C354.06 251.895 354.184 250.206 353.956 247.69C353.703 244.894 353.541 241.973 353.621 239.672C353.658 238.624 353.649 237.425 353.64 236.178C353.627 234.526 353.615 232.789 353.706 231.203C353.78 229.896 353.972 228.816 354.142 227.861C354.195 227.562 354.246 227.276 354.29 226.999C354.288 225.958 354.284 224.917 354.278 223.876C354.247 223.708 354.213 223.531 354.178 223.346C354.001 222.418 353.784 221.277 353.675 219.864C353.504 217.628 353.611 215.667 353.725 213.597C353.814 211.986 353.906 210.309 353.873 208.387C353.851 207.077 353.772 205.585 353.695 204.106C353.579 201.909 353.466 199.739 353.538 198.232C353.565 197.667 353.685 197.181 353.805 196.701C353.806 196.699 353.807 196.697 353.807 196.694C353.815 196.662 353.823 196.629 353.831 196.597C353.74 192.925 353.639 189.254 353.532 185.583C353.501 185.265 353.47 184.943 353.44 184.625C353.293 183.068 353.151 181.556 352.948 180.569C352.729 179.501 352.601 176.813 352.466 173.982C352.378 172.127 352.287 170.21 352.165 168.645C352.094 167.73 352.218 166.862 352.346 165.969C352.466 165.136 352.588 164.28 352.558 163.345C352.543 162.876 352.491 162.371 352.436 161.831C352.388 161.355 352.337 160.853 352.305 160.326C352.276 159.838 352.344 158.749 352.43 157.353C352.483 156.49 352.543 155.51 352.592 154.481C352.515 151.761 352.441 149.041 352.372 146.321C352.263 145.754 352.122 145.262 351.94 144.872C351.81 144.592 351.655 144.354 351.496 144.11C351.279 143.777 351.056 143.433 350.878 142.958C350.738 142.587 350.683 142.15 350.741 141.856C350.768 141.719 350.818 141.614 350.864 141.519C350.917 141.41 350.964 141.312 350.963 141.193C350.961 141.107 350.924 141.018 350.879 140.908C350.807 140.733 350.714 140.505 350.711 140.157C350.698 138.865 350.728 137.397 350.757 135.958C350.79 134.358 350.822 132.795 350.794 131.549C350.763 130.153 350.901 128.165 351.039 126.173C351.136 124.783 351.232 123.391 351.271 122.197C351.309 121.027 351.233 119.809 351.158 118.629C351.068 117.213 350.982 115.851 351.103 114.693C351.128 114.459 351.278 114.169 351.466 113.804C351.599 113.546 351.751 113.248 351.891 112.909C351.891 111.436 351.897 109.962 351.909 108.489C351.888 108.437 351.868 108.383 351.847 108.33C351.846 108.329 351.846 108.328 351.845 108.327C351.367 107.117 350.714 105.461 351.104 103.134C351.203 102.543 351.386 102.17 351.551 101.835C351.712 101.505 351.857 101.211 351.888 100.78C351.922 100.29 351.823 99.7125 351.715 99.0824C351.563 98.1978 351.394 97.2096 351.551 96.2181C351.562 96.1504 351.574 96.0775 351.586 96.0017C351.698 95.283 351.864 94.219 352.198 93.1602C352.287 90.019 352.392 86.8774 352.506 83.7361C352.696 78.5 352.913 73.2628 353.129 68.0271C353.236 65.4799 353.691 63.037 354.419 61.2358C355.148 59.4345 356.085 58.4223 357.055 58.4223C358.024 58.4225 358.961 59.4346 359.69 61.2358C360.419 63.037 360.873 65.4798 360.98 68.0271C361.152 72.1808 361.324 76.3358 361.483 80.49C361.503 80.7077 361.522 80.9264 361.54 81.144C361.676 82.7634 361.949 84.266 362.222 85.7696C362.285 86.1149 362.348 86.461 362.409 86.8079ZM249.358 184.545C252.05 183.998 257.254 183.922 260.1 183.801C260.153 183.799 260.205 183.797 260.258 183.795C260.936 183.768 261.574 183.724 262.315 183.668C264.103 183.522 266.505 183.373 271.465 182.994C272.92 182.778 274.31 182.553 275.726 182.298C279.529 181.61 283.324 180.743 286.468 179.483C288.019 178.867 289.401 178.076 290.02 177.487C290.332 177.202 290.393 177.052 290.389 177.113C290.378 177.169 290.436 177.298 290.403 177.057C290.513 177.092 290.028 176.193 288.839 175.364C287.747 174.562 286.23 173.771 284.577 173.085C281.28 171.723 277.671 170.748 273.915 169.953C273.724 169.921 273.528 169.889 273.329 169.857C269.484 169.226 264.622 168.78 261.569 168.405C257.657 167.917 255.007 167.66 252.813 167.454C240.247 166.97 227.404 167.718 215.421 171.034C211.702 172.095 208.077 173.44 204.836 175.271C201.876 176.945 199.257 179.065 197.809 181.567C197.038 183.057 196.766 184.557 196.824 185.912C196.87 187.065 197.098 188.024 197.438 189.068C197.735 189.991 198.015 190.829 198.265 191.587C199.661 195.899 201.488 200.661 203.236 203.957C203.516 204.495 203.798 205.012 204.059 205.472C205.659 207.965 207.484 210.279 209.526 212.354C209.631 212.522 209.737 212.692 209.846 212.864C211.222 214.996 213.505 217.185 217.681 219.743C219.509 220.848 221.714 222.004 224.431 223.15C226.179 223.881 227.061 224.384 227.765 224.797C227.975 224.919 228.173 225.031 228.378 225.135C229.086 225.494 229.905 225.598 230.883 225.7C232.159 225.832 233.667 225.956 235.563 226.581C241.697 228.532 244.684 228.196 246.815 228.041C247.453 227.987 248.039 227.934 248.616 227.921C250.51 227.886 253.21 228.195 255.244 228.49C256.397 228.658 258.348 228.639 260.298 228.508C261.09 228.455 261.869 228.378 262.576 228.29C263.495 228.176 264.727 228.131 266.193 228.038C267.701 227.943 269.446 227.796 271.3 227.48C275.967 226.665 278.401 226.021 280.357 225.524C280.916 225.378 281.424 225.241 281.944 225.096C283.577 224.641 285.586 224.068 287.607 223.416C290.024 222.641 292.444 221.751 294.24 220.982C299.041 219.389 303.773 217.477 308.267 215.215C310.587 214.049 312.897 213.152 314.816 212.734C316.73 212.322 318.116 212.426 318.72 213.212C319.341 213.975 319.065 215.43 317.809 217.163C316.559 218.894 314.463 220.7 312.01 222.117C307.098 224.954 301.938 227.375 296.638 229.38C290.187 231.816 283.465 233.644 276.612 234.718C271.822 235.469 266.956 235.878 262.104 235.921C261.605 235.925 261.103 235.926 260.6 235.922C260.5 235.929 260.399 235.935 260.298 235.941C256.396 236.182 252.488 236.259 249.717 236.162C247.37 236.083 245.649 235.797 244.211 235.538C243.198 235.356 242.314 235.185 241.418 235.082C240.932 235.025 240.257 234.951 239.457 234.852C236.186 234.461 230.574 233.539 225.655 231.644C223.48 230.821 221.018 229.647 218.762 228.351C215.524 226.515 212.768 224.407 211.307 223.454C208.713 221.8 206.109 219.356 204.091 216.998C202.151 214.757 200.702 212.618 199.742 211.514C198.588 210.179 197.851 208.867 196.888 206.887C196.224 205.508 195.454 203.801 194.493 201.479C193.381 198.773 192.851 196.802 192.425 195.135C192.013 193.509 191.736 192.232 191.304 190.712C191.067 189.865 190.85 188.983 190.67 188C189.959 184.531 190.948 180.486 192.626 178.085C193.36 176.969 194.269 175.801 195.337 174.708C196.706 173.299 198.34 172.025 199.922 171.107C201.27 170.324 202.348 169.953 203.403 169.594C203.725 169.487 204.044 169.383 204.341 169.288C205.339 168.796 206.378 168.328 207.453 167.882C207.614 167.782 207.794 167.673 207.962 167.568C208.814 167.04 209.896 166.401 211.36 165.801C213.578 164.888 215.739 164.403 217.892 163.996C219.616 163.67 221.38 163.382 223.403 162.968C224.805 162.683 226.332 162.345 227.895 162.034C230.234 161.567 232.482 161.19 234.113 161.095C234.72 161.059 235.24 161.13 235.761 161.202C235.763 161.202 235.766 161.203 235.768 161.203C235.803 161.208 235.838 161.213 235.874 161.218C239.764 160.769 243.661 160.459 247.572 160.278C247.91 160.24 248.251 160.204 248.59 160.17C250.246 160.001 251.871 159.866 252.922 159.678C254.052 159.471 256.958 159.399 259.996 159.439C262.012 159.464 264.033 159.531 265.759 159.574C266.754 159.598 267.663 159.819 268.597 160.058C269.497 160.283 270.407 160.523 271.406 160.633C271.909 160.688 272.443 160.714 273.029 160.749C273.56 160.783 274.117 160.821 274.691 160.887C275.239 160.952 276.34 161.209 277.856 161.608C278.793 161.854 279.834 162.146 280.892 162.456C283.906 163.125 286.762 163.901 289.792 165.155C290.453 165.329 291.027 165.449 291.52 165.495C291.906 165.545 292.254 165.553 292.612 165.568C293.099 165.589 293.605 165.619 294.232 165.8C294.477 165.871 294.728 165.976 294.953 166.098C295.206 166.239 295.433 166.399 295.595 166.552C295.746 166.695 295.842 166.831 295.927 166.954C296.025 167.095 296.111 167.221 296.25 167.331C296.35 167.41 296.477 167.465 296.632 167.536C296.879 167.651 297.202 167.803 297.589 168.168C298.983 169.499 300.513 171.406 301.236 174.155C301.329 174.514 301.406 174.879 301.466 175.248C302.149 178.61 300.59 182.476 299.091 184.226C297.454 186.383 294.836 187.963 292.474 188.953C290.775 189.678 289.176 190.168 287.854 190.571C286.492 190.987 285.226 191.429 283.917 191.843C282.405 192.325 280.912 192.739 279.63 192.871C279.37 192.898 279.009 192.815 278.585 192.705C278.285 192.626 277.941 192.535 277.553 192.462C275.95 192.75 274.4 192.987 272.792 193.201C272.74 193.229 272.686 193.257 272.632 193.286C272.631 193.286 272.631 193.287 272.63 193.288C271.419 193.937 269.698 194.821 267.157 194.695C266.502 194.663 266.101 194.518 265.725 194.389C265.359 194.262 265.032 194.148 264.569 194.16C264.044 194.173 263.428 194.327 262.773 194.49C261.85 194.718 260.796 194.969 259.733 194.885C259.661 194.879 259.583 194.872 259.501 194.866C258.733 194.807 257.583 194.715 256.442 194.445C253.105 194.545 249.772 194.57 246.447 194.538C240.892 194.482 235.395 194.271 229.852 193.946C227.197 193.787 224.585 193.249 222.744 192.447C220.855 191.642 219.872 190.652 219.921 189.684C219.967 188.715 221.036 187.833 222.951 187.179C224.821 186.525 227.402 186.152 230.007 186.096C234.305 186.009 238.6 185.85 242.882 185.629C243.106 185.605 243.333 185.582 243.557 185.56C245.217 185.397 246.766 185.087 248.298 184.766C248.651 184.693 249.004 184.618 249.358 184.545ZM211.097 245.572C211.612 245.107 212.606 245.297 213.153 245.401C213.163 245.403 213.173 245.405 213.183 245.406C213.312 245.431 213.435 245.437 213.579 245.444C213.922 245.461 214.385 245.484 215.351 245.78C215.632 245.769 215.914 245.763 216.195 245.763C219.232 245.763 222.269 246.149 225.306 246.612C225.345 246.61 225.384 246.607 225.423 246.605C226.185 246.557 227.13 246.497 227.723 246.667C228.478 246.882 228.99 247.082 229.411 247.255C231.824 247.627 234.236 247.96 236.648 248.097C237.404 248.14 238.161 248.164 238.917 248.164C239.613 248.164 240.309 248.149 241.005 248.121C241.411 248.02 241.796 247.9 242.154 247.789C242.656 247.633 243.103 247.494 243.473 247.448C244.363 247.339 245.372 247.511 246.122 247.64C246.245 247.66 246.36 247.68 246.467 247.697C247.063 247.634 247.658 247.566 248.254 247.497C248.294 247.535 248.334 247.576 248.374 247.617C248.882 248.132 249.507 248.125 250.491 248.116C250.919 248.111 251.415 248.107 251.999 248.144C252.376 248.168 252.569 248.372 252.727 248.539C252.774 248.588 252.817 248.634 252.861 248.671C253.013 248.798 253.172 248.661 253.361 248.499C253.605 248.289 253.898 248.036 254.285 248.264C255.519 248.99 256.063 248.498 256.474 248.125C256.595 248.016 256.704 247.917 256.816 247.862C257.179 247.684 257.697 247.861 258.087 248.102C258.397 248.294 259.018 248.104 259.488 247.862C259.666 247.771 259.906 247.768 260.19 247.766C260.483 247.764 260.822 247.762 261.185 247.659C262.102 247.4 262.589 247.274 262.98 247.174C263.092 247.145 263.196 247.119 263.3 247.092C263.628 247.006 264.036 246.935 264.449 246.863C264.942 246.778 265.443 246.691 265.825 246.575C266.813 246.697 267.801 246.849 268.789 247.001C269.297 247.08 269.784 247.523 270.143 248.253C270.502 248.984 270.703 249.938 270.703 250.926C270.703 251.914 270.502 252.867 270.143 253.599C269.784 254.329 269.297 254.773 268.789 254.852C267.767 255.009 266.744 255.166 265.722 255.291C264.476 255.443 263.23 255.548 261.984 255.548C261.113 255.548 260.242 255.524 259.37 255.482C259.28 255.477 259.191 255.473 259.101 255.468C258.369 255.711 257.638 255.932 257.123 256.011C256.698 256.076 256.389 255.947 256.123 255.835C255.941 255.759 255.779 255.691 255.615 255.702C255.528 255.708 255.408 255.723 255.263 255.741C254.672 255.815 253.669 255.94 252.754 255.702C252.348 255.597 251.876 255.389 251.426 255.191C250.782 254.907 250.182 254.643 249.878 254.724C249.346 254.867 248.736 254.746 248.196 254.639C247.682 254.537 247.232 254.448 246.976 254.613C246.67 254.81 246.409 254.73 246.021 254.611C245.752 254.528 245.422 254.428 244.974 254.387C244.456 254.341 244.089 254.203 243.778 254.086C243.34 253.921 243.01 253.797 242.519 254.025C241.973 254.278 241.402 254.44 240.953 254.36C240.748 254.323 240.514 254.332 240.27 254.341C239.948 254.354 239.608 254.366 239.299 254.275C239.043 254.2 238.832 254.009 238.646 253.839C238.587 253.786 238.532 253.735 238.477 253.691C238.274 253.693 238.071 253.697 237.868 253.703C237.835 253.733 237.8 253.768 237.764 253.803C237.583 253.98 237.36 254.197 237.084 254.305C236.647 254.477 236.264 254.369 235.86 254.256C235.545 254.167 235.218 254.074 234.842 254.108C234.587 254.13 234.295 254.209 234.006 254.286C233.577 254.402 233.153 254.515 232.859 254.443C232.749 254.416 232.654 254.296 232.56 254.176C232.56 254.175 232.559 254.174 232.559 254.174C232.552 254.165 232.546 254.157 232.54 254.149C231.823 254.241 231.106 254.342 230.389 254.449C230.327 254.48 230.264 254.51 230.201 254.541C229.897 254.687 229.602 254.83 229.409 255.033C229.201 255.252 228.676 255.38 228.123 255.515C227.761 255.603 227.386 255.694 227.08 255.816C226.902 255.887 226.732 255.763 226.558 255.635C226.395 255.515 226.228 255.393 226.045 255.423C225.954 255.438 225.855 255.49 225.75 255.545C225.657 255.593 225.559 255.644 225.456 255.676C225.36 255.705 225.148 255.637 224.875 255.551C224.707 255.498 224.515 255.438 224.314 255.389C223.783 255.466 223.252 255.54 222.721 255.609C222.61 255.718 222.514 255.859 222.437 256.041C222.383 256.171 222.336 256.326 222.289 256.485C222.224 256.701 222.156 256.925 222.064 257.103C221.991 257.243 221.906 257.298 221.848 257.24C221.822 257.213 221.801 257.162 221.783 257.116C221.761 257.064 221.742 257.017 221.719 257.018C221.702 257.019 221.685 257.057 221.663 257.102C221.629 257.174 221.585 257.267 221.517 257.27C221.264 257.283 220.978 257.253 220.697 257.223C220.384 257.191 220.079 257.159 219.835 257.187C219.563 257.218 219.174 257.079 218.785 256.941C218.514 256.845 218.242 256.749 218.009 256.71C217.78 256.671 217.543 256.748 217.312 256.823C217.036 256.912 216.77 256.999 216.543 256.878C216.498 256.853 216.441 256.703 216.37 256.515C216.319 256.382 216.261 256.23 216.195 256.09C215.907 256.09 215.619 256.083 215.332 256.072C215.321 256.092 215.311 256.113 215.301 256.134C215.3 256.135 215.3 256.135 215.3 256.136C215.064 256.613 214.74 257.267 214.286 256.877C214.17 256.778 214.098 256.595 214.032 256.43C213.968 256.268 213.91 256.124 213.826 256.093C213.73 256.059 213.618 256.158 213.494 256.266C213.322 256.418 213.129 256.587 212.935 256.429C212.922 256.419 212.908 256.407 212.893 256.395C212.752 256.283 212.545 256.117 212.338 255.783C211.724 255.694 211.111 255.589 210.497 255.475C209.475 255.285 208.452 255.068 207.429 254.852C206.932 254.745 206.455 254.29 206.103 253.562C205.751 252.833 205.553 251.895 205.553 250.926C205.553 249.957 205.751 249.02 206.103 248.291C206.455 247.562 206.932 247.107 207.429 247.001C208.24 246.829 209.052 246.657 209.863 246.498C209.906 246.478 209.948 246.459 209.991 246.441C210.307 246.305 210.601 246.032 210.894 245.759C210.962 245.696 211.029 245.633 211.097 245.572ZM274.806 245.572C275.187 245.107 275.922 245.297 276.327 245.401C276.334 245.403 276.341 245.405 276.349 245.406C276.445 245.431 276.536 245.437 276.642 245.444C276.896 245.461 277.238 245.484 277.954 245.78C278.162 245.769 278.37 245.763 278.578 245.763C280.826 245.763 283.073 246.149 285.321 246.612C285.349 246.61 285.378 246.607 285.407 246.605C285.971 246.557 286.67 246.497 287.109 246.667C287.667 246.882 288.047 247.082 288.358 247.255C290.143 247.627 291.928 247.96 293.714 248.097C294.273 248.14 294.833 248.164 295.392 248.164C295.907 248.164 296.423 248.149 296.938 248.121C297.238 248.02 297.523 247.9 297.788 247.789C298.159 247.633 298.49 247.494 298.764 247.448C299.422 247.339 300.169 247.511 300.724 247.64C300.815 247.66 300.9 247.68 300.98 247.697C301.42 247.634 301.861 247.566 302.302 247.497C302.331 247.535 302.361 247.576 302.391 247.617C302.767 248.132 303.229 248.125 303.957 248.116C304.274 248.111 304.641 248.107 305.073 248.144C305.352 248.168 305.495 248.372 305.612 248.539C305.646 248.588 305.679 248.634 305.711 248.671C305.823 248.798 305.941 248.661 306.081 248.499C306.261 248.289 306.478 248.036 306.765 248.264C307.678 248.99 308.08 248.498 308.385 248.125C308.474 248.016 308.555 247.917 308.638 247.862C308.907 247.684 309.289 247.861 309.579 248.102C309.808 248.294 310.267 248.104 310.615 247.862C310.746 247.771 310.924 247.768 311.134 247.766C311.351 247.764 311.602 247.762 311.87 247.659C312.549 247.4 312.91 247.274 313.199 247.174C313.282 247.145 313.359 247.119 313.436 247.092C313.679 247.006 313.98 246.935 314.286 246.863C314.651 246.778 315.022 246.691 315.304 246.575C316.035 246.697 316.767 246.849 317.498 247.001C317.873 247.08 318.234 247.523 318.499 248.253C318.765 248.984 318.914 249.938 318.914 250.926C318.914 251.914 318.765 252.867 318.499 253.599C318.234 254.329 317.873 254.773 317.498 254.852C316.741 255.009 315.984 255.166 315.228 255.291C314.306 255.443 313.384 255.548 312.462 255.548C311.817 255.548 311.173 255.524 310.528 255.482C310.461 255.477 310.395 255.473 310.329 255.468C309.787 255.711 309.246 255.932 308.865 256.011C308.551 256.076 308.321 255.947 308.125 255.835C307.99 255.759 307.87 255.691 307.749 255.702C307.684 255.708 307.595 255.723 307.488 255.741C307.051 255.815 306.309 255.94 305.632 255.702C305.331 255.597 304.982 255.389 304.649 255.191C304.173 254.907 303.728 254.643 303.504 254.724C303.11 254.867 302.658 254.746 302.259 254.639C301.878 254.537 301.545 254.448 301.356 254.613C301.129 254.81 300.936 254.73 300.65 254.611C300.451 254.528 300.206 254.428 299.874 254.387C299.491 254.341 299.22 254.203 298.99 254.086C298.665 253.921 298.421 253.797 298.057 254.025C297.653 254.278 297.231 254.44 296.899 254.36C296.747 254.323 296.574 254.332 296.394 254.341C296.155 254.354 295.904 254.366 295.675 254.275C295.486 254.2 295.33 254.009 295.192 253.839C295.149 253.786 295.107 253.735 295.067 253.691C294.917 253.693 294.766 253.697 294.616 253.703C294.591 253.733 294.566 253.768 294.539 253.803C294.405 253.98 294.24 254.197 294.036 254.305C293.713 254.477 293.429 254.369 293.13 254.256C292.897 254.167 292.655 254.074 292.377 254.108C292.188 254.13 291.972 254.209 291.758 254.286C291.441 254.402 291.127 254.515 290.909 254.443C290.828 254.416 290.758 254.296 290.688 254.176C290.688 254.175 290.688 254.174 290.687 254.174C290.683 254.165 290.678 254.157 290.673 254.149C290.143 254.241 289.612 254.342 289.081 254.449C289.035 254.48 288.989 254.51 288.943 254.541C288.718 254.687 288.499 254.83 288.357 255.033C288.202 255.252 287.814 255.38 287.405 255.515C287.137 255.603 286.86 255.694 286.633 255.816C286.501 255.887 286.376 255.763 286.247 255.635C286.126 255.515 286.003 255.393 285.867 255.423C285.8 255.438 285.727 255.49 285.649 255.545C285.58 255.593 285.507 255.644 285.431 255.676C285.36 255.705 285.203 255.637 285.001 255.551C284.877 255.498 284.735 255.438 284.586 255.389C284.193 255.466 283.8 255.54 283.407 255.609C283.325 255.718 283.254 255.859 283.198 256.041C283.157 256.171 283.123 256.326 283.087 256.485C283.039 256.701 282.99 256.925 282.921 257.103C282.867 257.243 282.804 257.298 282.762 257.24C282.742 257.213 282.727 257.162 282.713 257.116C282.697 257.064 282.683 257.017 282.666 257.018C282.653 257.019 282.641 257.057 282.625 257.102C282.599 257.174 282.566 257.267 282.516 257.27C282.329 257.283 282.117 257.253 281.909 257.223C281.678 257.191 281.452 257.159 281.272 257.187C281.07 257.218 280.783 257.079 280.495 256.941C280.294 256.845 280.093 256.749 279.92 256.71C279.751 256.671 279.575 256.748 279.405 256.823C279.2 256.912 279.003 256.999 278.836 256.878C278.802 256.853 278.76 256.703 278.707 256.515C278.67 256.382 278.627 256.23 278.578 256.09C278.365 256.09 278.152 256.083 277.939 256.072C277.932 256.092 277.924 256.113 277.916 256.134C277.916 256.135 277.916 256.135 277.916 256.136C277.741 256.613 277.502 257.267 277.165 256.877C277.08 256.778 277.026 256.595 276.978 256.43C276.93 256.268 276.887 256.124 276.825 256.093C276.754 256.059 276.671 256.158 276.58 256.266C276.452 256.418 276.309 256.587 276.166 256.429C276.156 256.419 276.145 256.407 276.134 256.395C276.031 256.283 275.877 256.117 275.724 255.783C275.27 255.694 274.816 255.589 274.362 255.475C273.605 255.285 272.848 255.068 272.091 254.852C271.723 254.745 271.37 254.29 271.11 253.562C270.85 252.833 270.703 251.895 270.703 250.926C270.703 249.957 270.85 249.02 271.11 248.291C271.37 247.562 271.723 247.107 272.091 247.001C272.692 246.829 273.292 246.657 273.893 246.498C273.924 246.478 273.956 246.459 273.987 246.441C274.221 246.305 274.438 246.032 274.656 245.759C274.706 245.696 274.756 245.633 274.806 245.572ZM276.405 263.027C276.869 264.119 276.679 266.225 276.575 267.384C276.573 267.405 276.572 267.426 276.57 267.448C276.545 267.723 276.539 267.983 276.532 268.288C276.515 269.014 276.493 269.996 276.197 272.045C276.207 272.642 276.213 273.238 276.213 273.834C276.213 280.273 275.827 286.712 275.364 293.151C275.367 293.233 275.369 293.315 275.372 293.399C275.42 295.014 275.479 297.016 275.31 298.275C275.094 299.874 274.894 300.961 274.721 301.853C274.349 306.968 274.017 312.082 273.879 317.197C273.836 318.799 273.812 320.403 273.812 322.005C273.812 323.482 273.827 324.958 273.855 326.434C273.956 327.294 274.076 328.111 274.187 328.869C274.344 329.934 274.483 330.882 274.528 331.665C274.637 333.552 274.465 335.692 274.337 337.282C274.316 337.541 274.296 337.787 274.279 338.014C274.342 339.276 274.41 340.539 274.48 341.801C274.441 341.885 274.401 341.97 274.36 342.056C273.845 343.134 273.851 344.458 273.861 346.543C273.865 347.451 273.869 348.503 273.832 349.742C273.808 350.54 273.604 350.95 273.437 351.285C273.388 351.384 273.343 351.476 273.306 351.569C273.179 351.89 273.316 352.228 273.478 352.627C273.688 353.146 273.94 353.767 273.712 354.588C272.986 357.204 273.479 358.357 273.851 359.229C273.961 359.485 274.059 359.717 274.114 359.954C274.292 360.724 274.116 361.82 273.874 362.649C273.682 363.306 273.872 364.621 274.114 365.618C274.206 365.995 274.208 366.505 274.21 367.105C274.212 367.727 274.214 368.446 274.317 369.215C274.576 371.159 274.702 372.192 274.803 373.022C274.831 373.259 274.858 373.48 274.885 373.7C274.971 374.396 275.042 375.26 275.113 376.135C275.199 377.182 275.286 378.244 275.402 379.052C275.279 381.147 275.127 383.243 274.976 385.338C274.897 386.414 274.454 387.446 273.723 388.207C272.992 388.968 272.039 389.395 271.05 389.395C270.062 389.395 269.109 388.968 268.378 388.207C267.647 387.446 267.203 386.414 267.125 385.338C266.968 383.17 266.811 381.002 266.686 378.834C266.534 376.193 266.429 373.552 266.429 370.911C266.429 369.063 266.452 367.216 266.495 365.368C266.499 365.178 266.504 364.988 266.509 364.798C266.265 363.246 266.044 361.697 265.965 360.605C265.9 359.704 266.03 359.047 266.141 358.484C266.217 358.097 266.285 357.755 266.274 357.408C266.268 357.222 266.253 356.968 266.235 356.661C266.162 355.409 266.037 353.282 266.274 351.342C266.38 350.481 266.587 349.481 266.785 348.526C267.069 347.161 267.333 345.888 267.252 345.245C267.109 344.117 267.23 342.822 267.337 341.679C267.439 340.588 267.528 339.634 267.363 339.091C267.167 338.443 267.247 337.89 267.366 337.068C267.448 336.498 267.548 335.798 267.589 334.847C267.636 333.749 267.774 332.972 267.891 332.312C268.056 331.383 268.18 330.684 267.952 329.642C267.698 328.484 267.537 327.275 267.617 326.322C267.653 325.888 267.644 325.391 267.635 324.875C267.623 324.191 267.61 323.472 267.701 322.815C267.776 322.274 267.968 321.827 268.138 321.431C268.19 321.308 268.241 321.189 268.285 321.074C268.283 320.643 268.279 320.212 268.274 319.781C268.243 319.712 268.209 319.638 268.173 319.562C267.996 319.177 267.779 318.705 267.671 318.12C267.5 317.194 267.607 316.382 267.721 315.525C267.809 314.858 267.902 314.164 267.869 313.368C267.846 312.825 267.768 312.208 267.69 311.595C267.575 310.685 267.461 309.787 267.533 309.163C267.56 308.929 267.681 308.728 267.801 308.529C267.801 308.528 267.802 308.527 267.803 308.526C267.811 308.513 267.819 308.499 267.827 308.486C267.735 306.966 267.634 305.446 267.527 303.926C267.496 303.794 267.466 303.661 267.436 303.529C267.289 302.884 267.146 302.258 266.944 301.85C266.724 301.407 266.596 300.294 266.462 299.122C266.374 298.354 266.283 297.56 266.161 296.912C266.09 296.533 266.214 296.174 266.342 295.804C266.461 295.459 266.584 295.105 266.553 294.718C266.538 294.524 266.487 294.314 266.432 294.091C266.383 293.894 266.332 293.686 266.301 293.468C266.271 293.265 266.339 292.815 266.425 292.237C266.478 291.879 266.538 291.473 266.588 291.047C266.51 289.921 266.436 288.795 266.367 287.669C266.258 287.434 266.117 287.23 265.936 287.069C265.806 286.953 265.65 286.854 265.491 286.753C265.275 286.615 265.051 286.473 264.873 286.276C264.734 286.123 264.678 285.942 264.736 285.82C264.763 285.763 264.814 285.72 264.86 285.68C264.913 285.635 264.959 285.595 264.958 285.545C264.957 285.51 264.92 285.473 264.875 285.427C264.802 285.355 264.709 285.26 264.706 285.117C264.694 284.582 264.724 283.974 264.753 283.378C264.786 282.715 264.817 282.068 264.79 281.552C264.758 280.974 264.897 280.151 265.035 279.326C265.131 278.751 265.227 278.174 265.266 277.68C265.305 277.196 265.228 276.691 265.154 276.203C265.064 275.616 264.977 275.052 265.099 274.573C265.123 274.476 265.273 274.356 265.461 274.205C265.594 274.098 265.746 273.974 265.887 273.834C265.887 273.224 265.893 272.614 265.904 272.004C265.884 271.982 265.863 271.96 265.842 271.938C265.842 271.938 265.841 271.937 265.841 271.937C265.363 271.436 264.71 270.75 265.099 269.787C265.198 269.542 265.381 269.388 265.546 269.249C265.708 269.112 265.853 268.99 265.883 268.812C265.918 268.609 265.818 268.37 265.71 268.109C265.559 267.743 265.389 267.334 265.547 266.923C265.558 266.895 265.57 266.865 265.581 266.833C265.694 266.536 265.86 266.095 266.194 265.657C266.283 264.356 266.387 263.055 266.501 261.755C266.691 259.587 266.908 257.418 267.125 255.25C267.231 254.195 267.686 253.184 268.414 252.438C269.144 251.692 270.081 251.273 271.05 251.273C272.02 251.273 272.957 251.692 273.686 252.438C274.414 253.184 274.869 254.195 274.976 255.25C275.147 256.97 275.319 258.69 275.478 260.411C275.498 260.501 275.518 260.591 275.536 260.681C275.672 261.352 275.945 261.974 276.218 262.597C276.281 262.74 276.343 262.883 276.405 263.027ZM94.0022 195.987C94.4668 196.904 94.2771 198.672 94.1729 199.645C94.1712 199.663 94.1695 199.681 94.1678 199.699C94.1431 199.93 94.1367 200.148 94.1297 200.404C94.113 201.014 94.0904 201.838 93.7942 203.559C93.8051 204.06 93.8111 204.56 93.8111 205.061C93.8111 210.467 93.4248 215.874 92.9622 221.28C92.9646 221.348 92.967 221.418 92.9695 221.488C93.0175 222.844 93.0768 224.525 92.9072 225.582C92.6917 226.925 92.4917 227.837 92.3191 228.586C91.9469 232.881 91.6143 237.175 91.4768 241.469C91.4337 242.815 91.4102 244.161 91.4102 245.507C91.4102 246.746 91.4249 247.986 91.4526 249.225C91.5537 249.947 91.6739 250.633 91.7852 251.269C91.9415 252.163 92.0804 252.959 92.1257 253.617C92.2349 255.201 92.0626 256.998 91.9346 258.333C91.9137 258.551 91.8938 258.757 91.8767 258.947C91.9401 260.007 92.008 261.067 92.0774 262.127C92.0388 262.198 91.9985 262.269 91.9573 262.342C91.4423 263.246 91.4489 264.358 91.4585 266.109C91.4627 266.871 91.4672 267.754 91.4299 268.795C91.4059 269.465 91.2017 269.809 91.0351 270.09C90.9861 270.173 90.9403 270.251 90.9033 270.329C90.7765 270.598 90.9136 270.882 91.0754 271.218C91.2854 271.652 91.5377 272.174 91.3098 272.864C90.5837 275.06 91.0763 276.028 91.449 276.76C91.5583 276.975 91.6571 277.17 91.7119 277.369C91.8898 278.015 91.7136 278.936 91.4717 279.632C91.2799 280.184 91.47 281.287 91.7119 282.125C91.8034 282.441 91.8057 282.869 91.8079 283.374C91.8101 283.895 91.8122 284.499 91.9148 285.145C92.1741 286.777 92.2998 287.644 92.4004 288.342C92.4291 288.54 92.4552 288.726 92.4824 288.911C92.5685 289.495 92.6394 290.22 92.711 290.955C92.7966 291.834 92.8835 292.726 92.9995 293.404C92.8767 295.163 92.7248 296.923 92.5733 298.682C92.4946 299.585 92.0514 300.452 91.3208 301.091C90.5896 301.73 89.6362 302.088 88.6481 302.089C87.6601 302.089 86.7067 301.73 85.9755 301.091C85.2449 300.452 84.801 299.585 84.7223 298.682C84.5654 296.862 84.4085 295.041 84.2836 293.221C84.1313 291.003 84.0265 288.786 84.0265 286.569C84.0265 285.017 84.05 283.466 84.0924 281.915C84.0967 281.755 84.1016 281.596 84.1063 281.436C83.863 280.133 83.6417 278.832 83.5628 277.916C83.4977 277.159 83.6276 276.608 83.7386 276.135C83.815 275.81 83.8827 275.522 83.8719 275.231C83.8661 275.075 83.8511 274.862 83.8331 274.604C83.7595 273.553 83.6345 271.767 83.8719 270.138C83.9773 269.415 84.1849 268.576 84.3832 267.774C84.6666 266.628 84.9309 265.559 84.8497 265.019C84.7071 264.072 84.8278 262.985 84.9347 262.025C85.0366 261.109 85.1256 260.308 84.9611 259.852C84.7643 259.308 84.8445 258.843 84.9633 258.153C85.0456 257.675 85.1462 257.087 85.1866 256.289C85.2334 255.367 85.3712 254.715 85.4884 254.16C85.6534 253.38 85.7774 252.793 85.5492 251.918C85.2957 250.946 85.1344 249.931 85.2145 249.131C85.251 248.766 85.2421 248.35 85.2328 247.916C85.2205 247.342 85.2077 246.738 85.2987 246.187C85.3737 245.732 85.5655 245.357 85.7352 245.024C85.7882 244.921 85.8387 244.821 85.8832 244.725C85.8807 244.363 85.8772 244.001 85.8715 243.639C85.8406 243.581 85.8064 243.519 85.7711 243.455C85.5941 243.132 85.3769 242.735 85.2687 242.244C85.0974 241.467 85.2047 240.785 85.3185 240.066C85.4071 239.505 85.4996 238.923 85.4664 238.254C85.4438 237.799 85.3654 237.28 85.2877 236.766C85.1724 236.002 85.0588 235.248 85.131 234.724C85.158 234.527 85.2785 234.359 85.3983 234.192C85.3991 234.191 85.3998 234.19 85.4005 234.189C85.4087 234.178 85.4166 234.167 85.4247 234.155C85.3329 232.879 85.2317 231.603 85.1251 230.326C85.0942 230.216 85.0636 230.104 85.0336 229.993C84.8867 229.452 84.744 228.926 84.5414 228.583C84.3218 228.212 84.1941 227.278 84.0594 226.293C83.9713 225.648 83.8802 224.982 83.7584 224.438C83.6872 224.12 83.8113 223.818 83.9393 223.507C84.0587 223.218 84.1813 222.92 84.151 222.595C84.1358 222.432 84.0844 222.256 84.0294 222.069C83.981 221.903 83.9297 221.729 83.8983 221.546C83.8692 221.376 83.9368 220.997 84.0228 220.512C84.076 220.212 84.136 219.871 84.1854 219.513C84.1081 218.568 84.0339 217.622 83.9649 216.677C83.8561 216.48 83.7149 216.308 83.5335 216.173C83.4034 216.076 83.2479 215.993 83.089 215.908C82.8726 215.792 82.649 215.673 82.4708 215.508C82.3315 215.379 82.276 215.227 82.3338 215.124C82.3608 215.077 82.4116 215.04 82.4576 215.007C82.5102 214.969 82.5571 214.935 82.5557 214.894C82.5547 214.864 82.5174 214.833 82.4722 214.795C82.4002 214.734 82.3071 214.655 82.3038 214.534C82.2915 214.085 82.3213 213.574 82.3507 213.074C82.3833 212.518 82.4151 211.974 82.3873 211.541C82.3561 211.056 82.4946 210.365 82.6326 209.672C82.7289 209.189 82.8248 208.705 82.8641 208.29C82.9026 207.883 82.826 207.46 82.7513 207.049C82.6616 206.557 82.5749 206.084 82.6964 205.681C82.721 205.6 82.8711 205.499 83.0589 205.372C83.192 205.282 83.3442 205.179 83.4845 205.061C83.4845 204.549 83.4906 204.036 83.502 203.524C83.4817 203.506 83.461 203.487 83.4398 203.469C83.4393 203.468 83.4388 203.468 83.4383 203.468C82.9607 203.047 82.3073 202.471 82.6971 201.662C82.7962 201.457 82.9792 201.327 83.1439 201.211C83.3056 201.096 83.4504 200.994 83.4808 200.844C83.5153 200.674 83.416 200.473 83.3079 200.254C83.1563 199.946 82.9869 199.603 83.1446 199.258C83.1554 199.235 83.1672 199.209 83.179 199.183C83.2913 198.933 83.4573 198.563 83.7914 198.195C83.8805 197.103 83.985 196.011 84.099 194.919C84.289 193.098 84.5057 191.278 84.7223 189.457C84.8289 188.572 85.2838 187.722 86.0121 187.096C86.7414 186.47 87.6787 186.118 88.6481 186.118C89.6175 186.118 90.5542 186.47 91.2834 187.096C92.0118 187.723 92.4667 188.572 92.5733 189.457C92.7451 190.901 92.9171 192.346 93.0757 193.79C93.0958 193.866 93.1153 193.942 93.1336 194.018C93.2694 194.581 93.5423 195.103 93.8155 195.626C93.8782 195.746 93.9411 195.866 94.0022 195.987ZM17.8307 255.582C19.3525 256.274 21.5803 258.434 22.8059 259.621C22.8285 259.643 22.8512 259.665 22.8738 259.686C23.1647 259.968 23.4509 260.222 23.7865 260.519C24.5869 261.227 25.6682 262.184 27.763 264.369C28.4357 264.931 29.1053 265.498 29.7708 266.068C36.9587 272.229 43.8951 278.684 50.7818 285.196C50.8742 285.272 50.9681 285.349 51.063 285.427C52.897 286.936 55.1711 288.808 56.4654 290.14C58.1109 291.835 59.1937 293.026 60.0775 294.011C65.5444 299.187 71.0371 304.334 76.6568 309.332C78.4181 310.898 80.1923 312.45 81.9817 313.984C83.6294 315.396 85.2871 316.798 86.9529 318.189C87.9783 318.935 88.9688 319.626 89.8872 320.266C91.1778 321.167 92.3266 321.968 93.2303 322.683C93.7249 323.075 94.2247 323.489 94.7217 323.916L89.4209 324.179C90.9617 322.57 92.635 321.002 93.9549 319.765C94.234 319.503 94.4976 319.257 94.7405 319.027C95.9775 317.642 97.2116 316.254 98.4443 314.865C98.5579 314.802 98.6733 314.739 98.7908 314.676C100.258 313.887 101.599 312.476 103.711 310.254C104.63 309.287 105.696 308.166 106.982 306.875C107.811 306.044 108.375 305.749 108.836 305.508C108.971 305.438 109.098 305.371 109.22 305.297C109.638 305.044 109.882 304.59 110.171 304.054C110.546 303.359 110.995 302.524 111.994 301.809C115.178 299.531 115.993 297.966 116.61 296.782C116.791 296.435 116.955 296.12 117.157 295.83C117.81 294.889 119.052 293.846 120.069 293.132C120.876 292.567 122.075 291.038 122.913 289.812C123.23 289.348 123.747 288.805 124.355 288.165C124.985 287.503 125.714 286.738 126.422 285.85C128.21 283.605 129.169 282.421 129.94 281.469C130.16 281.197 130.366 280.945 130.57 280.692C131.215 279.893 132.042 278.926 132.879 277.947C133.881 276.776 134.898 275.587 135.635 274.648C137.853 272.507 140.092 270.386 142.331 268.265C143.481 267.176 144.851 266.385 146.152 266.082C147.454 265.779 148.577 265.984 149.291 266.667C150.005 267.349 150.26 268.463 150.015 269.776C149.77 271.09 149.041 272.494 148.004 273.691C145.915 276.103 143.825 278.515 141.712 280.905C139.138 283.816 136.53 286.695 133.846 289.501C131.968 291.464 130.074 293.41 128.166 295.344C127.969 295.543 127.772 295.742 127.576 295.941C126.174 297.758 124.76 299.557 123.708 300.771C122.839 301.773 122.077 302.381 121.425 302.902C120.977 303.261 120.58 303.578 120.235 303.954C120.05 304.156 119.802 304.436 119.504 304.775C118.284 306.156 116.213 308.502 114.07 310.399C113.119 311.241 111.953 312.16 110.839 313.038C109.247 314.292 107.762 315.462 107.168 316.201C106.124 317.499 104.721 318.79 103.482 319.932C102.3 321.02 101.266 321.972 100.833 322.663C100.316 323.488 99.6965 324.02 98.7753 324.811C98.1364 325.36 97.3526 326.034 96.3569 327.016C95.5714 327.791 94.9076 328.378 94.3248 328.869L92.1716 330.869L90.3053 329.068C90.0631 328.811 89.8422 328.57 89.6329 328.342C88.7031 327.327 88.0033 326.564 86.6917 325.74C85.2346 324.825 83.7792 323.79 82.7678 322.818C82.3071 322.375 81.7472 321.907 81.1646 321.42C80.3933 320.775 79.5821 320.096 78.9083 319.399C78.353 318.824 77.9786 318.25 77.6473 317.743C77.544 317.585 77.4446 317.433 77.3454 317.289C76.8627 316.879 76.3792 316.469 75.8944 316.061C75.7964 316.018 75.6923 315.973 75.5838 315.927C75.0396 315.694 74.371 315.406 73.6476 314.929C72.5028 314.173 71.6658 313.315 70.7833 312.408C70.0962 311.703 69.3815 310.968 68.4716 310.232C67.8511 309.73 67.1104 309.198 66.3761 308.671C65.2856 307.888 64.2089 307.115 63.5591 306.463C63.3157 306.218 63.1696 305.935 63.0255 305.653C63.025 305.652 63.0245 305.651 63.024 305.649C63.0143 305.63 63.0043 305.611 62.9945 305.592C61.2379 304.207 59.4751 302.829 57.7089 301.456C57.5417 301.353 57.3733 301.249 57.2064 301.146C56.3913 300.641 55.5993 300.15 55.0116 299.913C54.3747 299.656 53.0495 298.688 51.653 297.669C50.7385 297.001 49.793 296.31 48.9903 295.783C48.5211 295.474 48.2006 295.036 47.8711 294.585C47.5637 294.164 47.2481 293.732 46.7961 293.385C46.5697 293.211 46.3024 293.049 46.017 292.877C45.7658 292.726 45.5002 292.565 45.2365 292.381C44.9916 292.209 44.5323 291.726 43.943 291.108C43.5788 290.726 43.1647 290.292 42.7213 289.847C41.4139 288.828 40.1084 287.807 38.8065 286.781C38.4734 286.639 38.154 286.551 37.8558 286.535C37.6419 286.523 37.4307 286.546 37.2142 286.57C36.9196 286.603 36.6149 286.636 36.2796 286.583C36.0175 286.542 35.7792 286.411 35.6811 286.251C35.6354 286.176 35.6199 286.096 35.6058 286.023C35.5895 285.94 35.575 285.866 35.5191 285.82C35.4787 285.786 35.4131 285.779 35.333 285.77C35.205 285.755 35.0389 285.736 34.8763 285.6C34.2711 285.098 33.6117 284.493 32.9659 283.901C32.2477 283.243 31.5456 282.599 30.9517 282.126C30.2864 281.597 29.4573 280.704 28.6264 279.81C28.0467 279.186 27.4658 278.562 26.9395 278.059C26.4238 277.567 25.8109 277.142 25.2169 276.731C24.504 276.238 23.818 275.764 23.362 275.214C23.2698 275.102 23.2331 274.873 23.1868 274.586C23.1539 274.383 23.1155 274.149 23.0502 273.908C22.3692 273.325 21.692 272.736 21.0184 272.144C20.9811 272.139 20.9429 272.133 20.9043 272.128C20.9036 272.128 20.9029 272.128 20.9022 272.128C20.032 272.011 18.8413 271.851 18.0195 270.633C17.8106 270.324 17.7576 270.037 17.7098 269.779C17.6627 269.526 17.6208 269.299 17.4414 269.106C17.2376 268.885 16.9058 268.732 16.5443 268.564C16.0367 268.329 15.4697 268.066 15.1141 267.553C15.0898 267.518 15.0638 267.481 15.0365 267.442C14.7773 267.072 14.3935 266.524 14.1216 265.851C12.7277 264.539 11.3436 263.215 9.96581 261.884C7.66926 259.665 5.38956 257.425 3.11051 255.186C2.00252 254.096 1.16946 252.783 0.810865 251.516C0.452895 250.249 0.595039 249.136 1.22596 248.4C1.85691 247.664 2.93434 247.354 4.24147 247.514C5.54802 247.675 6.97316 248.297 8.21994 249.226C10.2517 250.741 12.2841 252.256 14.3075 253.782C14.4212 253.853 14.535 253.925 14.6474 253.997C15.4844 254.536 16.3564 254.924 17.2292 255.312C17.4297 255.401 17.6306 255.49 17.8307 255.582ZM104.141 355.451C104.868 356.351 105.274 358.342 105.533 359.425C105.538 359.445 105.543 359.465 105.548 359.485C105.608 359.742 105.683 359.979 105.772 360.256C105.989 360.914 106.264 361.807 106.724 363.693C106.95 364.204 107.176 364.707 107.405 365.205C108.965 368.694 111.127 372.107 112.73 373.108C114.471 374.118 116.434 375.132 118.382 376.081C118.458 376.109 118.536 376.137 118.615 376.166C120.125 376.717 122.001 377.345 123.155 377.928C124.571 378.653 125.565 379.189 126.362 379.628C131.158 381.564 136.103 383.219 141.143 384.452C142.712 384.836 144.319 385.184 145.916 385.482C147.427 385.764 148.85 385.995 150.372 386.211C151.239 386.247 152.074 386.253 152.855 386.254C153.966 386.258 154.914 386.245 155.709 386.302C157.641 386.443 159.734 386.848 161.358 387.132C161.614 387.178 161.858 387.22 162.083 387.258C163.348 387.312 164.665 387.351 165.928 387.371C166.01 387.415 166.092 387.461 166.176 387.508C167.216 388.096 168.606 388.18 170.696 388.264C171.61 388.3 172.711 388.337 173.951 388.406C174.757 388.45 175.17 388.662 175.51 388.834C175.609 388.885 175.703 388.932 175.798 388.971C176.125 389.103 176.474 388.97 176.886 388.813C177.429 388.608 178.042 388.36 178.878 388.587C181.552 389.305 182.727 388.774 183.598 388.38C183.855 388.264 184.088 388.158 184.328 388.096C185.105 387.894 186.236 388.027 187.078 388.23C187.75 388.391 189.078 388.132 190.084 387.825C190.469 387.709 190.973 387.674 191.58 387.629C192.206 387.582 192.933 387.525 193.706 387.358C195.677 386.933 196.667 386.703 197.502 386.516C197.738 386.463 197.958 386.413 198.177 386.362C198.872 386.201 199.74 386.031 200.599 385.855C201.633 385.644 202.689 385.418 203.487 385.19C205.595 385.025 207.716 384.85 209.828 384.639C210.907 384.533 212.014 384.781 212.916 385.355C213.816 385.929 214.436 386.778 214.625 387.748C214.815 388.718 214.558 389.74 213.905 390.608C213.254 391.474 212.26 392.107 211.163 392.376C208.936 392.919 206.7 393.423 204.444 393.857C201.693 394.385 198.918 394.807 196.151 395.063C194.195 395.243 192.249 395.369 190.296 395.446C190.093 395.454 189.89 395.462 189.688 395.469C188.048 395.808 186.455 396.098 185.276 396.218C184.317 396.316 183.617 396.205 183.021 396.107C182.61 396.04 182.249 395.98 181.886 395.997C181.693 396.006 181.416 396.025 181.09 396.048C179.744 396.14 177.526 396.272 175.446 395.998C174.53 395.877 173.499 395.644 172.487 395.413C171.04 395.082 169.721 394.755 169.048 394.802C167.85 394.884 166.478 394.678 165.297 394.486C164.172 394.304 163.151 394.13 162.574 394.245C161.875 394.382 161.311 394.251 160.461 394.049C159.864 393.907 159.134 393.733 158.148 393.583C157.016 393.411 156.213 393.174 155.535 392.971C154.579 392.684 153.887 392.468 152.769 392.541C151.512 392.62 150.238 392.589 149.268 392.352C148.816 392.242 148.294 392.166 147.756 392.084C147.04 391.975 146.311 391.86 145.641 391.646C145.086 391.468 144.657 391.193 144.28 390.948C144.163 390.872 144.05 390.799 143.941 390.733C143.498 390.65 143.059 390.568 142.621 390.485C142.542 390.501 142.458 390.519 142.371 390.538C141.934 390.63 141.399 390.742 140.774 390.721C139.788 390.688 138.984 390.402 138.116 390.088C137.443 389.844 136.772 389.593 135.948 389.428C135.377 389.314 134.723 389.234 134.084 389.152C133.15 389.035 132.171 388.895 131.56 388.655C131.329 388.565 131.158 388.393 130.99 388.223C130.989 388.222 130.988 388.221 130.987 388.22C130.976 388.209 130.965 388.197 130.953 388.186C129.376 387.849 127.841 387.51 126.243 387.132C126.101 387.121 125.958 387.108 125.817 387.096C125.138 387.04 124.452 386.971 123.972 387.029C123.447 387.091 122.315 386.857 121.064 386.569C120.274 386.39 119.434 386.188 118.737 386.065C118.329 385.992 118.033 385.751 117.7 385.49C117.384 385.244 117.068 384.994 116.674 384.875C116.477 384.815 116.253 384.784 116.017 384.751C115.812 384.723 115.566 384.681 115.335 384.624C115.118 384.569 114.686 384.324 114.166 384.018C113.824 383.82 113.426 383.59 113.032 383.369C111.899 382.973 110.711 382.525 109.598 382.072C109.301 382.051 109.032 382.078 108.792 382.162C108.619 382.223 108.454 382.315 108.286 382.409C108.193 382.46 108.1 382.513 108.004 382.561C107.813 382.608 107.61 382.641 107.385 382.639C107.088 382.637 106.791 382.527 106.646 382.369C106.578 382.296 106.542 382.214 106.513 382.141C106.479 382.057 106.45 381.983 106.383 381.94C106.334 381.91 106.264 381.908 106.178 381.905C106.041 381.899 105.86 381.89 105.669 381.757C104.957 381.264 104.256 380.634 103.656 380.013C102.976 379.314 102.404 378.619 101.945 378.106C101.415 377.518 100.871 376.565 100.419 375.635C100.09 374.97 99.8109 374.334 99.5387 373.792C99.2799 373.276 98.9142 372.776 98.581 372.307C98.1755 371.734 97.8035 371.181 97.6708 370.624C97.6443 370.511 97.7182 370.318 97.815 370.082C97.8835 369.915 97.9621 369.723 98.0231 369.52C97.7324 368.888 97.4636 368.257 97.2094 367.618C97.1812 367.603 97.1525 367.588 97.1233 367.573C97.1227 367.573 97.1221 367.573 97.1215 367.572C96.4669 367.241 95.562 366.75 95.5474 365.6C95.5439 365.307 95.6561 365.081 95.7581 364.881C95.8582 364.683 95.9484 364.507 95.9107 364.311C95.8678 364.089 95.6863 363.873 95.4898 363.636C95.2143 363.304 94.9083 362.928 94.9169 362.448C94.9175 362.415 94.9184 362.38 94.9189 362.344C94.9234 361.997 94.933 361.485 95.1105 360.93C94.7745 359.549 94.4878 358.162 94.241 356.778C93.8282 354.463 93.5226 352.146 93.2931 349.823C93.1806 348.681 93.4468 347.551 94.0385 346.636C94.6337 345.736 95.5027 345.172 96.4626 345.04C97.4223 344.9 98.4072 345.188 99.2438 345.804C100.082 346.438 100.696 347.318 101.001 348.332C101.493 349.968 102.03 351.598 102.593 353.207C102.634 353.289 102.675 353.372 102.714 353.454C103.006 354.056 103.427 354.585 103.85 355.096C103.947 355.214 104.045 355.332 104.141 355.451ZM361.117 7.18528C361.582 7.26772 361.392 7.42669 361.288 7.51414C361.286 7.51574 361.285 7.51735 361.283 7.51895C361.258 7.5397 361.252 7.55934 361.245 7.58234C361.228 7.63718 361.205 7.71128 360.909 7.86594C360.92 7.91094 360.926 7.95595 360.926 8.00095C360.926 8.48691 360.54 8.97287 360.077 9.45883C360.08 9.46497 360.082 9.47122 360.085 9.47752C360.132 9.59941 360.192 9.75055 360.022 9.84551C359.807 9.96625 359.607 10.0483 359.434 10.1156C359.062 10.5016 358.729 10.8876 358.592 11.2736C358.549 11.3945 358.525 11.5155 358.525 11.6365C358.525 11.7479 358.54 11.8593 358.568 11.9707C358.669 12.0356 358.789 12.0973 358.9 12.1545C359.057 12.2349 359.195 12.3064 359.241 12.3655C359.35 12.5079 359.178 12.6695 359.05 12.7894C359.029 12.809 359.009 12.8276 358.992 12.8447C359.055 12.9399 359.123 13.0352 359.192 13.1305C359.154 13.1369 359.114 13.1433 359.072 13.1498C358.557 13.2311 358.564 13.3311 358.574 13.4884C358.578 13.5569 358.582 13.6363 358.545 13.7298C358.521 13.7901 358.317 13.821 358.15 13.8463C358.101 13.8537 358.055 13.8607 358.018 13.8678C357.892 13.892 358.029 13.9175 358.19 13.9476C358.4 13.9867 358.653 14.0336 358.425 14.0956C357.699 14.293 358.191 14.38 358.564 14.4458C358.673 14.4651 358.772 14.4826 358.827 14.5005C359.005 14.5586 358.829 14.6414 358.587 14.704C358.395 14.7535 358.585 14.8528 358.827 14.928C358.918 14.9565 358.921 14.995 358.923 15.0403C358.925 15.0872 358.927 15.1415 359.03 15.1995C359.289 15.3462 359.415 15.4242 359.515 15.4869C359.544 15.5047 359.57 15.5214 359.597 15.538C359.684 15.5905 359.754 15.6557 359.826 15.7217C359.912 15.8007 359.999 15.8809 360.115 15.9419C359.992 16.1001 359.84 16.2582 359.688 16.4163C359.61 16.4975 359.166 16.5754 358.436 16.6329C357.705 16.6903 356.751 16.7225 355.763 16.7225C354.775 16.7225 353.822 16.6903 353.091 16.6329C352.36 16.5754 351.916 16.4975 351.837 16.4163C351.68 16.2527 351.524 16.0891 351.399 15.9254C351.246 15.7261 351.142 15.5268 351.142 15.3275C351.142 15.188 351.165 15.0486 351.207 14.9092C351.212 14.8948 351.217 14.8805 351.221 14.8661C350.978 14.749 350.757 14.6321 350.678 14.5497C350.613 14.4817 350.743 14.4321 350.854 14.3896C350.93 14.3604 350.998 14.3346 350.987 14.3084C350.981 14.2944 350.966 14.2752 350.948 14.252C350.875 14.1575 350.75 13.997 350.987 13.8506C351.092 13.7856 351.3 13.7101 351.498 13.6381C351.782 13.535 352.046 13.439 351.965 13.3905C351.822 13.3053 351.943 13.2076 352.05 13.1213C352.152 13.0389 352.241 12.9669 352.076 12.926C351.879 12.8771 351.96 12.8353 352.078 12.7733C352.161 12.7303 352.261 12.6775 352.302 12.6057C352.348 12.5228 352.486 12.4642 352.603 12.4144C352.768 12.3442 352.892 12.2915 352.664 12.2128C352.411 12.1255 352.249 12.0342 352.33 11.9623C352.366 11.9295 352.357 11.8921 352.348 11.8531C352.336 11.8015 352.323 11.7472 352.414 11.6976C352.489 11.6568 352.681 11.623 352.85 11.5932C352.903 11.5839 352.954 11.5749 352.998 11.5662C352.996 11.5337 352.992 11.5012 352.987 11.4687C352.956 11.4634 352.921 11.4579 352.886 11.4521C352.709 11.4231 352.492 11.3874 352.384 11.3433C352.212 11.2734 352.32 11.2121 352.434 11.1474C352.522 11.0971 352.615 11.0447 352.581 10.9846C352.559 10.9437 352.48 10.8971 352.403 10.8508C352.287 10.7822 352.174 10.7144 352.246 10.6673C352.273 10.6496 352.394 10.6344 352.513 10.6194C352.514 10.6194 352.515 10.6193 352.516 10.6192C352.524 10.6182 352.532 10.6172 352.54 10.6162C352.448 10.5014 352.347 10.3867 352.24 10.272C352.209 10.2621 352.179 10.252 352.149 10.2421C352.002 10.1934 351.859 10.1461 351.656 10.1153C351.437 10.0819 351.309 9.99795 351.174 9.90946C351.086 9.85151 350.995 9.79159 350.873 9.74268C350.802 9.71409 350.926 9.68696 351.054 9.65905C351.174 9.63302 351.296 9.60628 351.266 9.57706C351.251 9.56242 351.199 9.54661 351.144 9.52974C351.096 9.51488 351.045 9.49918 351.013 9.48273C350.984 9.46745 351.052 9.43343 351.138 9.3898C351.191 9.36284 351.251 9.3322 351.3 9.30005C351.223 9.21506 351.149 9.13006 351.08 9.04507C350.971 9.02734 350.83 9.01196 350.649 8.99978C350.518 8.99104 350.363 8.9836 350.204 8.97596C349.988 8.96556 349.764 8.9548 349.586 8.93997C349.447 8.92838 349.391 8.91471 349.449 8.90554C349.476 8.90126 349.527 8.89798 349.573 8.895C349.625 8.89158 349.672 8.88854 349.671 8.88482C349.67 8.88214 349.632 8.87934 349.587 8.87591C349.515 8.87043 349.422 8.8633 349.419 8.85245C349.407 8.81207 349.436 8.76618 349.466 8.72122C349.498 8.67123 349.53 8.62236 349.502 8.58343C349.471 8.53982 349.61 8.47768 349.748 8.41542C349.844 8.372 349.94 8.32851 349.979 8.2912C350.018 8.25463 349.941 8.21656 349.866 8.17969C349.777 8.13544 349.69 8.09287 349.811 8.0567C349.836 8.04938 349.986 8.0403 350.174 8.0289C350.307 8.02083 350.459 8.01153 350.6 8.00095C350.6 7.9549 350.606 7.90885 350.617 7.8628C350.597 7.86118 350.576 7.85951 350.555 7.85783C350.554 7.85781 350.554 7.85778 350.553 7.85775C350.076 7.81993 349.422 7.76818 349.812 7.69547C349.911 7.67699 350.094 7.66535 350.259 7.65487C350.421 7.64457 350.565 7.63537 350.596 7.6219C350.63 7.60661 350.531 7.58854 350.423 7.56886C350.271 7.54121 350.102 7.51033 350.26 7.47934C350.27 7.47723 350.282 7.47495 350.294 7.47258C350.406 7.45012 350.572 7.41687 350.906 7.38379C350.996 7.28562 351.1 7.18745 351.214 7.08928C351.404 6.92565 351.621 6.76199 351.837 6.59838C351.944 6.51878 352.399 6.44244 353.127 6.38615C353.856 6.32986 354.794 6.29823 355.763 6.29823C356.733 6.29823 357.669 6.32986 358.398 6.38615C359.127 6.44244 359.582 6.51877 359.688 6.59838C359.86 6.72818 360.032 6.85802 360.191 6.98784C360.211 6.99465 360.23 7.00148 360.249 7.00828C360.384 7.05889 360.657 7.10584 360.931 7.15283C360.993 7.16362 361.056 7.17443 361.117 7.18528Z" fill="#F4E8DA"/>
</svg>
